G04 #@! TF.GenerationSoftware,KiCad,Pcbnew,(5.0.0)*
G04 #@! TF.CreationDate,2020-02-27T10:51:14+00:00*
G04 #@! TF.ProjectId,simpleJtag,73696D706C654A7461672E6B69636164,rev?*
G04 #@! TF.SameCoordinates,Original*
G04 #@! TF.FileFunction,Copper,L1,Top,Signal*
G04 #@! TF.FilePolarity,Positive*
%FSLAX46Y46*%
G04 Gerber Fmt 4.6, Leading zero omitted, Abs format (unit mm)*
G04 Created by KiCad (PCBNEW (5.0.0)) date 02/27/20 10:51:14*
%MOMM*%
%LPD*%
G01*
G04 APERTURE LIST*
G04 #@! TA.AperFunction,ComponentPad*
%ADD10C,1.700000*%
G04 #@! TD*
G04 #@! TA.AperFunction,ComponentPad*
%ADD11R,1.700000X1.700000*%
G04 #@! TD*
G04 #@! TA.AperFunction,SMDPad,CuDef*
%ADD12R,1.050000X0.300000*%
G04 #@! TD*
G04 #@! TA.AperFunction,ComponentPad*
%ADD13O,1.800000X1.000000*%
G04 #@! TD*
G04 #@! TA.AperFunction,ComponentPad*
%ADD14O,2.100000X1.000000*%
G04 #@! TD*
G04 #@! TA.AperFunction,SMDPad,CuDef*
%ADD15R,1.200000X1.400000*%
G04 #@! TD*
G04 #@! TA.AperFunction,Conductor*
%ADD16C,0.100000*%
G04 #@! TD*
G04 #@! TA.AperFunction,SMDPad,CuDef*
%ADD17C,1.250000*%
G04 #@! TD*
G04 #@! TA.AperFunction,SMDPad,CuDef*
%ADD18R,1.450000X0.450000*%
G04 #@! TD*
G04 #@! TA.AperFunction,SMDPad,CuDef*
%ADD19C,0.875000*%
G04 #@! TD*
G04 #@! TA.AperFunction,SMDPad,CuDef*
%ADD20C,0.975000*%
G04 #@! TD*
G04 #@! TA.AperFunction,ComponentPad*
%ADD21O,1.700000X1.700000*%
G04 #@! TD*
G04 #@! TA.AperFunction,SMDPad,CuDef*
%ADD22R,0.900000X0.800000*%
G04 #@! TD*
G04 #@! TA.AperFunction,ViaPad*
%ADD23C,0.800000*%
G04 #@! TD*
G04 #@! TA.AperFunction,Conductor*
%ADD24C,0.200000*%
G04 #@! TD*
G04 #@! TA.AperFunction,Conductor*
%ADD25C,0.400000*%
G04 #@! TD*
G04 APERTURE END LIST*
D10*
G04 #@! TO.P,J1,10*
G04 #@! TO.N,/J_RESET*
X164000000Y-68145000D03*
G04 #@! TO.P,J1,9*
G04 #@! TO.N,GND*
X161460000Y-68145000D03*
G04 #@! TO.P,J1,8*
G04 #@! TO.N,/TDI*
X164000000Y-65605000D03*
G04 #@! TO.P,J1,7*
G04 #@! TO.N,GND*
X161460000Y-65605000D03*
G04 #@! TO.P,J1,6*
G04 #@! TO.N,/TDO*
X164000000Y-63065000D03*
G04 #@! TO.P,J1,5*
G04 #@! TO.N,GND*
X161460000Y-63065000D03*
G04 #@! TO.P,J1,4*
G04 #@! TO.N,/TCK*
X164000000Y-60525000D03*
G04 #@! TO.P,J1,3*
G04 #@! TO.N,GND*
X161460000Y-60525000D03*
G04 #@! TO.P,J1,2*
G04 #@! TO.N,/TMS*
X164000000Y-57985000D03*
D11*
G04 #@! TO.P,J1,1*
G04 #@! TO.N,/TVCC*
X161460000Y-57985000D03*
G04 #@! TD*
D12*
G04 #@! TO.P,P1,B5*
G04 #@! TO.N,N/C*
X144750000Y-63995000D03*
G04 #@! TO.P,P1,A12*
G04 #@! TO.N,GND*
X144750000Y-65620000D03*
G04 #@! TO.P,P1,B1*
X144750000Y-65320000D03*
G04 #@! TO.P,P1,A9*
G04 #@! TO.N,Net-(F1-Pad2)*
X144750000Y-64820000D03*
G04 #@! TO.P,P1,B4*
X144750000Y-64520000D03*
G04 #@! TO.P,P1,A8*
G04 #@! TO.N,N/C*
X144750000Y-63520000D03*
G04 #@! TO.P,P1,B6*
G04 #@! TO.N,/USBD+*
X144750000Y-63020000D03*
G04 #@! TO.P,P1,A1*
G04 #@! TO.N,GND*
X144750000Y-58920000D03*
G04 #@! TO.P,P1,B12*
X144750000Y-59220000D03*
G04 #@! TO.P,P1,A4*
G04 #@! TO.N,Net-(F1-Pad2)*
X144750000Y-59720000D03*
G04 #@! TO.P,P1,B8*
G04 #@! TO.N,N/C*
X144750000Y-60520000D03*
G04 #@! TO.P,P1,B9*
G04 #@! TO.N,Net-(F1-Pad2)*
X144750000Y-60020000D03*
G04 #@! TO.P,P1,A5*
G04 #@! TO.N,Net-(P1-PadA5)*
X144750000Y-61020000D03*
G04 #@! TO.P,P1,B7*
G04 #@! TO.N,/USBD-*
X144750000Y-61520000D03*
G04 #@! TO.P,P1,A6*
G04 #@! TO.N,/USBD+*
X144750000Y-62020000D03*
D13*
G04 #@! TO.P,P1,S1*
G04 #@! TO.N,GND*
X134900000Y-57950000D03*
X134900000Y-66760000D03*
D14*
X144250000Y-66500000D03*
D12*
G04 #@! TO.P,P1,A7*
G04 #@! TO.N,/USBD-*
X144750000Y-62520000D03*
D14*
G04 #@! TO.P,P1,S1*
G04 #@! TO.N,GND*
X144250000Y-57950000D03*
G04 #@! TD*
D15*
G04 #@! TO.P,Y1,1*
G04 #@! TO.N,Net-(C8-Pad1)*
X146769000Y-59425000D03*
G04 #@! TO.P,Y1,2*
G04 #@! TO.N,GND*
X146769000Y-61625000D03*
G04 #@! TO.P,Y1,3*
G04 #@! TO.N,Net-(C9-Pad1)*
X148469000Y-61625000D03*
G04 #@! TO.P,Y1,4*
G04 #@! TO.N,GND*
X148469000Y-59425000D03*
G04 #@! TD*
D16*
G04 #@! TO.N,VBUS*
G04 #@! TO.C,F1*
G36*
X145199504Y-68176204D02*
X145223773Y-68179804D01*
X145247571Y-68185765D01*
X145270671Y-68194030D01*
X145292849Y-68204520D01*
X145313893Y-68217133D01*
X145333598Y-68231747D01*
X145351777Y-68248223D01*
X145368253Y-68266402D01*
X145382867Y-68286107D01*
X145395480Y-68307151D01*
X145405970Y-68329329D01*
X145414235Y-68352429D01*
X145420196Y-68376227D01*
X145423796Y-68400496D01*
X145425000Y-68425000D01*
X145425000Y-70575000D01*
X145423796Y-70599504D01*
X145420196Y-70623773D01*
X145414235Y-70647571D01*
X145405970Y-70670671D01*
X145395480Y-70692849D01*
X145382867Y-70713893D01*
X145368253Y-70733598D01*
X145351777Y-70751777D01*
X145333598Y-70768253D01*
X145313893Y-70782867D01*
X145292849Y-70795480D01*
X145270671Y-70805970D01*
X145247571Y-70814235D01*
X145223773Y-70820196D01*
X145199504Y-70823796D01*
X145175000Y-70825000D01*
X144425000Y-70825000D01*
X144400496Y-70823796D01*
X144376227Y-70820196D01*
X144352429Y-70814235D01*
X144329329Y-70805970D01*
X144307151Y-70795480D01*
X144286107Y-70782867D01*
X144266402Y-70768253D01*
X144248223Y-70751777D01*
X144231747Y-70733598D01*
X144217133Y-70713893D01*
X144204520Y-70692849D01*
X144194030Y-70670671D01*
X144185765Y-70647571D01*
X144179804Y-70623773D01*
X144176204Y-70599504D01*
X144175000Y-70575000D01*
X144175000Y-68425000D01*
X144176204Y-68400496D01*
X144179804Y-68376227D01*
X144185765Y-68352429D01*
X144194030Y-68329329D01*
X144204520Y-68307151D01*
X144217133Y-68286107D01*
X144231747Y-68266402D01*
X144248223Y-68248223D01*
X144266402Y-68231747D01*
X144286107Y-68217133D01*
X144307151Y-68204520D01*
X144329329Y-68194030D01*
X144352429Y-68185765D01*
X144376227Y-68179804D01*
X144400496Y-68176204D01*
X144425000Y-68175000D01*
X145175000Y-68175000D01*
X145199504Y-68176204D01*
X145199504Y-68176204D01*
G37*
D17*
G04 #@! TD*
G04 #@! TO.P,F1,1*
G04 #@! TO.N,VBUS*
X144800000Y-69500000D03*
D16*
G04 #@! TO.N,Net-(F1-Pad2)*
G04 #@! TO.C,F1*
G36*
X142399504Y-68176204D02*
X142423773Y-68179804D01*
X142447571Y-68185765D01*
X142470671Y-68194030D01*
X142492849Y-68204520D01*
X142513893Y-68217133D01*
X142533598Y-68231747D01*
X142551777Y-68248223D01*
X142568253Y-68266402D01*
X142582867Y-68286107D01*
X142595480Y-68307151D01*
X142605970Y-68329329D01*
X142614235Y-68352429D01*
X142620196Y-68376227D01*
X142623796Y-68400496D01*
X142625000Y-68425000D01*
X142625000Y-70575000D01*
X142623796Y-70599504D01*
X142620196Y-70623773D01*
X142614235Y-70647571D01*
X142605970Y-70670671D01*
X142595480Y-70692849D01*
X142582867Y-70713893D01*
X142568253Y-70733598D01*
X142551777Y-70751777D01*
X142533598Y-70768253D01*
X142513893Y-70782867D01*
X142492849Y-70795480D01*
X142470671Y-70805970D01*
X142447571Y-70814235D01*
X142423773Y-70820196D01*
X142399504Y-70823796D01*
X142375000Y-70825000D01*
X141625000Y-70825000D01*
X141600496Y-70823796D01*
X141576227Y-70820196D01*
X141552429Y-70814235D01*
X141529329Y-70805970D01*
X141507151Y-70795480D01*
X141486107Y-70782867D01*
X141466402Y-70768253D01*
X141448223Y-70751777D01*
X141431747Y-70733598D01*
X141417133Y-70713893D01*
X141404520Y-70692849D01*
X141394030Y-70670671D01*
X141385765Y-70647571D01*
X141379804Y-70623773D01*
X141376204Y-70599504D01*
X141375000Y-70575000D01*
X141375000Y-68425000D01*
X141376204Y-68400496D01*
X141379804Y-68376227D01*
X141385765Y-68352429D01*
X141394030Y-68329329D01*
X141404520Y-68307151D01*
X141417133Y-68286107D01*
X141431747Y-68266402D01*
X141448223Y-68248223D01*
X141466402Y-68231747D01*
X141486107Y-68217133D01*
X141507151Y-68204520D01*
X141529329Y-68194030D01*
X141552429Y-68185765D01*
X141576227Y-68179804D01*
X141600496Y-68176204D01*
X141625000Y-68175000D01*
X142375000Y-68175000D01*
X142399504Y-68176204D01*
X142399504Y-68176204D01*
G37*
D17*
G04 #@! TD*
G04 #@! TO.P,F1,2*
G04 #@! TO.N,Net-(F1-Pad2)*
X142000000Y-69500000D03*
D18*
G04 #@! TO.P,U2,20*
G04 #@! TO.N,+3V3*
X151969000Y-65925000D03*
G04 #@! TO.P,U2,19*
G04 #@! TO.N,VBUS*
X151969000Y-65275000D03*
G04 #@! TO.P,U2,18*
G04 #@! TO.N,GND*
X151969000Y-64625000D03*
G04 #@! TO.P,U2,17*
G04 #@! TO.N,Net-(C9-Pad1)*
X151969000Y-63975000D03*
G04 #@! TO.P,U2,16*
G04 #@! TO.N,Net-(C8-Pad1)*
X151969000Y-63325000D03*
G04 #@! TO.P,U2,15*
G04 #@! TO.N,/USBD-*
X151969000Y-62675000D03*
G04 #@! TO.P,U2,14*
G04 #@! TO.N,/USBD+*
X151969000Y-62025000D03*
G04 #@! TO.P,U2,13*
G04 #@! TO.N,Net-(U2-Pad13)*
X151969000Y-61375000D03*
G04 #@! TO.P,U2,12*
G04 #@! TO.N,Net-(U2-Pad12)*
X151969000Y-60725000D03*
G04 #@! TO.P,U2,11*
G04 #@! TO.N,N/C*
X151969000Y-60075000D03*
G04 #@! TO.P,U2,10*
G04 #@! TO.N,Net-(D1-Pad1)*
X157869000Y-60075000D03*
G04 #@! TO.P,U2,9*
G04 #@! TO.N,Net-(D2-Pad1)*
X157869000Y-60725000D03*
G04 #@! TO.P,U2,8*
G04 #@! TO.N,/J_RESET*
X157869000Y-61375000D03*
G04 #@! TO.P,U2,7*
G04 #@! TO.N,/TMS*
X157869000Y-62025000D03*
G04 #@! TO.P,U2,6*
G04 #@! TO.N,/RESET*
X157869000Y-62675000D03*
G04 #@! TO.P,U2,5*
G04 #@! TO.N,/TCK*
X157869000Y-63325000D03*
G04 #@! TO.P,U2,4*
G04 #@! TO.N,/TDO*
X157869000Y-63975000D03*
G04 #@! TO.P,U2,3*
G04 #@! TO.N,/TDI*
X157869000Y-64625000D03*
G04 #@! TO.P,U2,2*
G04 #@! TO.N,/TCK*
X157869000Y-65275000D03*
G04 #@! TO.P,U2,1*
G04 #@! TO.N,VBUS*
X157869000Y-65925000D03*
G04 #@! TD*
D16*
G04 #@! TO.N,VBUS*
G04 #@! TO.C,C1*
G36*
X157277691Y-70451053D02*
X157298926Y-70454203D01*
X157319750Y-70459419D01*
X157339962Y-70466651D01*
X157359368Y-70475830D01*
X157377781Y-70486866D01*
X157395024Y-70499654D01*
X157410930Y-70514070D01*
X157425346Y-70529976D01*
X157438134Y-70547219D01*
X157449170Y-70565632D01*
X157458349Y-70585038D01*
X157465581Y-70605250D01*
X157470797Y-70626074D01*
X157473947Y-70647309D01*
X157475000Y-70668750D01*
X157475000Y-71106250D01*
X157473947Y-71127691D01*
X157470797Y-71148926D01*
X157465581Y-71169750D01*
X157458349Y-71189962D01*
X157449170Y-71209368D01*
X157438134Y-71227781D01*
X157425346Y-71245024D01*
X157410930Y-71260930D01*
X157395024Y-71275346D01*
X157377781Y-71288134D01*
X157359368Y-71299170D01*
X157339962Y-71308349D01*
X157319750Y-71315581D01*
X157298926Y-71320797D01*
X157277691Y-71323947D01*
X157256250Y-71325000D01*
X156743750Y-71325000D01*
X156722309Y-71323947D01*
X156701074Y-71320797D01*
X156680250Y-71315581D01*
X156660038Y-71308349D01*
X156640632Y-71299170D01*
X156622219Y-71288134D01*
X156604976Y-71275346D01*
X156589070Y-71260930D01*
X156574654Y-71245024D01*
X156561866Y-71227781D01*
X156550830Y-71209368D01*
X156541651Y-71189962D01*
X156534419Y-71169750D01*
X156529203Y-71148926D01*
X156526053Y-71127691D01*
X156525000Y-71106250D01*
X156525000Y-70668750D01*
X156526053Y-70647309D01*
X156529203Y-70626074D01*
X156534419Y-70605250D01*
X156541651Y-70585038D01*
X156550830Y-70565632D01*
X156561866Y-70547219D01*
X156574654Y-70529976D01*
X156589070Y-70514070D01*
X156604976Y-70499654D01*
X156622219Y-70486866D01*
X156640632Y-70475830D01*
X156660038Y-70466651D01*
X156680250Y-70459419D01*
X156701074Y-70454203D01*
X156722309Y-70451053D01*
X156743750Y-70450000D01*
X157256250Y-70450000D01*
X157277691Y-70451053D01*
X157277691Y-70451053D01*
G37*
D19*
G04 #@! TD*
G04 #@! TO.P,C1,1*
G04 #@! TO.N,VBUS*
X157000000Y-70887500D03*
D16*
G04 #@! TO.N,GND*
G04 #@! TO.C,C1*
G36*
X157277691Y-68876053D02*
X157298926Y-68879203D01*
X157319750Y-68884419D01*
X157339962Y-68891651D01*
X157359368Y-68900830D01*
X157377781Y-68911866D01*
X157395024Y-68924654D01*
X157410930Y-68939070D01*
X157425346Y-68954976D01*
X157438134Y-68972219D01*
X157449170Y-68990632D01*
X157458349Y-69010038D01*
X157465581Y-69030250D01*
X157470797Y-69051074D01*
X157473947Y-69072309D01*
X157475000Y-69093750D01*
X157475000Y-69531250D01*
X157473947Y-69552691D01*
X157470797Y-69573926D01*
X157465581Y-69594750D01*
X157458349Y-69614962D01*
X157449170Y-69634368D01*
X157438134Y-69652781D01*
X157425346Y-69670024D01*
X157410930Y-69685930D01*
X157395024Y-69700346D01*
X157377781Y-69713134D01*
X157359368Y-69724170D01*
X157339962Y-69733349D01*
X157319750Y-69740581D01*
X157298926Y-69745797D01*
X157277691Y-69748947D01*
X157256250Y-69750000D01*
X156743750Y-69750000D01*
X156722309Y-69748947D01*
X156701074Y-69745797D01*
X156680250Y-69740581D01*
X156660038Y-69733349D01*
X156640632Y-69724170D01*
X156622219Y-69713134D01*
X156604976Y-69700346D01*
X156589070Y-69685930D01*
X156574654Y-69670024D01*
X156561866Y-69652781D01*
X156550830Y-69634368D01*
X156541651Y-69614962D01*
X156534419Y-69594750D01*
X156529203Y-69573926D01*
X156526053Y-69552691D01*
X156525000Y-69531250D01*
X156525000Y-69093750D01*
X156526053Y-69072309D01*
X156529203Y-69051074D01*
X156534419Y-69030250D01*
X156541651Y-69010038D01*
X156550830Y-68990632D01*
X156561866Y-68972219D01*
X156574654Y-68954976D01*
X156589070Y-68939070D01*
X156604976Y-68924654D01*
X156622219Y-68911866D01*
X156640632Y-68900830D01*
X156660038Y-68891651D01*
X156680250Y-68884419D01*
X156701074Y-68879203D01*
X156722309Y-68876053D01*
X156743750Y-68875000D01*
X157256250Y-68875000D01*
X157277691Y-68876053D01*
X157277691Y-68876053D01*
G37*
D19*
G04 #@! TD*
G04 #@! TO.P,C1,2*
G04 #@! TO.N,GND*
X157000000Y-69312500D03*
D16*
G04 #@! TO.N,GND*
G04 #@! TO.C,C2*
G36*
X151277691Y-68776053D02*
X151298926Y-68779203D01*
X151319750Y-68784419D01*
X151339962Y-68791651D01*
X151359368Y-68800830D01*
X151377781Y-68811866D01*
X151395024Y-68824654D01*
X151410930Y-68839070D01*
X151425346Y-68854976D01*
X151438134Y-68872219D01*
X151449170Y-68890632D01*
X151458349Y-68910038D01*
X151465581Y-68930250D01*
X151470797Y-68951074D01*
X151473947Y-68972309D01*
X151475000Y-68993750D01*
X151475000Y-69431250D01*
X151473947Y-69452691D01*
X151470797Y-69473926D01*
X151465581Y-69494750D01*
X151458349Y-69514962D01*
X151449170Y-69534368D01*
X151438134Y-69552781D01*
X151425346Y-69570024D01*
X151410930Y-69585930D01*
X151395024Y-69600346D01*
X151377781Y-69613134D01*
X151359368Y-69624170D01*
X151339962Y-69633349D01*
X151319750Y-69640581D01*
X151298926Y-69645797D01*
X151277691Y-69648947D01*
X151256250Y-69650000D01*
X150743750Y-69650000D01*
X150722309Y-69648947D01*
X150701074Y-69645797D01*
X150680250Y-69640581D01*
X150660038Y-69633349D01*
X150640632Y-69624170D01*
X150622219Y-69613134D01*
X150604976Y-69600346D01*
X150589070Y-69585930D01*
X150574654Y-69570024D01*
X150561866Y-69552781D01*
X150550830Y-69534368D01*
X150541651Y-69514962D01*
X150534419Y-69494750D01*
X150529203Y-69473926D01*
X150526053Y-69452691D01*
X150525000Y-69431250D01*
X150525000Y-68993750D01*
X150526053Y-68972309D01*
X150529203Y-68951074D01*
X150534419Y-68930250D01*
X150541651Y-68910038D01*
X150550830Y-68890632D01*
X150561866Y-68872219D01*
X150574654Y-68854976D01*
X150589070Y-68839070D01*
X150604976Y-68824654D01*
X150622219Y-68811866D01*
X150640632Y-68800830D01*
X150660038Y-68791651D01*
X150680250Y-68784419D01*
X150701074Y-68779203D01*
X150722309Y-68776053D01*
X150743750Y-68775000D01*
X151256250Y-68775000D01*
X151277691Y-68776053D01*
X151277691Y-68776053D01*
G37*
D19*
G04 #@! TD*
G04 #@! TO.P,C2,2*
G04 #@! TO.N,GND*
X151000000Y-69212500D03*
D16*
G04 #@! TO.N,+3V3*
G04 #@! TO.C,C2*
G36*
X151277691Y-70351053D02*
X151298926Y-70354203D01*
X151319750Y-70359419D01*
X151339962Y-70366651D01*
X151359368Y-70375830D01*
X151377781Y-70386866D01*
X151395024Y-70399654D01*
X151410930Y-70414070D01*
X151425346Y-70429976D01*
X151438134Y-70447219D01*
X151449170Y-70465632D01*
X151458349Y-70485038D01*
X151465581Y-70505250D01*
X151470797Y-70526074D01*
X151473947Y-70547309D01*
X151475000Y-70568750D01*
X151475000Y-71006250D01*
X151473947Y-71027691D01*
X151470797Y-71048926D01*
X151465581Y-71069750D01*
X151458349Y-71089962D01*
X151449170Y-71109368D01*
X151438134Y-71127781D01*
X151425346Y-71145024D01*
X151410930Y-71160930D01*
X151395024Y-71175346D01*
X151377781Y-71188134D01*
X151359368Y-71199170D01*
X151339962Y-71208349D01*
X151319750Y-71215581D01*
X151298926Y-71220797D01*
X151277691Y-71223947D01*
X151256250Y-71225000D01*
X150743750Y-71225000D01*
X150722309Y-71223947D01*
X150701074Y-71220797D01*
X150680250Y-71215581D01*
X150660038Y-71208349D01*
X150640632Y-71199170D01*
X150622219Y-71188134D01*
X150604976Y-71175346D01*
X150589070Y-71160930D01*
X150574654Y-71145024D01*
X150561866Y-71127781D01*
X150550830Y-71109368D01*
X150541651Y-71089962D01*
X150534419Y-71069750D01*
X150529203Y-71048926D01*
X150526053Y-71027691D01*
X150525000Y-71006250D01*
X150525000Y-70568750D01*
X150526053Y-70547309D01*
X150529203Y-70526074D01*
X150534419Y-70505250D01*
X150541651Y-70485038D01*
X150550830Y-70465632D01*
X150561866Y-70447219D01*
X150574654Y-70429976D01*
X150589070Y-70414070D01*
X150604976Y-70399654D01*
X150622219Y-70386866D01*
X150640632Y-70375830D01*
X150660038Y-70366651D01*
X150680250Y-70359419D01*
X150701074Y-70354203D01*
X150722309Y-70351053D01*
X150743750Y-70350000D01*
X151256250Y-70350000D01*
X151277691Y-70351053D01*
X151277691Y-70351053D01*
G37*
D19*
G04 #@! TD*
G04 #@! TO.P,C2,1*
G04 #@! TO.N,+3V3*
X151000000Y-70787500D03*
D16*
G04 #@! TO.N,+3V3*
G04 #@! TO.C,C3*
G36*
X147277691Y-65951053D02*
X147298926Y-65954203D01*
X147319750Y-65959419D01*
X147339962Y-65966651D01*
X147359368Y-65975830D01*
X147377781Y-65986866D01*
X147395024Y-65999654D01*
X147410930Y-66014070D01*
X147425346Y-66029976D01*
X147438134Y-66047219D01*
X147449170Y-66065632D01*
X147458349Y-66085038D01*
X147465581Y-66105250D01*
X147470797Y-66126074D01*
X147473947Y-66147309D01*
X147475000Y-66168750D01*
X147475000Y-66606250D01*
X147473947Y-66627691D01*
X147470797Y-66648926D01*
X147465581Y-66669750D01*
X147458349Y-66689962D01*
X147449170Y-66709368D01*
X147438134Y-66727781D01*
X147425346Y-66745024D01*
X147410930Y-66760930D01*
X147395024Y-66775346D01*
X147377781Y-66788134D01*
X147359368Y-66799170D01*
X147339962Y-66808349D01*
X147319750Y-66815581D01*
X147298926Y-66820797D01*
X147277691Y-66823947D01*
X147256250Y-66825000D01*
X146743750Y-66825000D01*
X146722309Y-66823947D01*
X146701074Y-66820797D01*
X146680250Y-66815581D01*
X146660038Y-66808349D01*
X146640632Y-66799170D01*
X146622219Y-66788134D01*
X146604976Y-66775346D01*
X146589070Y-66760930D01*
X146574654Y-66745024D01*
X146561866Y-66727781D01*
X146550830Y-66709368D01*
X146541651Y-66689962D01*
X146534419Y-66669750D01*
X146529203Y-66648926D01*
X146526053Y-66627691D01*
X146525000Y-66606250D01*
X146525000Y-66168750D01*
X146526053Y-66147309D01*
X146529203Y-66126074D01*
X146534419Y-66105250D01*
X146541651Y-66085038D01*
X146550830Y-66065632D01*
X146561866Y-66047219D01*
X146574654Y-66029976D01*
X146589070Y-66014070D01*
X146604976Y-65999654D01*
X146622219Y-65986866D01*
X146640632Y-65975830D01*
X146660038Y-65966651D01*
X146680250Y-65959419D01*
X146701074Y-65954203D01*
X146722309Y-65951053D01*
X146743750Y-65950000D01*
X147256250Y-65950000D01*
X147277691Y-65951053D01*
X147277691Y-65951053D01*
G37*
D19*
G04 #@! TD*
G04 #@! TO.P,C3,1*
G04 #@! TO.N,+3V3*
X147000000Y-66387500D03*
D16*
G04 #@! TO.N,GND*
G04 #@! TO.C,C3*
G36*
X147277691Y-64376053D02*
X147298926Y-64379203D01*
X147319750Y-64384419D01*
X147339962Y-64391651D01*
X147359368Y-64400830D01*
X147377781Y-64411866D01*
X147395024Y-64424654D01*
X147410930Y-64439070D01*
X147425346Y-64454976D01*
X147438134Y-64472219D01*
X147449170Y-64490632D01*
X147458349Y-64510038D01*
X147465581Y-64530250D01*
X147470797Y-64551074D01*
X147473947Y-64572309D01*
X147475000Y-64593750D01*
X147475000Y-65031250D01*
X147473947Y-65052691D01*
X147470797Y-65073926D01*
X147465581Y-65094750D01*
X147458349Y-65114962D01*
X147449170Y-65134368D01*
X147438134Y-65152781D01*
X147425346Y-65170024D01*
X147410930Y-65185930D01*
X147395024Y-65200346D01*
X147377781Y-65213134D01*
X147359368Y-65224170D01*
X147339962Y-65233349D01*
X147319750Y-65240581D01*
X147298926Y-65245797D01*
X147277691Y-65248947D01*
X147256250Y-65250000D01*
X146743750Y-65250000D01*
X146722309Y-65248947D01*
X146701074Y-65245797D01*
X146680250Y-65240581D01*
X146660038Y-65233349D01*
X146640632Y-65224170D01*
X146622219Y-65213134D01*
X146604976Y-65200346D01*
X146589070Y-65185930D01*
X146574654Y-65170024D01*
X146561866Y-65152781D01*
X146550830Y-65134368D01*
X146541651Y-65114962D01*
X146534419Y-65094750D01*
X146529203Y-65073926D01*
X146526053Y-65052691D01*
X146525000Y-65031250D01*
X146525000Y-64593750D01*
X146526053Y-64572309D01*
X146529203Y-64551074D01*
X146534419Y-64530250D01*
X146541651Y-64510038D01*
X146550830Y-64490632D01*
X146561866Y-64472219D01*
X146574654Y-64454976D01*
X146589070Y-64439070D01*
X146604976Y-64424654D01*
X146622219Y-64411866D01*
X146640632Y-64400830D01*
X146660038Y-64391651D01*
X146680250Y-64384419D01*
X146701074Y-64379203D01*
X146722309Y-64376053D01*
X146743750Y-64375000D01*
X147256250Y-64375000D01*
X147277691Y-64376053D01*
X147277691Y-64376053D01*
G37*
D19*
G04 #@! TD*
G04 #@! TO.P,C3,2*
G04 #@! TO.N,GND*
X147000000Y-64812500D03*
D16*
G04 #@! TO.N,GND*
G04 #@! TO.C,C4*
G36*
X148877691Y-64363553D02*
X148898926Y-64366703D01*
X148919750Y-64371919D01*
X148939962Y-64379151D01*
X148959368Y-64388330D01*
X148977781Y-64399366D01*
X148995024Y-64412154D01*
X149010930Y-64426570D01*
X149025346Y-64442476D01*
X149038134Y-64459719D01*
X149049170Y-64478132D01*
X149058349Y-64497538D01*
X149065581Y-64517750D01*
X149070797Y-64538574D01*
X149073947Y-64559809D01*
X149075000Y-64581250D01*
X149075000Y-65018750D01*
X149073947Y-65040191D01*
X149070797Y-65061426D01*
X149065581Y-65082250D01*
X149058349Y-65102462D01*
X149049170Y-65121868D01*
X149038134Y-65140281D01*
X149025346Y-65157524D01*
X149010930Y-65173430D01*
X148995024Y-65187846D01*
X148977781Y-65200634D01*
X148959368Y-65211670D01*
X148939962Y-65220849D01*
X148919750Y-65228081D01*
X148898926Y-65233297D01*
X148877691Y-65236447D01*
X148856250Y-65237500D01*
X148343750Y-65237500D01*
X148322309Y-65236447D01*
X148301074Y-65233297D01*
X148280250Y-65228081D01*
X148260038Y-65220849D01*
X148240632Y-65211670D01*
X148222219Y-65200634D01*
X148204976Y-65187846D01*
X148189070Y-65173430D01*
X148174654Y-65157524D01*
X148161866Y-65140281D01*
X148150830Y-65121868D01*
X148141651Y-65102462D01*
X148134419Y-65082250D01*
X148129203Y-65061426D01*
X148126053Y-65040191D01*
X148125000Y-65018750D01*
X148125000Y-64581250D01*
X148126053Y-64559809D01*
X148129203Y-64538574D01*
X148134419Y-64517750D01*
X148141651Y-64497538D01*
X148150830Y-64478132D01*
X148161866Y-64459719D01*
X148174654Y-64442476D01*
X148189070Y-64426570D01*
X148204976Y-64412154D01*
X148222219Y-64399366D01*
X148240632Y-64388330D01*
X148260038Y-64379151D01*
X148280250Y-64371919D01*
X148301074Y-64366703D01*
X148322309Y-64363553D01*
X148343750Y-64362500D01*
X148856250Y-64362500D01*
X148877691Y-64363553D01*
X148877691Y-64363553D01*
G37*
D19*
G04 #@! TD*
G04 #@! TO.P,C4,2*
G04 #@! TO.N,GND*
X148600000Y-64800000D03*
D16*
G04 #@! TO.N,VBUS*
G04 #@! TO.C,C4*
G36*
X148877691Y-65938553D02*
X148898926Y-65941703D01*
X148919750Y-65946919D01*
X148939962Y-65954151D01*
X148959368Y-65963330D01*
X148977781Y-65974366D01*
X148995024Y-65987154D01*
X149010930Y-66001570D01*
X149025346Y-66017476D01*
X149038134Y-66034719D01*
X149049170Y-66053132D01*
X149058349Y-66072538D01*
X149065581Y-66092750D01*
X149070797Y-66113574D01*
X149073947Y-66134809D01*
X149075000Y-66156250D01*
X149075000Y-66593750D01*
X149073947Y-66615191D01*
X149070797Y-66636426D01*
X149065581Y-66657250D01*
X149058349Y-66677462D01*
X149049170Y-66696868D01*
X149038134Y-66715281D01*
X149025346Y-66732524D01*
X149010930Y-66748430D01*
X148995024Y-66762846D01*
X148977781Y-66775634D01*
X148959368Y-66786670D01*
X148939962Y-66795849D01*
X148919750Y-66803081D01*
X148898926Y-66808297D01*
X148877691Y-66811447D01*
X148856250Y-66812500D01*
X148343750Y-66812500D01*
X148322309Y-66811447D01*
X148301074Y-66808297D01*
X148280250Y-66803081D01*
X148260038Y-66795849D01*
X148240632Y-66786670D01*
X148222219Y-66775634D01*
X148204976Y-66762846D01*
X148189070Y-66748430D01*
X148174654Y-66732524D01*
X148161866Y-66715281D01*
X148150830Y-66696868D01*
X148141651Y-66677462D01*
X148134419Y-66657250D01*
X148129203Y-66636426D01*
X148126053Y-66615191D01*
X148125000Y-66593750D01*
X148125000Y-66156250D01*
X148126053Y-66134809D01*
X148129203Y-66113574D01*
X148134419Y-66092750D01*
X148141651Y-66072538D01*
X148150830Y-66053132D01*
X148161866Y-66034719D01*
X148174654Y-66017476D01*
X148189070Y-66001570D01*
X148204976Y-65987154D01*
X148222219Y-65974366D01*
X148240632Y-65963330D01*
X148260038Y-65954151D01*
X148280250Y-65946919D01*
X148301074Y-65941703D01*
X148322309Y-65938553D01*
X148343750Y-65937500D01*
X148856250Y-65937500D01*
X148877691Y-65938553D01*
X148877691Y-65938553D01*
G37*
D19*
G04 #@! TD*
G04 #@! TO.P,C4,1*
G04 #@! TO.N,VBUS*
X148600000Y-66375000D03*
D16*
G04 #@! TO.N,/TVCC*
G04 #@! TO.C,C5*
G36*
X161615191Y-53726053D02*
X161636426Y-53729203D01*
X161657250Y-53734419D01*
X161677462Y-53741651D01*
X161696868Y-53750830D01*
X161715281Y-53761866D01*
X161732524Y-53774654D01*
X161748430Y-53789070D01*
X161762846Y-53804976D01*
X161775634Y-53822219D01*
X161786670Y-53840632D01*
X161795849Y-53860038D01*
X161803081Y-53880250D01*
X161808297Y-53901074D01*
X161811447Y-53922309D01*
X161812500Y-53943750D01*
X161812500Y-54456250D01*
X161811447Y-54477691D01*
X161808297Y-54498926D01*
X161803081Y-54519750D01*
X161795849Y-54539962D01*
X161786670Y-54559368D01*
X161775634Y-54577781D01*
X161762846Y-54595024D01*
X161748430Y-54610930D01*
X161732524Y-54625346D01*
X161715281Y-54638134D01*
X161696868Y-54649170D01*
X161677462Y-54658349D01*
X161657250Y-54665581D01*
X161636426Y-54670797D01*
X161615191Y-54673947D01*
X161593750Y-54675000D01*
X161156250Y-54675000D01*
X161134809Y-54673947D01*
X161113574Y-54670797D01*
X161092750Y-54665581D01*
X161072538Y-54658349D01*
X161053132Y-54649170D01*
X161034719Y-54638134D01*
X161017476Y-54625346D01*
X161001570Y-54610930D01*
X160987154Y-54595024D01*
X160974366Y-54577781D01*
X160963330Y-54559368D01*
X160954151Y-54539962D01*
X160946919Y-54519750D01*
X160941703Y-54498926D01*
X160938553Y-54477691D01*
X160937500Y-54456250D01*
X160937500Y-53943750D01*
X160938553Y-53922309D01*
X160941703Y-53901074D01*
X160946919Y-53880250D01*
X160954151Y-53860038D01*
X160963330Y-53840632D01*
X160974366Y-53822219D01*
X160987154Y-53804976D01*
X161001570Y-53789070D01*
X161017476Y-53774654D01*
X161034719Y-53761866D01*
X161053132Y-53750830D01*
X161072538Y-53741651D01*
X161092750Y-53734419D01*
X161113574Y-53729203D01*
X161134809Y-53726053D01*
X161156250Y-53725000D01*
X161593750Y-53725000D01*
X161615191Y-53726053D01*
X161615191Y-53726053D01*
G37*
D19*
G04 #@! TD*
G04 #@! TO.P,C5,1*
G04 #@! TO.N,/TVCC*
X161375000Y-54200000D03*
D16*
G04 #@! TO.N,GND*
G04 #@! TO.C,C5*
G36*
X160040191Y-53726053D02*
X160061426Y-53729203D01*
X160082250Y-53734419D01*
X160102462Y-53741651D01*
X160121868Y-53750830D01*
X160140281Y-53761866D01*
X160157524Y-53774654D01*
X160173430Y-53789070D01*
X160187846Y-53804976D01*
X160200634Y-53822219D01*
X160211670Y-53840632D01*
X160220849Y-53860038D01*
X160228081Y-53880250D01*
X160233297Y-53901074D01*
X160236447Y-53922309D01*
X160237500Y-53943750D01*
X160237500Y-54456250D01*
X160236447Y-54477691D01*
X160233297Y-54498926D01*
X160228081Y-54519750D01*
X160220849Y-54539962D01*
X160211670Y-54559368D01*
X160200634Y-54577781D01*
X160187846Y-54595024D01*
X160173430Y-54610930D01*
X160157524Y-54625346D01*
X160140281Y-54638134D01*
X160121868Y-54649170D01*
X160102462Y-54658349D01*
X160082250Y-54665581D01*
X160061426Y-54670797D01*
X160040191Y-54673947D01*
X160018750Y-54675000D01*
X159581250Y-54675000D01*
X159559809Y-54673947D01*
X159538574Y-54670797D01*
X159517750Y-54665581D01*
X159497538Y-54658349D01*
X159478132Y-54649170D01*
X159459719Y-54638134D01*
X159442476Y-54625346D01*
X159426570Y-54610930D01*
X159412154Y-54595024D01*
X159399366Y-54577781D01*
X159388330Y-54559368D01*
X159379151Y-54539962D01*
X159371919Y-54519750D01*
X159366703Y-54498926D01*
X159363553Y-54477691D01*
X159362500Y-54456250D01*
X159362500Y-53943750D01*
X159363553Y-53922309D01*
X159366703Y-53901074D01*
X159371919Y-53880250D01*
X159379151Y-53860038D01*
X159388330Y-53840632D01*
X159399366Y-53822219D01*
X159412154Y-53804976D01*
X159426570Y-53789070D01*
X159442476Y-53774654D01*
X159459719Y-53761866D01*
X159478132Y-53750830D01*
X159497538Y-53741651D01*
X159517750Y-53734419D01*
X159538574Y-53729203D01*
X159559809Y-53726053D01*
X159581250Y-53725000D01*
X160018750Y-53725000D01*
X160040191Y-53726053D01*
X160040191Y-53726053D01*
G37*
D19*
G04 #@! TD*
G04 #@! TO.P,C5,2*
G04 #@! TO.N,GND*
X159800000Y-54200000D03*
D16*
G04 #@! TO.N,/TVCC*
G04 #@! TO.C,C6*
G36*
X161627691Y-55326053D02*
X161648926Y-55329203D01*
X161669750Y-55334419D01*
X161689962Y-55341651D01*
X161709368Y-55350830D01*
X161727781Y-55361866D01*
X161745024Y-55374654D01*
X161760930Y-55389070D01*
X161775346Y-55404976D01*
X161788134Y-55422219D01*
X161799170Y-55440632D01*
X161808349Y-55460038D01*
X161815581Y-55480250D01*
X161820797Y-55501074D01*
X161823947Y-55522309D01*
X161825000Y-55543750D01*
X161825000Y-56056250D01*
X161823947Y-56077691D01*
X161820797Y-56098926D01*
X161815581Y-56119750D01*
X161808349Y-56139962D01*
X161799170Y-56159368D01*
X161788134Y-56177781D01*
X161775346Y-56195024D01*
X161760930Y-56210930D01*
X161745024Y-56225346D01*
X161727781Y-56238134D01*
X161709368Y-56249170D01*
X161689962Y-56258349D01*
X161669750Y-56265581D01*
X161648926Y-56270797D01*
X161627691Y-56273947D01*
X161606250Y-56275000D01*
X161168750Y-56275000D01*
X161147309Y-56273947D01*
X161126074Y-56270797D01*
X161105250Y-56265581D01*
X161085038Y-56258349D01*
X161065632Y-56249170D01*
X161047219Y-56238134D01*
X161029976Y-56225346D01*
X161014070Y-56210930D01*
X160999654Y-56195024D01*
X160986866Y-56177781D01*
X160975830Y-56159368D01*
X160966651Y-56139962D01*
X160959419Y-56119750D01*
X160954203Y-56098926D01*
X160951053Y-56077691D01*
X160950000Y-56056250D01*
X160950000Y-55543750D01*
X160951053Y-55522309D01*
X160954203Y-55501074D01*
X160959419Y-55480250D01*
X160966651Y-55460038D01*
X160975830Y-55440632D01*
X160986866Y-55422219D01*
X160999654Y-55404976D01*
X161014070Y-55389070D01*
X161029976Y-55374654D01*
X161047219Y-55361866D01*
X161065632Y-55350830D01*
X161085038Y-55341651D01*
X161105250Y-55334419D01*
X161126074Y-55329203D01*
X161147309Y-55326053D01*
X161168750Y-55325000D01*
X161606250Y-55325000D01*
X161627691Y-55326053D01*
X161627691Y-55326053D01*
G37*
D19*
G04 #@! TD*
G04 #@! TO.P,C6,1*
G04 #@! TO.N,/TVCC*
X161387500Y-55800000D03*
D16*
G04 #@! TO.N,GND*
G04 #@! TO.C,C6*
G36*
X160052691Y-55326053D02*
X160073926Y-55329203D01*
X160094750Y-55334419D01*
X160114962Y-55341651D01*
X160134368Y-55350830D01*
X160152781Y-55361866D01*
X160170024Y-55374654D01*
X160185930Y-55389070D01*
X160200346Y-55404976D01*
X160213134Y-55422219D01*
X160224170Y-55440632D01*
X160233349Y-55460038D01*
X160240581Y-55480250D01*
X160245797Y-55501074D01*
X160248947Y-55522309D01*
X160250000Y-55543750D01*
X160250000Y-56056250D01*
X160248947Y-56077691D01*
X160245797Y-56098926D01*
X160240581Y-56119750D01*
X160233349Y-56139962D01*
X160224170Y-56159368D01*
X160213134Y-56177781D01*
X160200346Y-56195024D01*
X160185930Y-56210930D01*
X160170024Y-56225346D01*
X160152781Y-56238134D01*
X160134368Y-56249170D01*
X160114962Y-56258349D01*
X160094750Y-56265581D01*
X160073926Y-56270797D01*
X160052691Y-56273947D01*
X160031250Y-56275000D01*
X159593750Y-56275000D01*
X159572309Y-56273947D01*
X159551074Y-56270797D01*
X159530250Y-56265581D01*
X159510038Y-56258349D01*
X159490632Y-56249170D01*
X159472219Y-56238134D01*
X159454976Y-56225346D01*
X159439070Y-56210930D01*
X159424654Y-56195024D01*
X159411866Y-56177781D01*
X159400830Y-56159368D01*
X159391651Y-56139962D01*
X159384419Y-56119750D01*
X159379203Y-56098926D01*
X159376053Y-56077691D01*
X159375000Y-56056250D01*
X159375000Y-55543750D01*
X159376053Y-55522309D01*
X159379203Y-55501074D01*
X159384419Y-55480250D01*
X159391651Y-55460038D01*
X159400830Y-55440632D01*
X159411866Y-55422219D01*
X159424654Y-55404976D01*
X159439070Y-55389070D01*
X159454976Y-55374654D01*
X159472219Y-55361866D01*
X159490632Y-55350830D01*
X159510038Y-55341651D01*
X159530250Y-55334419D01*
X159551074Y-55329203D01*
X159572309Y-55326053D01*
X159593750Y-55325000D01*
X160031250Y-55325000D01*
X160052691Y-55326053D01*
X160052691Y-55326053D01*
G37*
D19*
G04 #@! TD*
G04 #@! TO.P,C6,2*
G04 #@! TO.N,GND*
X159812500Y-55800000D03*
D16*
G04 #@! TO.N,/RESET*
G04 #@! TO.C,C7*
G36*
X157527691Y-55826053D02*
X157548926Y-55829203D01*
X157569750Y-55834419D01*
X157589962Y-55841651D01*
X157609368Y-55850830D01*
X157627781Y-55861866D01*
X157645024Y-55874654D01*
X157660930Y-55889070D01*
X157675346Y-55904976D01*
X157688134Y-55922219D01*
X157699170Y-55940632D01*
X157708349Y-55960038D01*
X157715581Y-55980250D01*
X157720797Y-56001074D01*
X157723947Y-56022309D01*
X157725000Y-56043750D01*
X157725000Y-56556250D01*
X157723947Y-56577691D01*
X157720797Y-56598926D01*
X157715581Y-56619750D01*
X157708349Y-56639962D01*
X157699170Y-56659368D01*
X157688134Y-56677781D01*
X157675346Y-56695024D01*
X157660930Y-56710930D01*
X157645024Y-56725346D01*
X157627781Y-56738134D01*
X157609368Y-56749170D01*
X157589962Y-56758349D01*
X157569750Y-56765581D01*
X157548926Y-56770797D01*
X157527691Y-56773947D01*
X157506250Y-56775000D01*
X157068750Y-56775000D01*
X157047309Y-56773947D01*
X157026074Y-56770797D01*
X157005250Y-56765581D01*
X156985038Y-56758349D01*
X156965632Y-56749170D01*
X156947219Y-56738134D01*
X156929976Y-56725346D01*
X156914070Y-56710930D01*
X156899654Y-56695024D01*
X156886866Y-56677781D01*
X156875830Y-56659368D01*
X156866651Y-56639962D01*
X156859419Y-56619750D01*
X156854203Y-56598926D01*
X156851053Y-56577691D01*
X156850000Y-56556250D01*
X156850000Y-56043750D01*
X156851053Y-56022309D01*
X156854203Y-56001074D01*
X156859419Y-55980250D01*
X156866651Y-55960038D01*
X156875830Y-55940632D01*
X156886866Y-55922219D01*
X156899654Y-55904976D01*
X156914070Y-55889070D01*
X156929976Y-55874654D01*
X156947219Y-55861866D01*
X156965632Y-55850830D01*
X156985038Y-55841651D01*
X157005250Y-55834419D01*
X157026074Y-55829203D01*
X157047309Y-55826053D01*
X157068750Y-55825000D01*
X157506250Y-55825000D01*
X157527691Y-55826053D01*
X157527691Y-55826053D01*
G37*
D19*
G04 #@! TD*
G04 #@! TO.P,C7,2*
G04 #@! TO.N,/RESET*
X157287500Y-56300000D03*
D16*
G04 #@! TO.N,VBUS*
G04 #@! TO.C,C7*
G36*
X155952691Y-55826053D02*
X155973926Y-55829203D01*
X155994750Y-55834419D01*
X156014962Y-55841651D01*
X156034368Y-55850830D01*
X156052781Y-55861866D01*
X156070024Y-55874654D01*
X156085930Y-55889070D01*
X156100346Y-55904976D01*
X156113134Y-55922219D01*
X156124170Y-55940632D01*
X156133349Y-55960038D01*
X156140581Y-55980250D01*
X156145797Y-56001074D01*
X156148947Y-56022309D01*
X156150000Y-56043750D01*
X156150000Y-56556250D01*
X156148947Y-56577691D01*
X156145797Y-56598926D01*
X156140581Y-56619750D01*
X156133349Y-56639962D01*
X156124170Y-56659368D01*
X156113134Y-56677781D01*
X156100346Y-56695024D01*
X156085930Y-56710930D01*
X156070024Y-56725346D01*
X156052781Y-56738134D01*
X156034368Y-56749170D01*
X156014962Y-56758349D01*
X155994750Y-56765581D01*
X155973926Y-56770797D01*
X155952691Y-56773947D01*
X155931250Y-56775000D01*
X155493750Y-56775000D01*
X155472309Y-56773947D01*
X155451074Y-56770797D01*
X155430250Y-56765581D01*
X155410038Y-56758349D01*
X155390632Y-56749170D01*
X155372219Y-56738134D01*
X155354976Y-56725346D01*
X155339070Y-56710930D01*
X155324654Y-56695024D01*
X155311866Y-56677781D01*
X155300830Y-56659368D01*
X155291651Y-56639962D01*
X155284419Y-56619750D01*
X155279203Y-56598926D01*
X155276053Y-56577691D01*
X155275000Y-56556250D01*
X155275000Y-56043750D01*
X155276053Y-56022309D01*
X155279203Y-56001074D01*
X155284419Y-55980250D01*
X155291651Y-55960038D01*
X155300830Y-55940632D01*
X155311866Y-55922219D01*
X155324654Y-55904976D01*
X155339070Y-55889070D01*
X155354976Y-55874654D01*
X155372219Y-55861866D01*
X155390632Y-55850830D01*
X155410038Y-55841651D01*
X155430250Y-55834419D01*
X155451074Y-55829203D01*
X155472309Y-55826053D01*
X155493750Y-55825000D01*
X155931250Y-55825000D01*
X155952691Y-55826053D01*
X155952691Y-55826053D01*
G37*
D19*
G04 #@! TD*
G04 #@! TO.P,C7,1*
G04 #@! TO.N,VBUS*
X155712500Y-56300000D03*
D16*
G04 #@! TO.N,Net-(D1-Pad2)*
G04 #@! TO.C,D1*
G36*
X136836642Y-54426174D02*
X136860303Y-54429684D01*
X136883507Y-54435496D01*
X136906029Y-54443554D01*
X136927653Y-54453782D01*
X136948170Y-54466079D01*
X136967383Y-54480329D01*
X136985107Y-54496393D01*
X137001171Y-54514117D01*
X137015421Y-54533330D01*
X137027718Y-54553847D01*
X137037946Y-54575471D01*
X137046004Y-54597993D01*
X137051816Y-54621197D01*
X137055326Y-54644858D01*
X137056500Y-54668750D01*
X137056500Y-55581250D01*
X137055326Y-55605142D01*
X137051816Y-55628803D01*
X137046004Y-55652007D01*
X137037946Y-55674529D01*
X137027718Y-55696153D01*
X137015421Y-55716670D01*
X137001171Y-55735883D01*
X136985107Y-55753607D01*
X136967383Y-55769671D01*
X136948170Y-55783921D01*
X136927653Y-55796218D01*
X136906029Y-55806446D01*
X136883507Y-55814504D01*
X136860303Y-55820316D01*
X136836642Y-55823826D01*
X136812750Y-55825000D01*
X136325250Y-55825000D01*
X136301358Y-55823826D01*
X136277697Y-55820316D01*
X136254493Y-55814504D01*
X136231971Y-55806446D01*
X136210347Y-55796218D01*
X136189830Y-55783921D01*
X136170617Y-55769671D01*
X136152893Y-55753607D01*
X136136829Y-55735883D01*
X136122579Y-55716670D01*
X136110282Y-55696153D01*
X136100054Y-55674529D01*
X136091996Y-55652007D01*
X136086184Y-55628803D01*
X136082674Y-55605142D01*
X136081500Y-55581250D01*
X136081500Y-54668750D01*
X136082674Y-54644858D01*
X136086184Y-54621197D01*
X136091996Y-54597993D01*
X136100054Y-54575471D01*
X136110282Y-54553847D01*
X136122579Y-54533330D01*
X136136829Y-54514117D01*
X136152893Y-54496393D01*
X136170617Y-54480329D01*
X136189830Y-54466079D01*
X136210347Y-54453782D01*
X136231971Y-54443554D01*
X136254493Y-54435496D01*
X136277697Y-54429684D01*
X136301358Y-54426174D01*
X136325250Y-54425000D01*
X136812750Y-54425000D01*
X136836642Y-54426174D01*
X136836642Y-54426174D01*
G37*
D20*
G04 #@! TD*
G04 #@! TO.P,D1,2*
G04 #@! TO.N,Net-(D1-Pad2)*
X136569000Y-55125000D03*
D16*
G04 #@! TO.N,Net-(D1-Pad1)*
G04 #@! TO.C,D1*
G36*
X134961642Y-54426174D02*
X134985303Y-54429684D01*
X135008507Y-54435496D01*
X135031029Y-54443554D01*
X135052653Y-54453782D01*
X135073170Y-54466079D01*
X135092383Y-54480329D01*
X135110107Y-54496393D01*
X135126171Y-54514117D01*
X135140421Y-54533330D01*
X135152718Y-54553847D01*
X135162946Y-54575471D01*
X135171004Y-54597993D01*
X135176816Y-54621197D01*
X135180326Y-54644858D01*
X135181500Y-54668750D01*
X135181500Y-55581250D01*
X135180326Y-55605142D01*
X135176816Y-55628803D01*
X135171004Y-55652007D01*
X135162946Y-55674529D01*
X135152718Y-55696153D01*
X135140421Y-55716670D01*
X135126171Y-55735883D01*
X135110107Y-55753607D01*
X135092383Y-55769671D01*
X135073170Y-55783921D01*
X135052653Y-55796218D01*
X135031029Y-55806446D01*
X135008507Y-55814504D01*
X134985303Y-55820316D01*
X134961642Y-55823826D01*
X134937750Y-55825000D01*
X134450250Y-55825000D01*
X134426358Y-55823826D01*
X134402697Y-55820316D01*
X134379493Y-55814504D01*
X134356971Y-55806446D01*
X134335347Y-55796218D01*
X134314830Y-55783921D01*
X134295617Y-55769671D01*
X134277893Y-55753607D01*
X134261829Y-55735883D01*
X134247579Y-55716670D01*
X134235282Y-55696153D01*
X134225054Y-55674529D01*
X134216996Y-55652007D01*
X134211184Y-55628803D01*
X134207674Y-55605142D01*
X134206500Y-55581250D01*
X134206500Y-54668750D01*
X134207674Y-54644858D01*
X134211184Y-54621197D01*
X134216996Y-54597993D01*
X134225054Y-54575471D01*
X134235282Y-54553847D01*
X134247579Y-54533330D01*
X134261829Y-54514117D01*
X134277893Y-54496393D01*
X134295617Y-54480329D01*
X134314830Y-54466079D01*
X134335347Y-54453782D01*
X134356971Y-54443554D01*
X134379493Y-54435496D01*
X134402697Y-54429684D01*
X134426358Y-54426174D01*
X134450250Y-54425000D01*
X134937750Y-54425000D01*
X134961642Y-54426174D01*
X134961642Y-54426174D01*
G37*
D20*
G04 #@! TD*
G04 #@! TO.P,D1,1*
G04 #@! TO.N,Net-(D1-Pad1)*
X134694000Y-55125000D03*
D16*
G04 #@! TO.N,Net-(D2-Pad1)*
G04 #@! TO.C,D2*
G36*
X134699142Y-68826174D02*
X134722803Y-68829684D01*
X134746007Y-68835496D01*
X134768529Y-68843554D01*
X134790153Y-68853782D01*
X134810670Y-68866079D01*
X134829883Y-68880329D01*
X134847607Y-68896393D01*
X134863671Y-68914117D01*
X134877921Y-68933330D01*
X134890218Y-68953847D01*
X134900446Y-68975471D01*
X134908504Y-68997993D01*
X134914316Y-69021197D01*
X134917826Y-69044858D01*
X134919000Y-69068750D01*
X134919000Y-69981250D01*
X134917826Y-70005142D01*
X134914316Y-70028803D01*
X134908504Y-70052007D01*
X134900446Y-70074529D01*
X134890218Y-70096153D01*
X134877921Y-70116670D01*
X134863671Y-70135883D01*
X134847607Y-70153607D01*
X134829883Y-70169671D01*
X134810670Y-70183921D01*
X134790153Y-70196218D01*
X134768529Y-70206446D01*
X134746007Y-70214504D01*
X134722803Y-70220316D01*
X134699142Y-70223826D01*
X134675250Y-70225000D01*
X134187750Y-70225000D01*
X134163858Y-70223826D01*
X134140197Y-70220316D01*
X134116993Y-70214504D01*
X134094471Y-70206446D01*
X134072847Y-70196218D01*
X134052330Y-70183921D01*
X134033117Y-70169671D01*
X134015393Y-70153607D01*
X133999329Y-70135883D01*
X133985079Y-70116670D01*
X133972782Y-70096153D01*
X133962554Y-70074529D01*
X133954496Y-70052007D01*
X133948684Y-70028803D01*
X133945174Y-70005142D01*
X133944000Y-69981250D01*
X133944000Y-69068750D01*
X133945174Y-69044858D01*
X133948684Y-69021197D01*
X133954496Y-68997993D01*
X133962554Y-68975471D01*
X133972782Y-68953847D01*
X133985079Y-68933330D01*
X133999329Y-68914117D01*
X134015393Y-68896393D01*
X134033117Y-68880329D01*
X134052330Y-68866079D01*
X134072847Y-68853782D01*
X134094471Y-68843554D01*
X134116993Y-68835496D01*
X134140197Y-68829684D01*
X134163858Y-68826174D01*
X134187750Y-68825000D01*
X134675250Y-68825000D01*
X134699142Y-68826174D01*
X134699142Y-68826174D01*
G37*
D20*
G04 #@! TD*
G04 #@! TO.P,D2,1*
G04 #@! TO.N,Net-(D2-Pad1)*
X134431500Y-69525000D03*
D16*
G04 #@! TO.N,Net-(D2-Pad2)*
G04 #@! TO.C,D2*
G36*
X136574142Y-68826174D02*
X136597803Y-68829684D01*
X136621007Y-68835496D01*
X136643529Y-68843554D01*
X136665153Y-68853782D01*
X136685670Y-68866079D01*
X136704883Y-68880329D01*
X136722607Y-68896393D01*
X136738671Y-68914117D01*
X136752921Y-68933330D01*
X136765218Y-68953847D01*
X136775446Y-68975471D01*
X136783504Y-68997993D01*
X136789316Y-69021197D01*
X136792826Y-69044858D01*
X136794000Y-69068750D01*
X136794000Y-69981250D01*
X136792826Y-70005142D01*
X136789316Y-70028803D01*
X136783504Y-70052007D01*
X136775446Y-70074529D01*
X136765218Y-70096153D01*
X136752921Y-70116670D01*
X136738671Y-70135883D01*
X136722607Y-70153607D01*
X136704883Y-70169671D01*
X136685670Y-70183921D01*
X136665153Y-70196218D01*
X136643529Y-70206446D01*
X136621007Y-70214504D01*
X136597803Y-70220316D01*
X136574142Y-70223826D01*
X136550250Y-70225000D01*
X136062750Y-70225000D01*
X136038858Y-70223826D01*
X136015197Y-70220316D01*
X135991993Y-70214504D01*
X135969471Y-70206446D01*
X135947847Y-70196218D01*
X135927330Y-70183921D01*
X135908117Y-70169671D01*
X135890393Y-70153607D01*
X135874329Y-70135883D01*
X135860079Y-70116670D01*
X135847782Y-70096153D01*
X135837554Y-70074529D01*
X135829496Y-70052007D01*
X135823684Y-70028803D01*
X135820174Y-70005142D01*
X135819000Y-69981250D01*
X135819000Y-69068750D01*
X135820174Y-69044858D01*
X135823684Y-69021197D01*
X135829496Y-68997993D01*
X135837554Y-68975471D01*
X135847782Y-68953847D01*
X135860079Y-68933330D01*
X135874329Y-68914117D01*
X135890393Y-68896393D01*
X135908117Y-68880329D01*
X135927330Y-68866079D01*
X135947847Y-68853782D01*
X135969471Y-68843554D01*
X135991993Y-68835496D01*
X136015197Y-68829684D01*
X136038858Y-68826174D01*
X136062750Y-68825000D01*
X136550250Y-68825000D01*
X136574142Y-68826174D01*
X136574142Y-68826174D01*
G37*
D20*
G04 #@! TD*
G04 #@! TO.P,D2,2*
G04 #@! TO.N,Net-(D2-Pad2)*
X136306500Y-69525000D03*
D11*
G04 #@! TO.P,JP1,1*
G04 #@! TO.N,VBUS*
X147000000Y-55000000D03*
D21*
G04 #@! TO.P,JP1,2*
G04 #@! TO.N,/TVCC*
X149540000Y-55000000D03*
G04 #@! TO.P,JP1,3*
G04 #@! TO.N,+3V3*
X152080000Y-55000000D03*
G04 #@! TD*
D16*
G04 #@! TO.N,GND*
G04 #@! TO.C,R1*
G36*
X143740191Y-54726053D02*
X143761426Y-54729203D01*
X143782250Y-54734419D01*
X143802462Y-54741651D01*
X143821868Y-54750830D01*
X143840281Y-54761866D01*
X143857524Y-54774654D01*
X143873430Y-54789070D01*
X143887846Y-54804976D01*
X143900634Y-54822219D01*
X143911670Y-54840632D01*
X143920849Y-54860038D01*
X143928081Y-54880250D01*
X143933297Y-54901074D01*
X143936447Y-54922309D01*
X143937500Y-54943750D01*
X143937500Y-55456250D01*
X143936447Y-55477691D01*
X143933297Y-55498926D01*
X143928081Y-55519750D01*
X143920849Y-55539962D01*
X143911670Y-55559368D01*
X143900634Y-55577781D01*
X143887846Y-55595024D01*
X143873430Y-55610930D01*
X143857524Y-55625346D01*
X143840281Y-55638134D01*
X143821868Y-55649170D01*
X143802462Y-55658349D01*
X143782250Y-55665581D01*
X143761426Y-55670797D01*
X143740191Y-55673947D01*
X143718750Y-55675000D01*
X143281250Y-55675000D01*
X143259809Y-55673947D01*
X143238574Y-55670797D01*
X143217750Y-55665581D01*
X143197538Y-55658349D01*
X143178132Y-55649170D01*
X143159719Y-55638134D01*
X143142476Y-55625346D01*
X143126570Y-55610930D01*
X143112154Y-55595024D01*
X143099366Y-55577781D01*
X143088330Y-55559368D01*
X143079151Y-55539962D01*
X143071919Y-55519750D01*
X143066703Y-55498926D01*
X143063553Y-55477691D01*
X143062500Y-55456250D01*
X143062500Y-54943750D01*
X143063553Y-54922309D01*
X143066703Y-54901074D01*
X143071919Y-54880250D01*
X143079151Y-54860038D01*
X143088330Y-54840632D01*
X143099366Y-54822219D01*
X143112154Y-54804976D01*
X143126570Y-54789070D01*
X143142476Y-54774654D01*
X143159719Y-54761866D01*
X143178132Y-54750830D01*
X143197538Y-54741651D01*
X143217750Y-54734419D01*
X143238574Y-54729203D01*
X143259809Y-54726053D01*
X143281250Y-54725000D01*
X143718750Y-54725000D01*
X143740191Y-54726053D01*
X143740191Y-54726053D01*
G37*
D19*
G04 #@! TD*
G04 #@! TO.P,R1,1*
G04 #@! TO.N,GND*
X143500000Y-55200000D03*
D16*
G04 #@! TO.N,Net-(P1-PadA5)*
G04 #@! TO.C,R1*
G36*
X142165191Y-54726053D02*
X142186426Y-54729203D01*
X142207250Y-54734419D01*
X142227462Y-54741651D01*
X142246868Y-54750830D01*
X142265281Y-54761866D01*
X142282524Y-54774654D01*
X142298430Y-54789070D01*
X142312846Y-54804976D01*
X142325634Y-54822219D01*
X142336670Y-54840632D01*
X142345849Y-54860038D01*
X142353081Y-54880250D01*
X142358297Y-54901074D01*
X142361447Y-54922309D01*
X142362500Y-54943750D01*
X142362500Y-55456250D01*
X142361447Y-55477691D01*
X142358297Y-55498926D01*
X142353081Y-55519750D01*
X142345849Y-55539962D01*
X142336670Y-55559368D01*
X142325634Y-55577781D01*
X142312846Y-55595024D01*
X142298430Y-55610930D01*
X142282524Y-55625346D01*
X142265281Y-55638134D01*
X142246868Y-55649170D01*
X142227462Y-55658349D01*
X142207250Y-55665581D01*
X142186426Y-55670797D01*
X142165191Y-55673947D01*
X142143750Y-55675000D01*
X141706250Y-55675000D01*
X141684809Y-55673947D01*
X141663574Y-55670797D01*
X141642750Y-55665581D01*
X141622538Y-55658349D01*
X141603132Y-55649170D01*
X141584719Y-55638134D01*
X141567476Y-55625346D01*
X141551570Y-55610930D01*
X141537154Y-55595024D01*
X141524366Y-55577781D01*
X141513330Y-55559368D01*
X141504151Y-55539962D01*
X141496919Y-55519750D01*
X141491703Y-55498926D01*
X141488553Y-55477691D01*
X141487500Y-55456250D01*
X141487500Y-54943750D01*
X141488553Y-54922309D01*
X141491703Y-54901074D01*
X141496919Y-54880250D01*
X141504151Y-54860038D01*
X141513330Y-54840632D01*
X141524366Y-54822219D01*
X141537154Y-54804976D01*
X141551570Y-54789070D01*
X141567476Y-54774654D01*
X141584719Y-54761866D01*
X141603132Y-54750830D01*
X141622538Y-54741651D01*
X141642750Y-54734419D01*
X141663574Y-54729203D01*
X141684809Y-54726053D01*
X141706250Y-54725000D01*
X142143750Y-54725000D01*
X142165191Y-54726053D01*
X142165191Y-54726053D01*
G37*
D19*
G04 #@! TD*
G04 #@! TO.P,R1,2*
G04 #@! TO.N,Net-(P1-PadA5)*
X141925000Y-55200000D03*
D16*
G04 #@! TO.N,Net-(D1-Pad2)*
G04 #@! TO.C,R2*
G36*
X138609191Y-54651053D02*
X138630426Y-54654203D01*
X138651250Y-54659419D01*
X138671462Y-54666651D01*
X138690868Y-54675830D01*
X138709281Y-54686866D01*
X138726524Y-54699654D01*
X138742430Y-54714070D01*
X138756846Y-54729976D01*
X138769634Y-54747219D01*
X138780670Y-54765632D01*
X138789849Y-54785038D01*
X138797081Y-54805250D01*
X138802297Y-54826074D01*
X138805447Y-54847309D01*
X138806500Y-54868750D01*
X138806500Y-55381250D01*
X138805447Y-55402691D01*
X138802297Y-55423926D01*
X138797081Y-55444750D01*
X138789849Y-55464962D01*
X138780670Y-55484368D01*
X138769634Y-55502781D01*
X138756846Y-55520024D01*
X138742430Y-55535930D01*
X138726524Y-55550346D01*
X138709281Y-55563134D01*
X138690868Y-55574170D01*
X138671462Y-55583349D01*
X138651250Y-55590581D01*
X138630426Y-55595797D01*
X138609191Y-55598947D01*
X138587750Y-55600000D01*
X138150250Y-55600000D01*
X138128809Y-55598947D01*
X138107574Y-55595797D01*
X138086750Y-55590581D01*
X138066538Y-55583349D01*
X138047132Y-55574170D01*
X138028719Y-55563134D01*
X138011476Y-55550346D01*
X137995570Y-55535930D01*
X137981154Y-55520024D01*
X137968366Y-55502781D01*
X137957330Y-55484368D01*
X137948151Y-55464962D01*
X137940919Y-55444750D01*
X137935703Y-55423926D01*
X137932553Y-55402691D01*
X137931500Y-55381250D01*
X137931500Y-54868750D01*
X137932553Y-54847309D01*
X137935703Y-54826074D01*
X137940919Y-54805250D01*
X137948151Y-54785038D01*
X137957330Y-54765632D01*
X137968366Y-54747219D01*
X137981154Y-54729976D01*
X137995570Y-54714070D01*
X138011476Y-54699654D01*
X138028719Y-54686866D01*
X138047132Y-54675830D01*
X138066538Y-54666651D01*
X138086750Y-54659419D01*
X138107574Y-54654203D01*
X138128809Y-54651053D01*
X138150250Y-54650000D01*
X138587750Y-54650000D01*
X138609191Y-54651053D01*
X138609191Y-54651053D01*
G37*
D19*
G04 #@! TD*
G04 #@! TO.P,R2,2*
G04 #@! TO.N,Net-(D1-Pad2)*
X138369000Y-55125000D03*
D16*
G04 #@! TO.N,+3V3*
G04 #@! TO.C,R2*
G36*
X140184191Y-54651053D02*
X140205426Y-54654203D01*
X140226250Y-54659419D01*
X140246462Y-54666651D01*
X140265868Y-54675830D01*
X140284281Y-54686866D01*
X140301524Y-54699654D01*
X140317430Y-54714070D01*
X140331846Y-54729976D01*
X140344634Y-54747219D01*
X140355670Y-54765632D01*
X140364849Y-54785038D01*
X140372081Y-54805250D01*
X140377297Y-54826074D01*
X140380447Y-54847309D01*
X140381500Y-54868750D01*
X140381500Y-55381250D01*
X140380447Y-55402691D01*
X140377297Y-55423926D01*
X140372081Y-55444750D01*
X140364849Y-55464962D01*
X140355670Y-55484368D01*
X140344634Y-55502781D01*
X140331846Y-55520024D01*
X140317430Y-55535930D01*
X140301524Y-55550346D01*
X140284281Y-55563134D01*
X140265868Y-55574170D01*
X140246462Y-55583349D01*
X140226250Y-55590581D01*
X140205426Y-55595797D01*
X140184191Y-55598947D01*
X140162750Y-55600000D01*
X139725250Y-55600000D01*
X139703809Y-55598947D01*
X139682574Y-55595797D01*
X139661750Y-55590581D01*
X139641538Y-55583349D01*
X139622132Y-55574170D01*
X139603719Y-55563134D01*
X139586476Y-55550346D01*
X139570570Y-55535930D01*
X139556154Y-55520024D01*
X139543366Y-55502781D01*
X139532330Y-55484368D01*
X139523151Y-55464962D01*
X139515919Y-55444750D01*
X139510703Y-55423926D01*
X139507553Y-55402691D01*
X139506500Y-55381250D01*
X139506500Y-54868750D01*
X139507553Y-54847309D01*
X139510703Y-54826074D01*
X139515919Y-54805250D01*
X139523151Y-54785038D01*
X139532330Y-54765632D01*
X139543366Y-54747219D01*
X139556154Y-54729976D01*
X139570570Y-54714070D01*
X139586476Y-54699654D01*
X139603719Y-54686866D01*
X139622132Y-54675830D01*
X139641538Y-54666651D01*
X139661750Y-54659419D01*
X139682574Y-54654203D01*
X139703809Y-54651053D01*
X139725250Y-54650000D01*
X140162750Y-54650000D01*
X140184191Y-54651053D01*
X140184191Y-54651053D01*
G37*
D19*
G04 #@! TD*
G04 #@! TO.P,R2,1*
G04 #@! TO.N,+3V3*
X139944000Y-55125000D03*
D16*
G04 #@! TO.N,+3V3*
G04 #@! TO.C,R3*
G36*
X140109191Y-69051053D02*
X140130426Y-69054203D01*
X140151250Y-69059419D01*
X140171462Y-69066651D01*
X140190868Y-69075830D01*
X140209281Y-69086866D01*
X140226524Y-69099654D01*
X140242430Y-69114070D01*
X140256846Y-69129976D01*
X140269634Y-69147219D01*
X140280670Y-69165632D01*
X140289849Y-69185038D01*
X140297081Y-69205250D01*
X140302297Y-69226074D01*
X140305447Y-69247309D01*
X140306500Y-69268750D01*
X140306500Y-69781250D01*
X140305447Y-69802691D01*
X140302297Y-69823926D01*
X140297081Y-69844750D01*
X140289849Y-69864962D01*
X140280670Y-69884368D01*
X140269634Y-69902781D01*
X140256846Y-69920024D01*
X140242430Y-69935930D01*
X140226524Y-69950346D01*
X140209281Y-69963134D01*
X140190868Y-69974170D01*
X140171462Y-69983349D01*
X140151250Y-69990581D01*
X140130426Y-69995797D01*
X140109191Y-69998947D01*
X140087750Y-70000000D01*
X139650250Y-70000000D01*
X139628809Y-69998947D01*
X139607574Y-69995797D01*
X139586750Y-69990581D01*
X139566538Y-69983349D01*
X139547132Y-69974170D01*
X139528719Y-69963134D01*
X139511476Y-69950346D01*
X139495570Y-69935930D01*
X139481154Y-69920024D01*
X139468366Y-69902781D01*
X139457330Y-69884368D01*
X139448151Y-69864962D01*
X139440919Y-69844750D01*
X139435703Y-69823926D01*
X139432553Y-69802691D01*
X139431500Y-69781250D01*
X139431500Y-69268750D01*
X139432553Y-69247309D01*
X139435703Y-69226074D01*
X139440919Y-69205250D01*
X139448151Y-69185038D01*
X139457330Y-69165632D01*
X139468366Y-69147219D01*
X139481154Y-69129976D01*
X139495570Y-69114070D01*
X139511476Y-69099654D01*
X139528719Y-69086866D01*
X139547132Y-69075830D01*
X139566538Y-69066651D01*
X139586750Y-69059419D01*
X139607574Y-69054203D01*
X139628809Y-69051053D01*
X139650250Y-69050000D01*
X140087750Y-69050000D01*
X140109191Y-69051053D01*
X140109191Y-69051053D01*
G37*
D19*
G04 #@! TD*
G04 #@! TO.P,R3,1*
G04 #@! TO.N,+3V3*
X139869000Y-69525000D03*
D16*
G04 #@! TO.N,Net-(D2-Pad2)*
G04 #@! TO.C,R3*
G36*
X138534191Y-69051053D02*
X138555426Y-69054203D01*
X138576250Y-69059419D01*
X138596462Y-69066651D01*
X138615868Y-69075830D01*
X138634281Y-69086866D01*
X138651524Y-69099654D01*
X138667430Y-69114070D01*
X138681846Y-69129976D01*
X138694634Y-69147219D01*
X138705670Y-69165632D01*
X138714849Y-69185038D01*
X138722081Y-69205250D01*
X138727297Y-69226074D01*
X138730447Y-69247309D01*
X138731500Y-69268750D01*
X138731500Y-69781250D01*
X138730447Y-69802691D01*
X138727297Y-69823926D01*
X138722081Y-69844750D01*
X138714849Y-69864962D01*
X138705670Y-69884368D01*
X138694634Y-69902781D01*
X138681846Y-69920024D01*
X138667430Y-69935930D01*
X138651524Y-69950346D01*
X138634281Y-69963134D01*
X138615868Y-69974170D01*
X138596462Y-69983349D01*
X138576250Y-69990581D01*
X138555426Y-69995797D01*
X138534191Y-69998947D01*
X138512750Y-70000000D01*
X138075250Y-70000000D01*
X138053809Y-69998947D01*
X138032574Y-69995797D01*
X138011750Y-69990581D01*
X137991538Y-69983349D01*
X137972132Y-69974170D01*
X137953719Y-69963134D01*
X137936476Y-69950346D01*
X137920570Y-69935930D01*
X137906154Y-69920024D01*
X137893366Y-69902781D01*
X137882330Y-69884368D01*
X137873151Y-69864962D01*
X137865919Y-69844750D01*
X137860703Y-69823926D01*
X137857553Y-69802691D01*
X137856500Y-69781250D01*
X137856500Y-69268750D01*
X137857553Y-69247309D01*
X137860703Y-69226074D01*
X137865919Y-69205250D01*
X137873151Y-69185038D01*
X137882330Y-69165632D01*
X137893366Y-69147219D01*
X137906154Y-69129976D01*
X137920570Y-69114070D01*
X137936476Y-69099654D01*
X137953719Y-69086866D01*
X137972132Y-69075830D01*
X137991538Y-69066651D01*
X138011750Y-69059419D01*
X138032574Y-69054203D01*
X138053809Y-69051053D01*
X138075250Y-69050000D01*
X138512750Y-69050000D01*
X138534191Y-69051053D01*
X138534191Y-69051053D01*
G37*
D19*
G04 #@! TD*
G04 #@! TO.P,R3,2*
G04 #@! TO.N,Net-(D2-Pad2)*
X138294000Y-69525000D03*
D16*
G04 #@! TO.N,/RESET*
G04 #@! TO.C,R4*
G36*
X157615191Y-57426053D02*
X157636426Y-57429203D01*
X157657250Y-57434419D01*
X157677462Y-57441651D01*
X157696868Y-57450830D01*
X157715281Y-57461866D01*
X157732524Y-57474654D01*
X157748430Y-57489070D01*
X157762846Y-57504976D01*
X157775634Y-57522219D01*
X157786670Y-57540632D01*
X157795849Y-57560038D01*
X157803081Y-57580250D01*
X157808297Y-57601074D01*
X157811447Y-57622309D01*
X157812500Y-57643750D01*
X157812500Y-58156250D01*
X157811447Y-58177691D01*
X157808297Y-58198926D01*
X157803081Y-58219750D01*
X157795849Y-58239962D01*
X157786670Y-58259368D01*
X157775634Y-58277781D01*
X157762846Y-58295024D01*
X157748430Y-58310930D01*
X157732524Y-58325346D01*
X157715281Y-58338134D01*
X157696868Y-58349170D01*
X157677462Y-58358349D01*
X157657250Y-58365581D01*
X157636426Y-58370797D01*
X157615191Y-58373947D01*
X157593750Y-58375000D01*
X157156250Y-58375000D01*
X157134809Y-58373947D01*
X157113574Y-58370797D01*
X157092750Y-58365581D01*
X157072538Y-58358349D01*
X157053132Y-58349170D01*
X157034719Y-58338134D01*
X157017476Y-58325346D01*
X157001570Y-58310930D01*
X156987154Y-58295024D01*
X156974366Y-58277781D01*
X156963330Y-58259368D01*
X156954151Y-58239962D01*
X156946919Y-58219750D01*
X156941703Y-58198926D01*
X156938553Y-58177691D01*
X156937500Y-58156250D01*
X156937500Y-57643750D01*
X156938553Y-57622309D01*
X156941703Y-57601074D01*
X156946919Y-57580250D01*
X156954151Y-57560038D01*
X156963330Y-57540632D01*
X156974366Y-57522219D01*
X156987154Y-57504976D01*
X157001570Y-57489070D01*
X157017476Y-57474654D01*
X157034719Y-57461866D01*
X157053132Y-57450830D01*
X157072538Y-57441651D01*
X157092750Y-57434419D01*
X157113574Y-57429203D01*
X157134809Y-57426053D01*
X157156250Y-57425000D01*
X157593750Y-57425000D01*
X157615191Y-57426053D01*
X157615191Y-57426053D01*
G37*
D19*
G04 #@! TD*
G04 #@! TO.P,R4,2*
G04 #@! TO.N,/RESET*
X157375000Y-57900000D03*
D16*
G04 #@! TO.N,GND*
G04 #@! TO.C,R4*
G36*
X156040191Y-57426053D02*
X156061426Y-57429203D01*
X156082250Y-57434419D01*
X156102462Y-57441651D01*
X156121868Y-57450830D01*
X156140281Y-57461866D01*
X156157524Y-57474654D01*
X156173430Y-57489070D01*
X156187846Y-57504976D01*
X156200634Y-57522219D01*
X156211670Y-57540632D01*
X156220849Y-57560038D01*
X156228081Y-57580250D01*
X156233297Y-57601074D01*
X156236447Y-57622309D01*
X156237500Y-57643750D01*
X156237500Y-58156250D01*
X156236447Y-58177691D01*
X156233297Y-58198926D01*
X156228081Y-58219750D01*
X156220849Y-58239962D01*
X156211670Y-58259368D01*
X156200634Y-58277781D01*
X156187846Y-58295024D01*
X156173430Y-58310930D01*
X156157524Y-58325346D01*
X156140281Y-58338134D01*
X156121868Y-58349170D01*
X156102462Y-58358349D01*
X156082250Y-58365581D01*
X156061426Y-58370797D01*
X156040191Y-58373947D01*
X156018750Y-58375000D01*
X155581250Y-58375000D01*
X155559809Y-58373947D01*
X155538574Y-58370797D01*
X155517750Y-58365581D01*
X155497538Y-58358349D01*
X155478132Y-58349170D01*
X155459719Y-58338134D01*
X155442476Y-58325346D01*
X155426570Y-58310930D01*
X155412154Y-58295024D01*
X155399366Y-58277781D01*
X155388330Y-58259368D01*
X155379151Y-58239962D01*
X155371919Y-58219750D01*
X155366703Y-58198926D01*
X155363553Y-58177691D01*
X155362500Y-58156250D01*
X155362500Y-57643750D01*
X155363553Y-57622309D01*
X155366703Y-57601074D01*
X155371919Y-57580250D01*
X155379151Y-57560038D01*
X155388330Y-57540632D01*
X155399366Y-57522219D01*
X155412154Y-57504976D01*
X155426570Y-57489070D01*
X155442476Y-57474654D01*
X155459719Y-57461866D01*
X155478132Y-57450830D01*
X155497538Y-57441651D01*
X155517750Y-57434419D01*
X155538574Y-57429203D01*
X155559809Y-57426053D01*
X155581250Y-57425000D01*
X156018750Y-57425000D01*
X156040191Y-57426053D01*
X156040191Y-57426053D01*
G37*
D19*
G04 #@! TD*
G04 #@! TO.P,R4,1*
G04 #@! TO.N,GND*
X155800000Y-57900000D03*
D22*
G04 #@! TO.P,U1,3*
G04 #@! TO.N,VBUS*
X155000000Y-70000000D03*
G04 #@! TO.P,U1,2*
G04 #@! TO.N,+3V3*
X153000000Y-70950000D03*
G04 #@! TO.P,U1,1*
G04 #@! TO.N,GND*
X153000000Y-69050000D03*
G04 #@! TD*
D16*
G04 #@! TO.N,GND*
G04 #@! TO.C,C8*
G36*
X148584191Y-57151053D02*
X148605426Y-57154203D01*
X148626250Y-57159419D01*
X148646462Y-57166651D01*
X148665868Y-57175830D01*
X148684281Y-57186866D01*
X148701524Y-57199654D01*
X148717430Y-57214070D01*
X148731846Y-57229976D01*
X148744634Y-57247219D01*
X148755670Y-57265632D01*
X148764849Y-57285038D01*
X148772081Y-57305250D01*
X148777297Y-57326074D01*
X148780447Y-57347309D01*
X148781500Y-57368750D01*
X148781500Y-57881250D01*
X148780447Y-57902691D01*
X148777297Y-57923926D01*
X148772081Y-57944750D01*
X148764849Y-57964962D01*
X148755670Y-57984368D01*
X148744634Y-58002781D01*
X148731846Y-58020024D01*
X148717430Y-58035930D01*
X148701524Y-58050346D01*
X148684281Y-58063134D01*
X148665868Y-58074170D01*
X148646462Y-58083349D01*
X148626250Y-58090581D01*
X148605426Y-58095797D01*
X148584191Y-58098947D01*
X148562750Y-58100000D01*
X148125250Y-58100000D01*
X148103809Y-58098947D01*
X148082574Y-58095797D01*
X148061750Y-58090581D01*
X148041538Y-58083349D01*
X148022132Y-58074170D01*
X148003719Y-58063134D01*
X147986476Y-58050346D01*
X147970570Y-58035930D01*
X147956154Y-58020024D01*
X147943366Y-58002781D01*
X147932330Y-57984368D01*
X147923151Y-57964962D01*
X147915919Y-57944750D01*
X147910703Y-57923926D01*
X147907553Y-57902691D01*
X147906500Y-57881250D01*
X147906500Y-57368750D01*
X147907553Y-57347309D01*
X147910703Y-57326074D01*
X147915919Y-57305250D01*
X147923151Y-57285038D01*
X147932330Y-57265632D01*
X147943366Y-57247219D01*
X147956154Y-57229976D01*
X147970570Y-57214070D01*
X147986476Y-57199654D01*
X148003719Y-57186866D01*
X148022132Y-57175830D01*
X148041538Y-57166651D01*
X148061750Y-57159419D01*
X148082574Y-57154203D01*
X148103809Y-57151053D01*
X148125250Y-57150000D01*
X148562750Y-57150000D01*
X148584191Y-57151053D01*
X148584191Y-57151053D01*
G37*
D19*
G04 #@! TD*
G04 #@! TO.P,C8,2*
G04 #@! TO.N,GND*
X148344000Y-57625000D03*
D16*
G04 #@! TO.N,Net-(C8-Pad1)*
G04 #@! TO.C,C8*
G36*
X147009191Y-57151053D02*
X147030426Y-57154203D01*
X147051250Y-57159419D01*
X147071462Y-57166651D01*
X147090868Y-57175830D01*
X147109281Y-57186866D01*
X147126524Y-57199654D01*
X147142430Y-57214070D01*
X147156846Y-57229976D01*
X147169634Y-57247219D01*
X147180670Y-57265632D01*
X147189849Y-57285038D01*
X147197081Y-57305250D01*
X147202297Y-57326074D01*
X147205447Y-57347309D01*
X147206500Y-57368750D01*
X147206500Y-57881250D01*
X147205447Y-57902691D01*
X147202297Y-57923926D01*
X147197081Y-57944750D01*
X147189849Y-57964962D01*
X147180670Y-57984368D01*
X147169634Y-58002781D01*
X147156846Y-58020024D01*
X147142430Y-58035930D01*
X147126524Y-58050346D01*
X147109281Y-58063134D01*
X147090868Y-58074170D01*
X147071462Y-58083349D01*
X147051250Y-58090581D01*
X147030426Y-58095797D01*
X147009191Y-58098947D01*
X146987750Y-58100000D01*
X146550250Y-58100000D01*
X146528809Y-58098947D01*
X146507574Y-58095797D01*
X146486750Y-58090581D01*
X146466538Y-58083349D01*
X146447132Y-58074170D01*
X146428719Y-58063134D01*
X146411476Y-58050346D01*
X146395570Y-58035930D01*
X146381154Y-58020024D01*
X146368366Y-58002781D01*
X146357330Y-57984368D01*
X146348151Y-57964962D01*
X146340919Y-57944750D01*
X146335703Y-57923926D01*
X146332553Y-57902691D01*
X146331500Y-57881250D01*
X146331500Y-57368750D01*
X146332553Y-57347309D01*
X146335703Y-57326074D01*
X146340919Y-57305250D01*
X146348151Y-57285038D01*
X146357330Y-57265632D01*
X146368366Y-57247219D01*
X146381154Y-57229976D01*
X146395570Y-57214070D01*
X146411476Y-57199654D01*
X146428719Y-57186866D01*
X146447132Y-57175830D01*
X146466538Y-57166651D01*
X146486750Y-57159419D01*
X146507574Y-57154203D01*
X146528809Y-57151053D01*
X146550250Y-57150000D01*
X146987750Y-57150000D01*
X147009191Y-57151053D01*
X147009191Y-57151053D01*
G37*
D19*
G04 #@! TD*
G04 #@! TO.P,C8,1*
G04 #@! TO.N,Net-(C8-Pad1)*
X146769000Y-57625000D03*
D16*
G04 #@! TO.N,Net-(C9-Pad1)*
G04 #@! TO.C,C9*
G36*
X148709191Y-62851053D02*
X148730426Y-62854203D01*
X148751250Y-62859419D01*
X148771462Y-62866651D01*
X148790868Y-62875830D01*
X148809281Y-62886866D01*
X148826524Y-62899654D01*
X148842430Y-62914070D01*
X148856846Y-62929976D01*
X148869634Y-62947219D01*
X148880670Y-62965632D01*
X148889849Y-62985038D01*
X148897081Y-63005250D01*
X148902297Y-63026074D01*
X148905447Y-63047309D01*
X148906500Y-63068750D01*
X148906500Y-63581250D01*
X148905447Y-63602691D01*
X148902297Y-63623926D01*
X148897081Y-63644750D01*
X148889849Y-63664962D01*
X148880670Y-63684368D01*
X148869634Y-63702781D01*
X148856846Y-63720024D01*
X148842430Y-63735930D01*
X148826524Y-63750346D01*
X148809281Y-63763134D01*
X148790868Y-63774170D01*
X148771462Y-63783349D01*
X148751250Y-63790581D01*
X148730426Y-63795797D01*
X148709191Y-63798947D01*
X148687750Y-63800000D01*
X148250250Y-63800000D01*
X148228809Y-63798947D01*
X148207574Y-63795797D01*
X148186750Y-63790581D01*
X148166538Y-63783349D01*
X148147132Y-63774170D01*
X148128719Y-63763134D01*
X148111476Y-63750346D01*
X148095570Y-63735930D01*
X148081154Y-63720024D01*
X148068366Y-63702781D01*
X148057330Y-63684368D01*
X148048151Y-63664962D01*
X148040919Y-63644750D01*
X148035703Y-63623926D01*
X148032553Y-63602691D01*
X148031500Y-63581250D01*
X148031500Y-63068750D01*
X148032553Y-63047309D01*
X148035703Y-63026074D01*
X148040919Y-63005250D01*
X148048151Y-62985038D01*
X148057330Y-62965632D01*
X148068366Y-62947219D01*
X148081154Y-62929976D01*
X148095570Y-62914070D01*
X148111476Y-62899654D01*
X148128719Y-62886866D01*
X148147132Y-62875830D01*
X148166538Y-62866651D01*
X148186750Y-62859419D01*
X148207574Y-62854203D01*
X148228809Y-62851053D01*
X148250250Y-62850000D01*
X148687750Y-62850000D01*
X148709191Y-62851053D01*
X148709191Y-62851053D01*
G37*
D19*
G04 #@! TD*
G04 #@! TO.P,C9,1*
G04 #@! TO.N,Net-(C9-Pad1)*
X148469000Y-63325000D03*
D16*
G04 #@! TO.N,GND*
G04 #@! TO.C,C9*
G36*
X147134191Y-62851053D02*
X147155426Y-62854203D01*
X147176250Y-62859419D01*
X147196462Y-62866651D01*
X147215868Y-62875830D01*
X147234281Y-62886866D01*
X147251524Y-62899654D01*
X147267430Y-62914070D01*
X147281846Y-62929976D01*
X147294634Y-62947219D01*
X147305670Y-62965632D01*
X147314849Y-62985038D01*
X147322081Y-63005250D01*
X147327297Y-63026074D01*
X147330447Y-63047309D01*
X147331500Y-63068750D01*
X147331500Y-63581250D01*
X147330447Y-63602691D01*
X147327297Y-63623926D01*
X147322081Y-63644750D01*
X147314849Y-63664962D01*
X147305670Y-63684368D01*
X147294634Y-63702781D01*
X147281846Y-63720024D01*
X147267430Y-63735930D01*
X147251524Y-63750346D01*
X147234281Y-63763134D01*
X147215868Y-63774170D01*
X147196462Y-63783349D01*
X147176250Y-63790581D01*
X147155426Y-63795797D01*
X147134191Y-63798947D01*
X147112750Y-63800000D01*
X146675250Y-63800000D01*
X146653809Y-63798947D01*
X146632574Y-63795797D01*
X146611750Y-63790581D01*
X146591538Y-63783349D01*
X146572132Y-63774170D01*
X146553719Y-63763134D01*
X146536476Y-63750346D01*
X146520570Y-63735930D01*
X146506154Y-63720024D01*
X146493366Y-63702781D01*
X146482330Y-63684368D01*
X146473151Y-63664962D01*
X146465919Y-63644750D01*
X146460703Y-63623926D01*
X146457553Y-63602691D01*
X146456500Y-63581250D01*
X146456500Y-63068750D01*
X146457553Y-63047309D01*
X146460703Y-63026074D01*
X146465919Y-63005250D01*
X146473151Y-62985038D01*
X146482330Y-62965632D01*
X146493366Y-62947219D01*
X146506154Y-62929976D01*
X146520570Y-62914070D01*
X146536476Y-62899654D01*
X146553719Y-62886866D01*
X146572132Y-62875830D01*
X146591538Y-62866651D01*
X146611750Y-62859419D01*
X146632574Y-62854203D01*
X146653809Y-62851053D01*
X146675250Y-62850000D01*
X147112750Y-62850000D01*
X147134191Y-62851053D01*
X147134191Y-62851053D01*
G37*
D19*
G04 #@! TD*
G04 #@! TO.P,C9,2*
G04 #@! TO.N,GND*
X146894000Y-63325000D03*
D23*
G04 #@! TO.N,VBUS*
X154069000Y-65925000D03*
G04 #@! TO.N,GND*
X138000000Y-59500000D03*
X138569000Y-64725000D03*
X145800000Y-66200000D03*
X143400000Y-56600000D03*
X160600000Y-71000000D03*
X153869000Y-56725000D03*
X159700000Y-65400000D03*
X159600000Y-63500000D03*
X159300000Y-57600000D03*
X155900000Y-67700000D03*
X137900000Y-62800000D03*
X155869000Y-54425000D03*
X160246021Y-61602013D03*
X149769000Y-63825000D03*
X150069000Y-59825000D03*
X138969000Y-70925000D03*
X147269000Y-69525000D03*
X148769000Y-70925000D03*
X137969000Y-56625000D03*
X138469000Y-53825000D03*
X144669000Y-55425000D03*
X146969000Y-61925000D03*
X154799991Y-63509228D03*
G04 #@! TO.N,/RESET*
X157700000Y-54800000D03*
X156269000Y-62675000D03*
G04 #@! TO.N,Net-(D1-Pad1)*
X150852767Y-57776307D03*
X134469000Y-56725000D03*
G04 #@! TO.N,Net-(D2-Pad1)*
X151169000Y-58724990D03*
X134369000Y-71425000D03*
G04 #@! TO.N,Net-(F1-Pad2)*
X141700000Y-65800000D03*
X143100000Y-59900000D03*
G04 #@! TO.N,/J_RESET*
X155900000Y-61625000D03*
G04 #@! TO.N,/USBD-*
X153204176Y-62652770D03*
X142869000Y-63025002D03*
G04 #@! TO.N,/USBD+*
X150569000Y-61600000D03*
X142721692Y-61885373D03*
G04 #@! TD*
D24*
G04 #@! TO.N,VBUS*
X151025000Y-65300000D02*
X151050000Y-65275000D01*
D25*
X157000000Y-65975000D02*
X156950000Y-65925000D01*
X148725000Y-66375000D02*
X148600000Y-66375000D01*
X151050000Y-65275000D02*
X149825000Y-65275000D01*
X149825000Y-65275000D02*
X148725000Y-66375000D01*
X152175000Y-65275000D02*
X151050000Y-65275000D01*
X156950000Y-65925000D02*
X156950000Y-66950000D01*
X156950000Y-66950000D02*
X158400000Y-68400000D01*
X158400000Y-68400000D02*
X158400000Y-70700000D01*
X158212500Y-70887500D02*
X157000000Y-70887500D01*
X158400000Y-70700000D02*
X158212500Y-70887500D01*
X155887500Y-70887500D02*
X155000000Y-70000000D01*
X157000000Y-70887500D02*
X155887500Y-70887500D01*
X145525000Y-69500000D02*
X148225000Y-72200000D01*
X144800000Y-69500000D02*
X145525000Y-69500000D01*
X155687500Y-72200000D02*
X157000000Y-70887500D01*
X148225000Y-72200000D02*
X155687500Y-72200000D01*
X153112500Y-53700000D02*
X155712500Y-56300000D01*
X148300000Y-53700000D02*
X153112500Y-53700000D01*
X147000000Y-55000000D02*
X148300000Y-53700000D01*
X157869000Y-65925000D02*
X156669000Y-65925000D01*
X156950000Y-65925000D02*
X156669000Y-65925000D01*
X156669000Y-65925000D02*
X154069000Y-65925000D01*
X153419000Y-65275000D02*
X154069000Y-65925000D01*
X151969000Y-65275000D02*
X153419000Y-65275000D01*
G04 #@! TO.N,GND*
X161040000Y-63500000D02*
X161460000Y-63080000D01*
X159600000Y-63500000D02*
X161040000Y-63500000D01*
X161240000Y-65400000D02*
X161460000Y-65620000D01*
X159700000Y-65400000D02*
X161240000Y-65400000D01*
X161460000Y-70140000D02*
X160600000Y-71000000D01*
X161460000Y-68160000D02*
X161460000Y-70140000D01*
X144750000Y-58450000D02*
X144250000Y-57950000D01*
X144750000Y-58920000D02*
X144750000Y-58450000D01*
X160397987Y-61602013D02*
X160246021Y-61602013D01*
X161460000Y-60540000D02*
X160397987Y-61602013D01*
X143500000Y-57970000D02*
X144699999Y-59169999D01*
X143500000Y-55200000D02*
X143500000Y-57970000D01*
X144250000Y-66120000D02*
X144750000Y-65620000D01*
X144250000Y-66500000D02*
X144250000Y-66120000D01*
X144750000Y-65620000D02*
X144750000Y-65370001D01*
X149175000Y-64800000D02*
X149350000Y-64625000D01*
X149350000Y-64625000D02*
X153684219Y-64625000D01*
X154399992Y-63909227D02*
X154799991Y-63509228D01*
X153684219Y-64625000D02*
X154399992Y-63909227D01*
X148600000Y-64800000D02*
X149175000Y-64800000D01*
D24*
G04 #@! TO.N,+3V3*
X147000000Y-66387500D02*
X147000000Y-67200000D01*
D25*
X151162500Y-70950000D02*
X151000000Y-70787500D01*
X153000000Y-70950000D02*
X151162500Y-70950000D01*
X147000000Y-67362500D02*
X147000000Y-67200000D01*
X151000000Y-70787500D02*
X150425000Y-70787500D01*
X147000000Y-67362500D02*
X147000000Y-66387500D01*
X147201500Y-67564000D02*
X147000000Y-67362500D01*
X150425000Y-70787500D02*
X147201500Y-67564000D01*
X150955000Y-67564000D02*
X147201500Y-67564000D01*
X151969000Y-66550000D02*
X150955000Y-67564000D01*
D24*
X142700000Y-71800000D02*
X140800000Y-71800000D01*
X140075000Y-71075000D02*
X140075000Y-69500000D01*
X143400000Y-68100000D02*
X143400000Y-71100000D01*
X144025000Y-67475000D02*
X143400000Y-68100000D01*
X140800000Y-71800000D02*
X140075000Y-71075000D01*
X140000000Y-69425000D02*
X140000000Y-55500000D01*
X147000000Y-66387500D02*
X145912500Y-67475000D01*
X150855000Y-56225000D02*
X152080000Y-55000000D01*
X145912500Y-67475000D02*
X144025000Y-67475000D01*
X140075000Y-69500000D02*
X140000000Y-69425000D01*
X145984998Y-56225000D02*
X150855000Y-56225000D01*
X140000000Y-55500000D02*
X141652000Y-53848000D01*
X141652000Y-53848000D02*
X144272000Y-53848000D01*
X143400000Y-71100000D02*
X142700000Y-71800000D01*
X144272000Y-53848000D02*
X145542000Y-55118000D01*
X145542000Y-55118000D02*
X145542000Y-55782002D01*
X145542000Y-55782002D02*
X145984998Y-56225000D01*
D25*
X151969000Y-66550000D02*
X151969000Y-65925000D01*
G04 #@! TO.N,/TVCC*
X161375000Y-55787500D02*
X161387500Y-55800000D01*
X161375000Y-54200000D02*
X161375000Y-55787500D01*
X161387500Y-57927500D02*
X161460000Y-58000000D01*
X161387500Y-55800000D02*
X161387500Y-57927500D01*
D24*
G04 #@! TO.N,/RESET*
X157375000Y-56387500D02*
X157287500Y-56300000D01*
X157375000Y-57900000D02*
X157375000Y-56387500D01*
X157700000Y-55887500D02*
X157287500Y-56300000D01*
X157700000Y-54800000D02*
X157700000Y-55887500D01*
X156769000Y-62675000D02*
X157869000Y-62675000D01*
X156950000Y-62675000D02*
X156769000Y-62675000D01*
X156769000Y-62675000D02*
X156269000Y-62675000D01*
G04 #@! TO.N,Net-(D1-Pad2)*
X138369000Y-55125000D02*
X136569000Y-55125000D01*
G04 #@! TO.N,Net-(D1-Pad1)*
X134469000Y-55350000D02*
X134694000Y-55125000D01*
X134469000Y-56725000D02*
X134469000Y-55350000D01*
X154184698Y-60075000D02*
X157869000Y-60075000D01*
X151886005Y-57776307D02*
X154184698Y-60075000D01*
X150852767Y-57776307D02*
X151886005Y-57776307D01*
G04 #@! TO.N,Net-(D2-Pad1)*
X150969000Y-58825000D02*
X151068990Y-58825000D01*
X151734685Y-58724990D02*
X151169000Y-58724990D01*
X151068990Y-58825000D02*
X151169000Y-58724990D01*
X152268990Y-58724990D02*
X151734685Y-58724990D01*
X154269000Y-60725000D02*
X152268990Y-58724990D01*
X157869000Y-60725000D02*
X154269000Y-60725000D01*
X134369000Y-69587500D02*
X134431500Y-69525000D01*
X134369000Y-71425000D02*
X134369000Y-69587500D01*
G04 #@! TO.N,Net-(D2-Pad2)*
X136331500Y-69500000D02*
X136306500Y-69525000D01*
X138500000Y-69500000D02*
X136331500Y-69500000D01*
D25*
G04 #@! TO.N,Net-(F1-Pad2)*
X142000000Y-68075000D02*
X141700000Y-67775000D01*
X142000000Y-69500000D02*
X142000000Y-68075000D01*
X141700000Y-67775000D02*
X141700000Y-65800000D01*
X144129997Y-64545001D02*
X144750000Y-64545001D01*
X143274997Y-65400001D02*
X144129997Y-64545001D01*
X142099999Y-65400001D02*
X143274997Y-65400001D01*
X141700000Y-65800000D02*
X142099999Y-65400001D01*
X144630000Y-59900000D02*
X144699999Y-59969999D01*
X144000000Y-59900000D02*
X144630000Y-59900000D01*
X144570000Y-59900000D02*
X144639999Y-59969999D01*
X144000000Y-59900000D02*
X144570000Y-59900000D01*
X144000000Y-59900000D02*
X143100000Y-59900000D01*
D24*
X144750000Y-64820000D02*
X144750000Y-64520000D01*
G04 #@! TO.N,/J_RESET*
X157869000Y-61375000D02*
X156150000Y-61375000D01*
X156150000Y-61375000D02*
X155900000Y-61625000D01*
G04 #@! TO.N,/TDI*
X159569000Y-66770001D02*
X158999999Y-66201000D01*
X158999999Y-66201000D02*
X158999999Y-64915997D01*
X162849999Y-66770001D02*
X159569000Y-66770001D01*
X158999999Y-64915997D02*
X158834001Y-64749999D01*
X164000000Y-65620000D02*
X162849999Y-66770001D01*
X157993999Y-64749999D02*
X157869000Y-64625000D01*
X158834001Y-64749999D02*
X157993999Y-64749999D01*
G04 #@! TO.N,/TDO*
X163150001Y-63929999D02*
X164000000Y-63080000D01*
X162849999Y-64230001D02*
X163150001Y-63929999D01*
X159049001Y-64230001D02*
X159269000Y-64230001D01*
X158794000Y-63975000D02*
X159049001Y-64230001D01*
X157869000Y-63975000D02*
X158794000Y-63975000D01*
X159269000Y-64230001D02*
X162849999Y-64230001D01*
G04 #@! TO.N,/TCK*
X156944000Y-63325000D02*
X156569000Y-63700000D01*
X157869000Y-63325000D02*
X156944000Y-63325000D01*
X156944000Y-65275000D02*
X157869000Y-65275000D01*
X156569000Y-64900000D02*
X156944000Y-65275000D01*
X156569000Y-63700000D02*
X156569000Y-64900000D01*
X157869000Y-63325000D02*
X158709002Y-63325000D01*
X159708996Y-62325006D02*
X160512992Y-62325006D01*
X160512992Y-62325006D02*
X160907999Y-61929999D01*
X160907999Y-61929999D02*
X162610001Y-61929999D01*
X163150001Y-61389999D02*
X164000000Y-60540000D01*
X158709002Y-63325000D02*
X159708996Y-62325006D01*
X162610001Y-61929999D02*
X163150001Y-61389999D01*
G04 #@! TO.N,/TMS*
X158794000Y-62025000D02*
X160169000Y-60650000D01*
X157869000Y-62025000D02*
X158794000Y-62025000D01*
X160169000Y-60128998D02*
X161072998Y-59225000D01*
X160169000Y-60650000D02*
X160169000Y-60128998D01*
X162775000Y-59225000D02*
X164000000Y-58000000D01*
X161072998Y-59225000D02*
X162775000Y-59225000D01*
G04 #@! TO.N,/USBD-*
X153181946Y-62675000D02*
X153204176Y-62652770D01*
X151969000Y-62675000D02*
X153181946Y-62675000D01*
X145323999Y-61470001D02*
X145414001Y-61470001D01*
X144750000Y-61520000D02*
X145274000Y-61520000D01*
X145274000Y-61520000D02*
X145323999Y-61470001D01*
X145414001Y-61470001D02*
X145769000Y-61825000D01*
X145475000Y-62520000D02*
X144750000Y-62520000D01*
X145555002Y-62520000D02*
X145475000Y-62520000D01*
X145769000Y-62306002D02*
X145555002Y-62520000D01*
X145769000Y-61825000D02*
X145769000Y-62306002D01*
X143268999Y-62625003D02*
X142869000Y-63025002D01*
X144750000Y-62520000D02*
X143374002Y-62520000D01*
X143374002Y-62520000D02*
X143268999Y-62625003D01*
G04 #@! TO.N,/USBD+*
X151969000Y-62025000D02*
X150994000Y-62025000D01*
X150994000Y-62025000D02*
X150569000Y-61600000D01*
X144750000Y-62020000D02*
X142856319Y-62020000D01*
X142856319Y-62020000D02*
X142721692Y-61885373D01*
X143984004Y-63020000D02*
X143229001Y-63775003D01*
X144750000Y-63020000D02*
X143984004Y-63020000D01*
X143229001Y-63775003D02*
X142508999Y-63775003D01*
X141958996Y-62648069D02*
X141958996Y-63225000D01*
X142721692Y-61885373D02*
X141958996Y-62648069D01*
X142508999Y-63775003D02*
X141958996Y-63225000D01*
G04 #@! TO.N,Net-(P1-PadA5)*
X141925000Y-59925000D02*
X141925000Y-55432120D01*
X144750000Y-61020000D02*
X143020000Y-61020000D01*
X143020000Y-61020000D02*
X141925000Y-59925000D01*
G04 #@! TO.N,Net-(C8-Pad1)*
X146769000Y-57625000D02*
X146769000Y-59425000D01*
X151069000Y-63325000D02*
X151969000Y-63325000D01*
X146769000Y-59425000D02*
X146769000Y-60325000D01*
X146969000Y-60525000D02*
X149169000Y-60525000D01*
X149169000Y-60525000D02*
X149669000Y-61025000D01*
X149669000Y-61025000D02*
X149669000Y-61925000D01*
X146769000Y-60325000D02*
X146969000Y-60525000D01*
X149669000Y-61925000D02*
X151069000Y-63325000D01*
G04 #@! TO.N,Net-(C9-Pad1)*
X148469000Y-61625000D02*
X148469000Y-62425000D01*
X151119000Y-63975000D02*
X151969000Y-63975000D01*
X150007388Y-62863388D02*
X151119000Y-63975000D01*
X148930612Y-62863388D02*
X150007388Y-62863388D01*
X148607388Y-62863388D02*
X148469000Y-62725000D01*
X148930612Y-62863388D02*
X148607388Y-62863388D01*
X148469000Y-62425000D02*
X148469000Y-62725000D01*
X148469000Y-62725000D02*
X148469000Y-63200000D01*
G04 #@! TD*
G04 #@! TO.N,GND*
G36*
X166455011Y-53443989D02*
X166873441Y-53634237D01*
X167221657Y-53934280D01*
X167471666Y-54319997D01*
X167607082Y-54772796D01*
X167615316Y-54883607D01*
X167600000Y-54960607D01*
X167600001Y-71039394D01*
X167609031Y-71084789D01*
X167556011Y-71455011D01*
X167365762Y-71873443D01*
X167065718Y-72221659D01*
X166680003Y-72471666D01*
X166227204Y-72607082D01*
X166116394Y-72615316D01*
X166039394Y-72600000D01*
X155988834Y-72600000D01*
X156047980Y-72560480D01*
X156075876Y-72518730D01*
X156963730Y-71630877D01*
X157256250Y-71630877D01*
X157457016Y-71590942D01*
X157627217Y-71477217D01*
X157687164Y-71387500D01*
X158163259Y-71387500D01*
X158212500Y-71397295D01*
X158261741Y-71387500D01*
X158261743Y-71387500D01*
X158407590Y-71358489D01*
X158572980Y-71247980D01*
X158600877Y-71206229D01*
X158718729Y-71088377D01*
X158760480Y-71060480D01*
X158870989Y-70895090D01*
X158900000Y-70749243D01*
X158900000Y-70749242D01*
X158909795Y-70700001D01*
X158900000Y-70650759D01*
X158900000Y-69022288D01*
X160800501Y-69022288D01*
X160901363Y-69175898D01*
X161338394Y-69311206D01*
X161793939Y-69268971D01*
X162018637Y-69175898D01*
X162119499Y-69022288D01*
X161460000Y-68362789D01*
X160800501Y-69022288D01*
X158900000Y-69022288D01*
X158900000Y-68449243D01*
X158909795Y-68400000D01*
X158870989Y-68204910D01*
X158800891Y-68100000D01*
X158760480Y-68039520D01*
X158736346Y-68023394D01*
X160293794Y-68023394D01*
X160336029Y-68478939D01*
X160429102Y-68703637D01*
X160582712Y-68804499D01*
X161242211Y-68145000D01*
X161677789Y-68145000D01*
X162337288Y-68804499D01*
X162490898Y-68703637D01*
X162626206Y-68266606D01*
X162593724Y-67916251D01*
X162850000Y-67916251D01*
X162850000Y-68373749D01*
X163025077Y-68796423D01*
X163348577Y-69119923D01*
X163771251Y-69295000D01*
X164228749Y-69295000D01*
X164651423Y-69119923D01*
X164974923Y-68796423D01*
X165150000Y-68373749D01*
X165150000Y-67916251D01*
X164974923Y-67493577D01*
X164651423Y-67170077D01*
X164228749Y-66995000D01*
X163771251Y-66995000D01*
X163348577Y-67170077D01*
X163025077Y-67493577D01*
X162850000Y-67916251D01*
X162593724Y-67916251D01*
X162583971Y-67811061D01*
X162490898Y-67586363D01*
X162337288Y-67485501D01*
X161677789Y-68145000D01*
X161242211Y-68145000D01*
X160582712Y-67485501D01*
X160429102Y-67586363D01*
X160293794Y-68023394D01*
X158736346Y-68023394D01*
X158718733Y-68011626D01*
X157450000Y-66742894D01*
X157450000Y-66455877D01*
X158594000Y-66455877D01*
X158678055Y-66439157D01*
X158711615Y-66489384D01*
X158745017Y-66511703D01*
X159258299Y-67024985D01*
X159280616Y-67058385D01*
X159412928Y-67146792D01*
X159516581Y-67167410D01*
X159569000Y-67177837D01*
X159608394Y-67170001D01*
X160864659Y-67170001D01*
X160800501Y-67267712D01*
X161460000Y-67927211D01*
X162119499Y-67267712D01*
X162055341Y-67170001D01*
X162810605Y-67170001D01*
X162849999Y-67177837D01*
X162889393Y-67170001D01*
X163006071Y-67146792D01*
X163138383Y-67058385D01*
X163160702Y-67024982D01*
X163530434Y-66655250D01*
X163771251Y-66755000D01*
X164228749Y-66755000D01*
X164651423Y-66579923D01*
X164974923Y-66256423D01*
X165150000Y-65833749D01*
X165150000Y-65376251D01*
X164974923Y-64953577D01*
X164651423Y-64630077D01*
X164228749Y-64455000D01*
X163771251Y-64455000D01*
X163348577Y-64630077D01*
X163025077Y-64953577D01*
X162850000Y-65376251D01*
X162850000Y-65833749D01*
X162958536Y-66095779D01*
X162684315Y-66370001D01*
X162350437Y-66370001D01*
X162396615Y-66323823D01*
X162337290Y-66264498D01*
X162490898Y-66163637D01*
X162626206Y-65726606D01*
X162583971Y-65271061D01*
X162490898Y-65046363D01*
X162337288Y-64945501D01*
X161677789Y-65605000D01*
X161691931Y-65619142D01*
X161474142Y-65836931D01*
X161460000Y-65822789D01*
X161445858Y-65836931D01*
X161228069Y-65619142D01*
X161242211Y-65605000D01*
X160582712Y-64945501D01*
X160429102Y-65046363D01*
X160293794Y-65483394D01*
X160336029Y-65938939D01*
X160429102Y-66163637D01*
X160582710Y-66264498D01*
X160523385Y-66323823D01*
X160569563Y-66370001D01*
X159734685Y-66370001D01*
X159399999Y-66035316D01*
X159399999Y-64955391D01*
X159407835Y-64915997D01*
X159376790Y-64759925D01*
X159370157Y-64749998D01*
X159289979Y-64630001D01*
X160864659Y-64630001D01*
X160800501Y-64727712D01*
X161460000Y-65387211D01*
X162119499Y-64727712D01*
X162055341Y-64630001D01*
X162810605Y-64630001D01*
X162849999Y-64637837D01*
X162889393Y-64630001D01*
X163006071Y-64606792D01*
X163138383Y-64518385D01*
X163160701Y-64484983D01*
X163460699Y-64184986D01*
X163460701Y-64184983D01*
X163530434Y-64115250D01*
X163771251Y-64215000D01*
X164228749Y-64215000D01*
X164651423Y-64039923D01*
X164974923Y-63716423D01*
X165150000Y-63293749D01*
X165150000Y-62836251D01*
X164974923Y-62413577D01*
X164651423Y-62090077D01*
X164228749Y-61915000D01*
X163771251Y-61915000D01*
X163348577Y-62090077D01*
X163025077Y-62413577D01*
X162850000Y-62836251D01*
X162850000Y-63293749D01*
X162958536Y-63555779D01*
X162895017Y-63619299D01*
X162895014Y-63619301D01*
X162684315Y-63830001D01*
X162350437Y-63830001D01*
X162396615Y-63783823D01*
X162337290Y-63724498D01*
X162490898Y-63623637D01*
X162626206Y-63186606D01*
X162583971Y-62731061D01*
X162490898Y-62506363D01*
X162337290Y-62405502D01*
X162396615Y-62346177D01*
X162380437Y-62329999D01*
X162570607Y-62329999D01*
X162610001Y-62337835D01*
X162649395Y-62329999D01*
X162766073Y-62306790D01*
X162898385Y-62218383D01*
X162920703Y-62184981D01*
X163460699Y-61644987D01*
X163460703Y-61644981D01*
X163530434Y-61575250D01*
X163771251Y-61675000D01*
X164228749Y-61675000D01*
X164651423Y-61499923D01*
X164974923Y-61176423D01*
X165150000Y-60753749D01*
X165150000Y-60296251D01*
X164974923Y-59873577D01*
X164651423Y-59550077D01*
X164228749Y-59375000D01*
X163771251Y-59375000D01*
X163348577Y-59550077D01*
X163025077Y-59873577D01*
X162850000Y-60296251D01*
X162850000Y-60753749D01*
X162958536Y-61015779D01*
X162895019Y-61079297D01*
X162895013Y-61079301D01*
X162444317Y-61529999D01*
X162035643Y-61529999D01*
X162119499Y-61402288D01*
X161460000Y-60742789D01*
X160800501Y-61402288D01*
X160882538Y-61527228D01*
X160868605Y-61529999D01*
X160751927Y-61553208D01*
X160619615Y-61641615D01*
X160597300Y-61675012D01*
X160347307Y-61925006D01*
X159748388Y-61925006D01*
X159708995Y-61917170D01*
X159669603Y-61925006D01*
X159669602Y-61925006D01*
X159552924Y-61948215D01*
X159420612Y-62036622D01*
X159398297Y-62070019D01*
X158899877Y-62568440D01*
X158899877Y-62450000D01*
X158892563Y-62413230D01*
X158950072Y-62401791D01*
X159082384Y-62313384D01*
X159104703Y-62279981D01*
X160391596Y-60993089D01*
X160429102Y-61083637D01*
X160582712Y-61184499D01*
X161242211Y-60525000D01*
X161677789Y-60525000D01*
X162337288Y-61184499D01*
X162490898Y-61083637D01*
X162626206Y-60646606D01*
X162583971Y-60191061D01*
X162490898Y-59966363D01*
X162337288Y-59865501D01*
X161677789Y-60525000D01*
X161242211Y-60525000D01*
X161228069Y-60510858D01*
X161445858Y-60293069D01*
X161460000Y-60307211D01*
X162119499Y-59647712D01*
X162104586Y-59625000D01*
X162735606Y-59625000D01*
X162775000Y-59632836D01*
X162814394Y-59625000D01*
X162931072Y-59601791D01*
X163063384Y-59513384D01*
X163085703Y-59479981D01*
X163530434Y-59035250D01*
X163771251Y-59135000D01*
X164228749Y-59135000D01*
X164651423Y-58959923D01*
X164974923Y-58636423D01*
X165150000Y-58213749D01*
X165150000Y-57756251D01*
X164974923Y-57333577D01*
X164651423Y-57010077D01*
X164228749Y-56835000D01*
X163771251Y-56835000D01*
X163348577Y-57010077D01*
X163025077Y-57333577D01*
X162850000Y-57756251D01*
X162850000Y-58213749D01*
X162958536Y-58475779D01*
X162615877Y-58818439D01*
X162615877Y-57135000D01*
X162592593Y-57017946D01*
X162526288Y-56918712D01*
X162427054Y-56852407D01*
X162310000Y-56829123D01*
X161887500Y-56829123D01*
X161887500Y-56487164D01*
X161977217Y-56427217D01*
X162090942Y-56257016D01*
X162130877Y-56056250D01*
X162130877Y-55543750D01*
X162090942Y-55342984D01*
X161977217Y-55172783D01*
X161875000Y-55104484D01*
X161875000Y-54887164D01*
X161964717Y-54827217D01*
X162078442Y-54657016D01*
X162118377Y-54456250D01*
X162118377Y-53943750D01*
X162078442Y-53742984D01*
X161964717Y-53572783D01*
X161794516Y-53459058D01*
X161593750Y-53419123D01*
X161156250Y-53419123D01*
X160955484Y-53459058D01*
X160785283Y-53572783D01*
X160671558Y-53742984D01*
X160631623Y-53943750D01*
X160631623Y-54456250D01*
X160671558Y-54657016D01*
X160785283Y-54827217D01*
X160875000Y-54887164D01*
X160875001Y-55121188D01*
X160797783Y-55172783D01*
X160684058Y-55342984D01*
X160644123Y-55543750D01*
X160644123Y-56056250D01*
X160684058Y-56257016D01*
X160797783Y-56427217D01*
X160887500Y-56487164D01*
X160887500Y-56829123D01*
X160610000Y-56829123D01*
X160492946Y-56852407D01*
X160393712Y-56918712D01*
X160327407Y-57017946D01*
X160304123Y-57135000D01*
X160304123Y-58835000D01*
X160327407Y-58952054D01*
X160393712Y-59051288D01*
X160492946Y-59117593D01*
X160594516Y-59137797D01*
X159914016Y-59818298D01*
X159880617Y-59840614D01*
X159840937Y-59900000D01*
X159792209Y-59972927D01*
X159761164Y-60128998D01*
X159769001Y-60168396D01*
X159769000Y-60484315D01*
X158899877Y-61353439D01*
X158899877Y-61150000D01*
X158879985Y-61050000D01*
X158899877Y-60950000D01*
X158899877Y-60500000D01*
X158879985Y-60400000D01*
X158899877Y-60300000D01*
X158899877Y-59850000D01*
X158876593Y-59732946D01*
X158810288Y-59633712D01*
X158711054Y-59567407D01*
X158594000Y-59544123D01*
X157144000Y-59544123D01*
X157026946Y-59567407D01*
X156927712Y-59633712D01*
X156900125Y-59675000D01*
X154350383Y-59675000D01*
X152804383Y-58129000D01*
X155062500Y-58129000D01*
X155062500Y-58434673D01*
X155108172Y-58544936D01*
X155192563Y-58629328D01*
X155302826Y-58675000D01*
X155571000Y-58675000D01*
X155646000Y-58600000D01*
X155646000Y-58054000D01*
X155954000Y-58054000D01*
X155954000Y-58600000D01*
X156029000Y-58675000D01*
X156297174Y-58675000D01*
X156407437Y-58629328D01*
X156491828Y-58544936D01*
X156537500Y-58434673D01*
X156537500Y-58129000D01*
X156462500Y-58054000D01*
X155954000Y-58054000D01*
X155646000Y-58054000D01*
X155137500Y-58054000D01*
X155062500Y-58129000D01*
X152804383Y-58129000D01*
X152196708Y-57521326D01*
X152174389Y-57487923D01*
X152042077Y-57399516D01*
X151925399Y-57376307D01*
X151886005Y-57368471D01*
X151846611Y-57376307D01*
X151442717Y-57376307D01*
X151431737Y-57365327D01*
X155062500Y-57365327D01*
X155062500Y-57671000D01*
X155137500Y-57746000D01*
X155646000Y-57746000D01*
X155646000Y-57200000D01*
X155954000Y-57200000D01*
X155954000Y-57746000D01*
X156462500Y-57746000D01*
X156537500Y-57671000D01*
X156537500Y-57365327D01*
X156491828Y-57255064D01*
X156407437Y-57170672D01*
X156297174Y-57125000D01*
X156029000Y-57125000D01*
X155954000Y-57200000D01*
X155646000Y-57200000D01*
X155571000Y-57125000D01*
X155302826Y-57125000D01*
X155192563Y-57170672D01*
X155108172Y-57255064D01*
X155062500Y-57365327D01*
X151431737Y-57365327D01*
X151249285Y-57182875D01*
X150992006Y-57076307D01*
X150713528Y-57076307D01*
X150456249Y-57182875D01*
X150259335Y-57379789D01*
X150152767Y-57637068D01*
X150152767Y-57915546D01*
X150259335Y-58172825D01*
X150456249Y-58369739D01*
X150543504Y-58405881D01*
X150469000Y-58585751D01*
X150469000Y-58864229D01*
X150575568Y-59121508D01*
X150772482Y-59318422D01*
X151029761Y-59424990D01*
X151308239Y-59424990D01*
X151565518Y-59318422D01*
X151758950Y-59124990D01*
X152103306Y-59124990D01*
X152522438Y-59544123D01*
X151244000Y-59544123D01*
X151126946Y-59567407D01*
X151027712Y-59633712D01*
X150961407Y-59732946D01*
X150938123Y-59850000D01*
X150938123Y-60300000D01*
X150958015Y-60400000D01*
X150938123Y-60500000D01*
X150938123Y-60950000D01*
X150947926Y-60999281D01*
X150708239Y-60900000D01*
X150429761Y-60900000D01*
X150172482Y-61006568D01*
X150069000Y-61110050D01*
X150069000Y-61064394D01*
X150076836Y-61025000D01*
X150058678Y-60933712D01*
X150045791Y-60868928D01*
X149957384Y-60736616D01*
X149923985Y-60714300D01*
X149479703Y-60270018D01*
X149457384Y-60236616D01*
X149369000Y-60177560D01*
X149369000Y-59654000D01*
X149294000Y-59579000D01*
X148623000Y-59579000D01*
X148623000Y-59599000D01*
X148315000Y-59599000D01*
X148315000Y-59579000D01*
X148295000Y-59579000D01*
X148295000Y-59271000D01*
X148315000Y-59271000D01*
X148315000Y-58500000D01*
X148623000Y-58500000D01*
X148623000Y-59271000D01*
X149294000Y-59271000D01*
X149369000Y-59196000D01*
X149369000Y-58665326D01*
X149323328Y-58555063D01*
X149238936Y-58470672D01*
X149128673Y-58425000D01*
X148698000Y-58425000D01*
X148623000Y-58500000D01*
X148315000Y-58500000D01*
X148240000Y-58425000D01*
X147809327Y-58425000D01*
X147699064Y-58470672D01*
X147615623Y-58554112D01*
X147585288Y-58508712D01*
X147486054Y-58442407D01*
X147369000Y-58419123D01*
X147169000Y-58419123D01*
X147169000Y-58369824D01*
X147188516Y-58365942D01*
X147358717Y-58252217D01*
X147472442Y-58082016D01*
X147512377Y-57881250D01*
X147512377Y-57854000D01*
X147606500Y-57854000D01*
X147606500Y-58159673D01*
X147652172Y-58269936D01*
X147736563Y-58354328D01*
X147846826Y-58400000D01*
X148115000Y-58400000D01*
X148190000Y-58325000D01*
X148190000Y-57779000D01*
X148498000Y-57779000D01*
X148498000Y-58325000D01*
X148573000Y-58400000D01*
X148841174Y-58400000D01*
X148951437Y-58354328D01*
X149035828Y-58269936D01*
X149081500Y-58159673D01*
X149081500Y-57854000D01*
X149006500Y-57779000D01*
X148498000Y-57779000D01*
X148190000Y-57779000D01*
X147681500Y-57779000D01*
X147606500Y-57854000D01*
X147512377Y-57854000D01*
X147512377Y-57368750D01*
X147472442Y-57167984D01*
X147420554Y-57090327D01*
X147606500Y-57090327D01*
X147606500Y-57396000D01*
X147681500Y-57471000D01*
X148190000Y-57471000D01*
X148190000Y-56925000D01*
X148498000Y-56925000D01*
X148498000Y-57471000D01*
X149006500Y-57471000D01*
X149081500Y-57396000D01*
X149081500Y-57090327D01*
X149035828Y-56980064D01*
X148951437Y-56895672D01*
X148841174Y-56850000D01*
X148573000Y-56850000D01*
X148498000Y-56925000D01*
X148190000Y-56925000D01*
X148115000Y-56850000D01*
X147846826Y-56850000D01*
X147736563Y-56895672D01*
X147652172Y-56980064D01*
X147606500Y-57090327D01*
X147420554Y-57090327D01*
X147358717Y-56997783D01*
X147188516Y-56884058D01*
X146987750Y-56844123D01*
X146550250Y-56844123D01*
X146349484Y-56884058D01*
X146179283Y-56997783D01*
X146065558Y-57167984D01*
X146025623Y-57368750D01*
X146025623Y-57881250D01*
X146065558Y-58082016D01*
X146179283Y-58252217D01*
X146349484Y-58365942D01*
X146369000Y-58369824D01*
X146369000Y-58419123D01*
X146169000Y-58419123D01*
X146051946Y-58442407D01*
X145952712Y-58508712D01*
X145886407Y-58607946D01*
X145863123Y-58725000D01*
X145863123Y-60125000D01*
X145886407Y-60242054D01*
X145952712Y-60341288D01*
X146051946Y-60407593D01*
X146169000Y-60430877D01*
X146382225Y-60430877D01*
X146392209Y-60481071D01*
X146400800Y-60493928D01*
X146480617Y-60613384D01*
X146498002Y-60625000D01*
X146109327Y-60625000D01*
X145999064Y-60670672D01*
X145914672Y-60755063D01*
X145869000Y-60865326D01*
X145869000Y-61359315D01*
X145724703Y-61215019D01*
X145702385Y-61181617D01*
X145580877Y-61100429D01*
X145580877Y-60870000D01*
X145560985Y-60770000D01*
X145580877Y-60670000D01*
X145580877Y-60370000D01*
X145560985Y-60270000D01*
X145580877Y-60170000D01*
X145580877Y-59570000D01*
X145560113Y-59465615D01*
X145575000Y-59429674D01*
X145575000Y-59370000D01*
X145500000Y-59295000D01*
X145474264Y-59295000D01*
X145529328Y-59239937D01*
X145575000Y-59129674D01*
X145575000Y-59010326D01*
X145529328Y-58900063D01*
X145474264Y-58845000D01*
X145500000Y-58845000D01*
X145575000Y-58770000D01*
X145575000Y-58710326D01*
X145529328Y-58600063D01*
X145444936Y-58515672D01*
X145388156Y-58492153D01*
X145474580Y-58406791D01*
X145551282Y-58224911D01*
X145508455Y-58104000D01*
X144404000Y-58104000D01*
X144404000Y-58124000D01*
X144096000Y-58124000D01*
X144096000Y-58104000D01*
X142991545Y-58104000D01*
X142948718Y-58224911D01*
X143025420Y-58406791D01*
X143251576Y-58630170D01*
X143546000Y-58750000D01*
X143925000Y-58750000D01*
X143925000Y-58770000D01*
X144000000Y-58845000D01*
X144025736Y-58845000D01*
X143970672Y-58900063D01*
X143925000Y-59010326D01*
X143925000Y-59129674D01*
X143970672Y-59239937D01*
X144025736Y-59295000D01*
X144000000Y-59295000D01*
X143925000Y-59370000D01*
X143925000Y-59400000D01*
X143589950Y-59400000D01*
X143496518Y-59306568D01*
X143239239Y-59200000D01*
X142960761Y-59200000D01*
X142703482Y-59306568D01*
X142506568Y-59503482D01*
X142400000Y-59760761D01*
X142400000Y-59834316D01*
X142325000Y-59759316D01*
X142325000Y-57675089D01*
X142948718Y-57675089D01*
X142991545Y-57796000D01*
X144096000Y-57796000D01*
X144096000Y-57150000D01*
X144404000Y-57150000D01*
X144404000Y-57796000D01*
X145508455Y-57796000D01*
X145551282Y-57675089D01*
X145474580Y-57493209D01*
X145248424Y-57269830D01*
X144954000Y-57150000D01*
X144404000Y-57150000D01*
X144096000Y-57150000D01*
X143546000Y-57150000D01*
X143251576Y-57269830D01*
X143025420Y-57493209D01*
X142948718Y-57675089D01*
X142325000Y-57675089D01*
X142325000Y-55944824D01*
X142344516Y-55940942D01*
X142514717Y-55827217D01*
X142628442Y-55657016D01*
X142668377Y-55456250D01*
X142668377Y-55429000D01*
X142762500Y-55429000D01*
X142762500Y-55734673D01*
X142808172Y-55844936D01*
X142892563Y-55929328D01*
X143002826Y-55975000D01*
X143271000Y-55975000D01*
X143346000Y-55900000D01*
X143346000Y-55354000D01*
X143654000Y-55354000D01*
X143654000Y-55900000D01*
X143729000Y-55975000D01*
X143997174Y-55975000D01*
X144107437Y-55929328D01*
X144191828Y-55844936D01*
X144237500Y-55734673D01*
X144237500Y-55429000D01*
X144162500Y-55354000D01*
X143654000Y-55354000D01*
X143346000Y-55354000D01*
X142837500Y-55354000D01*
X142762500Y-55429000D01*
X142668377Y-55429000D01*
X142668377Y-54943750D01*
X142628442Y-54742984D01*
X142576554Y-54665327D01*
X142762500Y-54665327D01*
X142762500Y-54971000D01*
X142837500Y-55046000D01*
X143346000Y-55046000D01*
X143346000Y-54500000D01*
X143654000Y-54500000D01*
X143654000Y-55046000D01*
X144162500Y-55046000D01*
X144237500Y-54971000D01*
X144237500Y-54665327D01*
X144191828Y-54555064D01*
X144107437Y-54470672D01*
X143997174Y-54425000D01*
X143729000Y-54425000D01*
X143654000Y-54500000D01*
X143346000Y-54500000D01*
X143271000Y-54425000D01*
X143002826Y-54425000D01*
X142892563Y-54470672D01*
X142808172Y-54555064D01*
X142762500Y-54665327D01*
X142576554Y-54665327D01*
X142514717Y-54572783D01*
X142344516Y-54459058D01*
X142143750Y-54419123D01*
X141706250Y-54419123D01*
X141631741Y-54433944D01*
X141817685Y-54248000D01*
X144106316Y-54248000D01*
X145142000Y-55283686D01*
X145142001Y-55742604D01*
X145134164Y-55782002D01*
X145165209Y-55938073D01*
X145165210Y-55938074D01*
X145253617Y-56070386D01*
X145287016Y-56092702D01*
X145674297Y-56479984D01*
X145696614Y-56513384D01*
X145828926Y-56601791D01*
X145984998Y-56632836D01*
X146024392Y-56625000D01*
X150815606Y-56625000D01*
X150855000Y-56632836D01*
X150894394Y-56625000D01*
X151011072Y-56601791D01*
X151143384Y-56513384D01*
X151165703Y-56479981D01*
X151590000Y-56055685D01*
X151631293Y-56083276D01*
X151966739Y-56150000D01*
X152193261Y-56150000D01*
X152528707Y-56083276D01*
X152909103Y-55829103D01*
X153163276Y-55448707D01*
X153252529Y-55000000D01*
X153163276Y-54551293D01*
X152975176Y-54269782D01*
X154969123Y-56263730D01*
X154969123Y-56556250D01*
X155009058Y-56757016D01*
X155122783Y-56927217D01*
X155292984Y-57040942D01*
X155493750Y-57080877D01*
X155931250Y-57080877D01*
X156132016Y-57040942D01*
X156302217Y-56927217D01*
X156415942Y-56757016D01*
X156455877Y-56556250D01*
X156455877Y-56043750D01*
X156544123Y-56043750D01*
X156544123Y-56556250D01*
X156584058Y-56757016D01*
X156697783Y-56927217D01*
X156867984Y-57040942D01*
X156975001Y-57062229D01*
X156975000Y-57155176D01*
X156955484Y-57159058D01*
X156785283Y-57272783D01*
X156671558Y-57442984D01*
X156631623Y-57643750D01*
X156631623Y-58156250D01*
X156671558Y-58357016D01*
X156785283Y-58527217D01*
X156955484Y-58640942D01*
X157156250Y-58680877D01*
X157593750Y-58680877D01*
X157794516Y-58640942D01*
X157964717Y-58527217D01*
X158078442Y-58357016D01*
X158118377Y-58156250D01*
X158118377Y-57643750D01*
X158078442Y-57442984D01*
X157964717Y-57272783D01*
X157794516Y-57159058D01*
X157775000Y-57155176D01*
X157775000Y-56995516D01*
X157877217Y-56927217D01*
X157990942Y-56757016D01*
X158030877Y-56556250D01*
X158030877Y-56112288D01*
X158076791Y-56043572D01*
X158079689Y-56029000D01*
X159075000Y-56029000D01*
X159075000Y-56334673D01*
X159120672Y-56444936D01*
X159205063Y-56529328D01*
X159315326Y-56575000D01*
X159583500Y-56575000D01*
X159658500Y-56500000D01*
X159658500Y-55954000D01*
X159966500Y-55954000D01*
X159966500Y-56500000D01*
X160041500Y-56575000D01*
X160309674Y-56575000D01*
X160419937Y-56529328D01*
X160504328Y-56444936D01*
X160550000Y-56334673D01*
X160550000Y-56029000D01*
X160475000Y-55954000D01*
X159966500Y-55954000D01*
X159658500Y-55954000D01*
X159150000Y-55954000D01*
X159075000Y-56029000D01*
X158079689Y-56029000D01*
X158100000Y-55926894D01*
X158100000Y-55926893D01*
X158107836Y-55887501D01*
X158100000Y-55848108D01*
X158100000Y-55389950D01*
X158224623Y-55265327D01*
X159075000Y-55265327D01*
X159075000Y-55571000D01*
X159150000Y-55646000D01*
X159658500Y-55646000D01*
X159658500Y-55100000D01*
X159966500Y-55100000D01*
X159966500Y-55646000D01*
X160475000Y-55646000D01*
X160550000Y-55571000D01*
X160550000Y-55265327D01*
X160504328Y-55155064D01*
X160419937Y-55070672D01*
X160309674Y-55025000D01*
X160041500Y-55025000D01*
X159966500Y-55100000D01*
X159658500Y-55100000D01*
X159583500Y-55025000D01*
X159315326Y-55025000D01*
X159205063Y-55070672D01*
X159120672Y-55155064D01*
X159075000Y-55265327D01*
X158224623Y-55265327D01*
X158293432Y-55196518D01*
X158400000Y-54939239D01*
X158400000Y-54660761D01*
X158304002Y-54429000D01*
X159062500Y-54429000D01*
X159062500Y-54734673D01*
X159108172Y-54844936D01*
X159192563Y-54929328D01*
X159302826Y-54975000D01*
X159571000Y-54975000D01*
X159646000Y-54900000D01*
X159646000Y-54354000D01*
X159954000Y-54354000D01*
X159954000Y-54900000D01*
X160029000Y-54975000D01*
X160297174Y-54975000D01*
X160407437Y-54929328D01*
X160491828Y-54844936D01*
X160537500Y-54734673D01*
X160537500Y-54429000D01*
X160462500Y-54354000D01*
X159954000Y-54354000D01*
X159646000Y-54354000D01*
X159137500Y-54354000D01*
X159062500Y-54429000D01*
X158304002Y-54429000D01*
X158293432Y-54403482D01*
X158096518Y-54206568D01*
X157839239Y-54100000D01*
X157560761Y-54100000D01*
X157303482Y-54206568D01*
X157106568Y-54403482D01*
X157000000Y-54660761D01*
X157000000Y-54939239D01*
X157106568Y-55196518D01*
X157300001Y-55389951D01*
X157300001Y-55519123D01*
X157068750Y-55519123D01*
X156867984Y-55559058D01*
X156697783Y-55672783D01*
X156584058Y-55842984D01*
X156544123Y-56043750D01*
X156455877Y-56043750D01*
X156415942Y-55842984D01*
X156302217Y-55672783D01*
X156132016Y-55559058D01*
X155931250Y-55519123D01*
X155638730Y-55519123D01*
X153784934Y-53665327D01*
X159062500Y-53665327D01*
X159062500Y-53971000D01*
X159137500Y-54046000D01*
X159646000Y-54046000D01*
X159646000Y-53500000D01*
X159954000Y-53500000D01*
X159954000Y-54046000D01*
X160462500Y-54046000D01*
X160537500Y-53971000D01*
X160537500Y-53665327D01*
X160491828Y-53555064D01*
X160407437Y-53470672D01*
X160297174Y-53425000D01*
X160029000Y-53425000D01*
X159954000Y-53500000D01*
X159646000Y-53500000D01*
X159571000Y-53425000D01*
X159302826Y-53425000D01*
X159192563Y-53470672D01*
X159108172Y-53555064D01*
X159062500Y-53665327D01*
X153784934Y-53665327D01*
X153519606Y-53400000D01*
X166039394Y-53400000D01*
X166084792Y-53390970D01*
X166455011Y-53443989D01*
X166455011Y-53443989D01*
G37*
X166455011Y-53443989D02*
X166873441Y-53634237D01*
X167221657Y-53934280D01*
X167471666Y-54319997D01*
X167607082Y-54772796D01*
X167615316Y-54883607D01*
X167600000Y-54960607D01*
X167600001Y-71039394D01*
X167609031Y-71084789D01*
X167556011Y-71455011D01*
X167365762Y-71873443D01*
X167065718Y-72221659D01*
X166680003Y-72471666D01*
X166227204Y-72607082D01*
X166116394Y-72615316D01*
X166039394Y-72600000D01*
X155988834Y-72600000D01*
X156047980Y-72560480D01*
X156075876Y-72518730D01*
X156963730Y-71630877D01*
X157256250Y-71630877D01*
X157457016Y-71590942D01*
X157627217Y-71477217D01*
X157687164Y-71387500D01*
X158163259Y-71387500D01*
X158212500Y-71397295D01*
X158261741Y-71387500D01*
X158261743Y-71387500D01*
X158407590Y-71358489D01*
X158572980Y-71247980D01*
X158600877Y-71206229D01*
X158718729Y-71088377D01*
X158760480Y-71060480D01*
X158870989Y-70895090D01*
X158900000Y-70749243D01*
X158900000Y-70749242D01*
X158909795Y-70700001D01*
X158900000Y-70650759D01*
X158900000Y-69022288D01*
X160800501Y-69022288D01*
X160901363Y-69175898D01*
X161338394Y-69311206D01*
X161793939Y-69268971D01*
X162018637Y-69175898D01*
X162119499Y-69022288D01*
X161460000Y-68362789D01*
X160800501Y-69022288D01*
X158900000Y-69022288D01*
X158900000Y-68449243D01*
X158909795Y-68400000D01*
X158870989Y-68204910D01*
X158800891Y-68100000D01*
X158760480Y-68039520D01*
X158736346Y-68023394D01*
X160293794Y-68023394D01*
X160336029Y-68478939D01*
X160429102Y-68703637D01*
X160582712Y-68804499D01*
X161242211Y-68145000D01*
X161677789Y-68145000D01*
X162337288Y-68804499D01*
X162490898Y-68703637D01*
X162626206Y-68266606D01*
X162593724Y-67916251D01*
X162850000Y-67916251D01*
X162850000Y-68373749D01*
X163025077Y-68796423D01*
X163348577Y-69119923D01*
X163771251Y-69295000D01*
X164228749Y-69295000D01*
X164651423Y-69119923D01*
X164974923Y-68796423D01*
X165150000Y-68373749D01*
X165150000Y-67916251D01*
X164974923Y-67493577D01*
X164651423Y-67170077D01*
X164228749Y-66995000D01*
X163771251Y-66995000D01*
X163348577Y-67170077D01*
X163025077Y-67493577D01*
X162850000Y-67916251D01*
X162593724Y-67916251D01*
X162583971Y-67811061D01*
X162490898Y-67586363D01*
X162337288Y-67485501D01*
X161677789Y-68145000D01*
X161242211Y-68145000D01*
X160582712Y-67485501D01*
X160429102Y-67586363D01*
X160293794Y-68023394D01*
X158736346Y-68023394D01*
X158718733Y-68011626D01*
X157450000Y-66742894D01*
X157450000Y-66455877D01*
X158594000Y-66455877D01*
X158678055Y-66439157D01*
X158711615Y-66489384D01*
X158745017Y-66511703D01*
X159258299Y-67024985D01*
X159280616Y-67058385D01*
X159412928Y-67146792D01*
X159516581Y-67167410D01*
X159569000Y-67177837D01*
X159608394Y-67170001D01*
X160864659Y-67170001D01*
X160800501Y-67267712D01*
X161460000Y-67927211D01*
X162119499Y-67267712D01*
X162055341Y-67170001D01*
X162810605Y-67170001D01*
X162849999Y-67177837D01*
X162889393Y-67170001D01*
X163006071Y-67146792D01*
X163138383Y-67058385D01*
X163160702Y-67024982D01*
X163530434Y-66655250D01*
X163771251Y-66755000D01*
X164228749Y-66755000D01*
X164651423Y-66579923D01*
X164974923Y-66256423D01*
X165150000Y-65833749D01*
X165150000Y-65376251D01*
X164974923Y-64953577D01*
X164651423Y-64630077D01*
X164228749Y-64455000D01*
X163771251Y-64455000D01*
X163348577Y-64630077D01*
X163025077Y-64953577D01*
X162850000Y-65376251D01*
X162850000Y-65833749D01*
X162958536Y-66095779D01*
X162684315Y-66370001D01*
X162350437Y-66370001D01*
X162396615Y-66323823D01*
X162337290Y-66264498D01*
X162490898Y-66163637D01*
X162626206Y-65726606D01*
X162583971Y-65271061D01*
X162490898Y-65046363D01*
X162337288Y-64945501D01*
X161677789Y-65605000D01*
X161691931Y-65619142D01*
X161474142Y-65836931D01*
X161460000Y-65822789D01*
X161445858Y-65836931D01*
X161228069Y-65619142D01*
X161242211Y-65605000D01*
X160582712Y-64945501D01*
X160429102Y-65046363D01*
X160293794Y-65483394D01*
X160336029Y-65938939D01*
X160429102Y-66163637D01*
X160582710Y-66264498D01*
X160523385Y-66323823D01*
X160569563Y-66370001D01*
X159734685Y-66370001D01*
X159399999Y-66035316D01*
X159399999Y-64955391D01*
X159407835Y-64915997D01*
X159376790Y-64759925D01*
X159370157Y-64749998D01*
X159289979Y-64630001D01*
X160864659Y-64630001D01*
X160800501Y-64727712D01*
X161460000Y-65387211D01*
X162119499Y-64727712D01*
X162055341Y-64630001D01*
X162810605Y-64630001D01*
X162849999Y-64637837D01*
X162889393Y-64630001D01*
X163006071Y-64606792D01*
X163138383Y-64518385D01*
X163160701Y-64484983D01*
X163460699Y-64184986D01*
X163460701Y-64184983D01*
X163530434Y-64115250D01*
X163771251Y-64215000D01*
X164228749Y-64215000D01*
X164651423Y-64039923D01*
X164974923Y-63716423D01*
X165150000Y-63293749D01*
X165150000Y-62836251D01*
X164974923Y-62413577D01*
X164651423Y-62090077D01*
X164228749Y-61915000D01*
X163771251Y-61915000D01*
X163348577Y-62090077D01*
X163025077Y-62413577D01*
X162850000Y-62836251D01*
X162850000Y-63293749D01*
X162958536Y-63555779D01*
X162895017Y-63619299D01*
X162895014Y-63619301D01*
X162684315Y-63830001D01*
X162350437Y-63830001D01*
X162396615Y-63783823D01*
X162337290Y-63724498D01*
X162490898Y-63623637D01*
X162626206Y-63186606D01*
X162583971Y-62731061D01*
X162490898Y-62506363D01*
X162337290Y-62405502D01*
X162396615Y-62346177D01*
X162380437Y-62329999D01*
X162570607Y-62329999D01*
X162610001Y-62337835D01*
X162649395Y-62329999D01*
X162766073Y-62306790D01*
X162898385Y-62218383D01*
X162920703Y-62184981D01*
X163460699Y-61644987D01*
X163460703Y-61644981D01*
X163530434Y-61575250D01*
X163771251Y-61675000D01*
X164228749Y-61675000D01*
X164651423Y-61499923D01*
X164974923Y-61176423D01*
X165150000Y-60753749D01*
X165150000Y-60296251D01*
X164974923Y-59873577D01*
X164651423Y-59550077D01*
X164228749Y-59375000D01*
X163771251Y-59375000D01*
X163348577Y-59550077D01*
X163025077Y-59873577D01*
X162850000Y-60296251D01*
X162850000Y-60753749D01*
X162958536Y-61015779D01*
X162895019Y-61079297D01*
X162895013Y-61079301D01*
X162444317Y-61529999D01*
X162035643Y-61529999D01*
X162119499Y-61402288D01*
X161460000Y-60742789D01*
X160800501Y-61402288D01*
X160882538Y-61527228D01*
X160868605Y-61529999D01*
X160751927Y-61553208D01*
X160619615Y-61641615D01*
X160597300Y-61675012D01*
X160347307Y-61925006D01*
X159748388Y-61925006D01*
X159708995Y-61917170D01*
X159669603Y-61925006D01*
X159669602Y-61925006D01*
X159552924Y-61948215D01*
X159420612Y-62036622D01*
X159398297Y-62070019D01*
X158899877Y-62568440D01*
X158899877Y-62450000D01*
X158892563Y-62413230D01*
X158950072Y-62401791D01*
X159082384Y-62313384D01*
X159104703Y-62279981D01*
X160391596Y-60993089D01*
X160429102Y-61083637D01*
X160582712Y-61184499D01*
X161242211Y-60525000D01*
X161677789Y-60525000D01*
X162337288Y-61184499D01*
X162490898Y-61083637D01*
X162626206Y-60646606D01*
X162583971Y-60191061D01*
X162490898Y-59966363D01*
X162337288Y-59865501D01*
X161677789Y-60525000D01*
X161242211Y-60525000D01*
X161228069Y-60510858D01*
X161445858Y-60293069D01*
X161460000Y-60307211D01*
X162119499Y-59647712D01*
X162104586Y-59625000D01*
X162735606Y-59625000D01*
X162775000Y-59632836D01*
X162814394Y-59625000D01*
X162931072Y-59601791D01*
X163063384Y-59513384D01*
X163085703Y-59479981D01*
X163530434Y-59035250D01*
X163771251Y-59135000D01*
X164228749Y-59135000D01*
X164651423Y-58959923D01*
X164974923Y-58636423D01*
X165150000Y-58213749D01*
X165150000Y-57756251D01*
X164974923Y-57333577D01*
X164651423Y-57010077D01*
X164228749Y-56835000D01*
X163771251Y-56835000D01*
X163348577Y-57010077D01*
X163025077Y-57333577D01*
X162850000Y-57756251D01*
X162850000Y-58213749D01*
X162958536Y-58475779D01*
X162615877Y-58818439D01*
X162615877Y-57135000D01*
X162592593Y-57017946D01*
X162526288Y-56918712D01*
X162427054Y-56852407D01*
X162310000Y-56829123D01*
X161887500Y-56829123D01*
X161887500Y-56487164D01*
X161977217Y-56427217D01*
X162090942Y-56257016D01*
X162130877Y-56056250D01*
X162130877Y-55543750D01*
X162090942Y-55342984D01*
X161977217Y-55172783D01*
X161875000Y-55104484D01*
X161875000Y-54887164D01*
X161964717Y-54827217D01*
X162078442Y-54657016D01*
X162118377Y-54456250D01*
X162118377Y-53943750D01*
X162078442Y-53742984D01*
X161964717Y-53572783D01*
X161794516Y-53459058D01*
X161593750Y-53419123D01*
X161156250Y-53419123D01*
X160955484Y-53459058D01*
X160785283Y-53572783D01*
X160671558Y-53742984D01*
X160631623Y-53943750D01*
X160631623Y-54456250D01*
X160671558Y-54657016D01*
X160785283Y-54827217D01*
X160875000Y-54887164D01*
X160875001Y-55121188D01*
X160797783Y-55172783D01*
X160684058Y-55342984D01*
X160644123Y-55543750D01*
X160644123Y-56056250D01*
X160684058Y-56257016D01*
X160797783Y-56427217D01*
X160887500Y-56487164D01*
X160887500Y-56829123D01*
X160610000Y-56829123D01*
X160492946Y-56852407D01*
X160393712Y-56918712D01*
X160327407Y-57017946D01*
X160304123Y-57135000D01*
X160304123Y-58835000D01*
X160327407Y-58952054D01*
X160393712Y-59051288D01*
X160492946Y-59117593D01*
X160594516Y-59137797D01*
X159914016Y-59818298D01*
X159880617Y-59840614D01*
X159840937Y-59900000D01*
X159792209Y-59972927D01*
X159761164Y-60128998D01*
X159769001Y-60168396D01*
X159769000Y-60484315D01*
X158899877Y-61353439D01*
X158899877Y-61150000D01*
X158879985Y-61050000D01*
X158899877Y-60950000D01*
X158899877Y-60500000D01*
X158879985Y-60400000D01*
X158899877Y-60300000D01*
X158899877Y-59850000D01*
X158876593Y-59732946D01*
X158810288Y-59633712D01*
X158711054Y-59567407D01*
X158594000Y-59544123D01*
X157144000Y-59544123D01*
X157026946Y-59567407D01*
X156927712Y-59633712D01*
X156900125Y-59675000D01*
X154350383Y-59675000D01*
X152804383Y-58129000D01*
X155062500Y-58129000D01*
X155062500Y-58434673D01*
X155108172Y-58544936D01*
X155192563Y-58629328D01*
X155302826Y-58675000D01*
X155571000Y-58675000D01*
X155646000Y-58600000D01*
X155646000Y-58054000D01*
X155954000Y-58054000D01*
X155954000Y-58600000D01*
X156029000Y-58675000D01*
X156297174Y-58675000D01*
X156407437Y-58629328D01*
X156491828Y-58544936D01*
X156537500Y-58434673D01*
X156537500Y-58129000D01*
X156462500Y-58054000D01*
X155954000Y-58054000D01*
X155646000Y-58054000D01*
X155137500Y-58054000D01*
X155062500Y-58129000D01*
X152804383Y-58129000D01*
X152196708Y-57521326D01*
X152174389Y-57487923D01*
X152042077Y-57399516D01*
X151925399Y-57376307D01*
X151886005Y-57368471D01*
X151846611Y-57376307D01*
X151442717Y-57376307D01*
X151431737Y-57365327D01*
X155062500Y-57365327D01*
X155062500Y-57671000D01*
X155137500Y-57746000D01*
X155646000Y-57746000D01*
X155646000Y-57200000D01*
X155954000Y-57200000D01*
X155954000Y-57746000D01*
X156462500Y-57746000D01*
X156537500Y-57671000D01*
X156537500Y-57365327D01*
X156491828Y-57255064D01*
X156407437Y-57170672D01*
X156297174Y-57125000D01*
X156029000Y-57125000D01*
X155954000Y-57200000D01*
X155646000Y-57200000D01*
X155571000Y-57125000D01*
X155302826Y-57125000D01*
X155192563Y-57170672D01*
X155108172Y-57255064D01*
X155062500Y-57365327D01*
X151431737Y-57365327D01*
X151249285Y-57182875D01*
X150992006Y-57076307D01*
X150713528Y-57076307D01*
X150456249Y-57182875D01*
X150259335Y-57379789D01*
X150152767Y-57637068D01*
X150152767Y-57915546D01*
X150259335Y-58172825D01*
X150456249Y-58369739D01*
X150543504Y-58405881D01*
X150469000Y-58585751D01*
X150469000Y-58864229D01*
X150575568Y-59121508D01*
X150772482Y-59318422D01*
X151029761Y-59424990D01*
X151308239Y-59424990D01*
X151565518Y-59318422D01*
X151758950Y-59124990D01*
X152103306Y-59124990D01*
X152522438Y-59544123D01*
X151244000Y-59544123D01*
X151126946Y-59567407D01*
X151027712Y-59633712D01*
X150961407Y-59732946D01*
X150938123Y-59850000D01*
X150938123Y-60300000D01*
X150958015Y-60400000D01*
X150938123Y-60500000D01*
X150938123Y-60950000D01*
X150947926Y-60999281D01*
X150708239Y-60900000D01*
X150429761Y-60900000D01*
X150172482Y-61006568D01*
X150069000Y-61110050D01*
X150069000Y-61064394D01*
X150076836Y-61025000D01*
X150058678Y-60933712D01*
X150045791Y-60868928D01*
X149957384Y-60736616D01*
X149923985Y-60714300D01*
X149479703Y-60270018D01*
X149457384Y-60236616D01*
X149369000Y-60177560D01*
X149369000Y-59654000D01*
X149294000Y-59579000D01*
X148623000Y-59579000D01*
X148623000Y-59599000D01*
X148315000Y-59599000D01*
X148315000Y-59579000D01*
X148295000Y-59579000D01*
X148295000Y-59271000D01*
X148315000Y-59271000D01*
X148315000Y-58500000D01*
X148623000Y-58500000D01*
X148623000Y-59271000D01*
X149294000Y-59271000D01*
X149369000Y-59196000D01*
X149369000Y-58665326D01*
X149323328Y-58555063D01*
X149238936Y-58470672D01*
X149128673Y-58425000D01*
X148698000Y-58425000D01*
X148623000Y-58500000D01*
X148315000Y-58500000D01*
X148240000Y-58425000D01*
X147809327Y-58425000D01*
X147699064Y-58470672D01*
X147615623Y-58554112D01*
X147585288Y-58508712D01*
X147486054Y-58442407D01*
X147369000Y-58419123D01*
X147169000Y-58419123D01*
X147169000Y-58369824D01*
X147188516Y-58365942D01*
X147358717Y-58252217D01*
X147472442Y-58082016D01*
X147512377Y-57881250D01*
X147512377Y-57854000D01*
X147606500Y-57854000D01*
X147606500Y-58159673D01*
X147652172Y-58269936D01*
X147736563Y-58354328D01*
X147846826Y-58400000D01*
X148115000Y-58400000D01*
X148190000Y-58325000D01*
X148190000Y-57779000D01*
X148498000Y-57779000D01*
X148498000Y-58325000D01*
X148573000Y-58400000D01*
X148841174Y-58400000D01*
X148951437Y-58354328D01*
X149035828Y-58269936D01*
X149081500Y-58159673D01*
X149081500Y-57854000D01*
X149006500Y-57779000D01*
X148498000Y-57779000D01*
X148190000Y-57779000D01*
X147681500Y-57779000D01*
X147606500Y-57854000D01*
X147512377Y-57854000D01*
X147512377Y-57368750D01*
X147472442Y-57167984D01*
X147420554Y-57090327D01*
X147606500Y-57090327D01*
X147606500Y-57396000D01*
X147681500Y-57471000D01*
X148190000Y-57471000D01*
X148190000Y-56925000D01*
X148498000Y-56925000D01*
X148498000Y-57471000D01*
X149006500Y-57471000D01*
X149081500Y-57396000D01*
X149081500Y-57090327D01*
X149035828Y-56980064D01*
X148951437Y-56895672D01*
X148841174Y-56850000D01*
X148573000Y-56850000D01*
X148498000Y-56925000D01*
X148190000Y-56925000D01*
X148115000Y-56850000D01*
X147846826Y-56850000D01*
X147736563Y-56895672D01*
X147652172Y-56980064D01*
X147606500Y-57090327D01*
X147420554Y-57090327D01*
X147358717Y-56997783D01*
X147188516Y-56884058D01*
X146987750Y-56844123D01*
X146550250Y-56844123D01*
X146349484Y-56884058D01*
X146179283Y-56997783D01*
X146065558Y-57167984D01*
X146025623Y-57368750D01*
X146025623Y-57881250D01*
X146065558Y-58082016D01*
X146179283Y-58252217D01*
X146349484Y-58365942D01*
X146369000Y-58369824D01*
X146369000Y-58419123D01*
X146169000Y-58419123D01*
X146051946Y-58442407D01*
X145952712Y-58508712D01*
X145886407Y-58607946D01*
X145863123Y-58725000D01*
X145863123Y-60125000D01*
X145886407Y-60242054D01*
X145952712Y-60341288D01*
X146051946Y-60407593D01*
X146169000Y-60430877D01*
X146382225Y-60430877D01*
X146392209Y-60481071D01*
X146400800Y-60493928D01*
X146480617Y-60613384D01*
X146498002Y-60625000D01*
X146109327Y-60625000D01*
X145999064Y-60670672D01*
X145914672Y-60755063D01*
X145869000Y-60865326D01*
X145869000Y-61359315D01*
X145724703Y-61215019D01*
X145702385Y-61181617D01*
X145580877Y-61100429D01*
X145580877Y-60870000D01*
X145560985Y-60770000D01*
X145580877Y-60670000D01*
X145580877Y-60370000D01*
X145560985Y-60270000D01*
X145580877Y-60170000D01*
X145580877Y-59570000D01*
X145560113Y-59465615D01*
X145575000Y-59429674D01*
X145575000Y-59370000D01*
X145500000Y-59295000D01*
X145474264Y-59295000D01*
X145529328Y-59239937D01*
X145575000Y-59129674D01*
X145575000Y-59010326D01*
X145529328Y-58900063D01*
X145474264Y-58845000D01*
X145500000Y-58845000D01*
X145575000Y-58770000D01*
X145575000Y-58710326D01*
X145529328Y-58600063D01*
X145444936Y-58515672D01*
X145388156Y-58492153D01*
X145474580Y-58406791D01*
X145551282Y-58224911D01*
X145508455Y-58104000D01*
X144404000Y-58104000D01*
X144404000Y-58124000D01*
X144096000Y-58124000D01*
X144096000Y-58104000D01*
X142991545Y-58104000D01*
X142948718Y-58224911D01*
X143025420Y-58406791D01*
X143251576Y-58630170D01*
X143546000Y-58750000D01*
X143925000Y-58750000D01*
X143925000Y-58770000D01*
X144000000Y-58845000D01*
X144025736Y-58845000D01*
X143970672Y-58900063D01*
X143925000Y-59010326D01*
X143925000Y-59129674D01*
X143970672Y-59239937D01*
X144025736Y-59295000D01*
X144000000Y-59295000D01*
X143925000Y-59370000D01*
X143925000Y-59400000D01*
X143589950Y-59400000D01*
X143496518Y-59306568D01*
X143239239Y-59200000D01*
X142960761Y-59200000D01*
X142703482Y-59306568D01*
X142506568Y-59503482D01*
X142400000Y-59760761D01*
X142400000Y-59834316D01*
X142325000Y-59759316D01*
X142325000Y-57675089D01*
X142948718Y-57675089D01*
X142991545Y-57796000D01*
X144096000Y-57796000D01*
X144096000Y-57150000D01*
X144404000Y-57150000D01*
X144404000Y-57796000D01*
X145508455Y-57796000D01*
X145551282Y-57675089D01*
X145474580Y-57493209D01*
X145248424Y-57269830D01*
X144954000Y-57150000D01*
X144404000Y-57150000D01*
X144096000Y-57150000D01*
X143546000Y-57150000D01*
X143251576Y-57269830D01*
X143025420Y-57493209D01*
X142948718Y-57675089D01*
X142325000Y-57675089D01*
X142325000Y-55944824D01*
X142344516Y-55940942D01*
X142514717Y-55827217D01*
X142628442Y-55657016D01*
X142668377Y-55456250D01*
X142668377Y-55429000D01*
X142762500Y-55429000D01*
X142762500Y-55734673D01*
X142808172Y-55844936D01*
X142892563Y-55929328D01*
X143002826Y-55975000D01*
X143271000Y-55975000D01*
X143346000Y-55900000D01*
X143346000Y-55354000D01*
X143654000Y-55354000D01*
X143654000Y-55900000D01*
X143729000Y-55975000D01*
X143997174Y-55975000D01*
X144107437Y-55929328D01*
X144191828Y-55844936D01*
X144237500Y-55734673D01*
X144237500Y-55429000D01*
X144162500Y-55354000D01*
X143654000Y-55354000D01*
X143346000Y-55354000D01*
X142837500Y-55354000D01*
X142762500Y-55429000D01*
X142668377Y-55429000D01*
X142668377Y-54943750D01*
X142628442Y-54742984D01*
X142576554Y-54665327D01*
X142762500Y-54665327D01*
X142762500Y-54971000D01*
X142837500Y-55046000D01*
X143346000Y-55046000D01*
X143346000Y-54500000D01*
X143654000Y-54500000D01*
X143654000Y-55046000D01*
X144162500Y-55046000D01*
X144237500Y-54971000D01*
X144237500Y-54665327D01*
X144191828Y-54555064D01*
X144107437Y-54470672D01*
X143997174Y-54425000D01*
X143729000Y-54425000D01*
X143654000Y-54500000D01*
X143346000Y-54500000D01*
X143271000Y-54425000D01*
X143002826Y-54425000D01*
X142892563Y-54470672D01*
X142808172Y-54555064D01*
X142762500Y-54665327D01*
X142576554Y-54665327D01*
X142514717Y-54572783D01*
X142344516Y-54459058D01*
X142143750Y-54419123D01*
X141706250Y-54419123D01*
X141631741Y-54433944D01*
X141817685Y-54248000D01*
X144106316Y-54248000D01*
X145142000Y-55283686D01*
X145142001Y-55742604D01*
X145134164Y-55782002D01*
X145165209Y-55938073D01*
X145165210Y-55938074D01*
X145253617Y-56070386D01*
X145287016Y-56092702D01*
X145674297Y-56479984D01*
X145696614Y-56513384D01*
X145828926Y-56601791D01*
X145984998Y-56632836D01*
X146024392Y-56625000D01*
X150815606Y-56625000D01*
X150855000Y-56632836D01*
X150894394Y-56625000D01*
X151011072Y-56601791D01*
X151143384Y-56513384D01*
X151165703Y-56479981D01*
X151590000Y-56055685D01*
X151631293Y-56083276D01*
X151966739Y-56150000D01*
X152193261Y-56150000D01*
X152528707Y-56083276D01*
X152909103Y-55829103D01*
X153163276Y-55448707D01*
X153252529Y-55000000D01*
X153163276Y-54551293D01*
X152975176Y-54269782D01*
X154969123Y-56263730D01*
X154969123Y-56556250D01*
X155009058Y-56757016D01*
X155122783Y-56927217D01*
X155292984Y-57040942D01*
X155493750Y-57080877D01*
X155931250Y-57080877D01*
X156132016Y-57040942D01*
X156302217Y-56927217D01*
X156415942Y-56757016D01*
X156455877Y-56556250D01*
X156455877Y-56043750D01*
X156544123Y-56043750D01*
X156544123Y-56556250D01*
X156584058Y-56757016D01*
X156697783Y-56927217D01*
X156867984Y-57040942D01*
X156975001Y-57062229D01*
X156975000Y-57155176D01*
X156955484Y-57159058D01*
X156785283Y-57272783D01*
X156671558Y-57442984D01*
X156631623Y-57643750D01*
X156631623Y-58156250D01*
X156671558Y-58357016D01*
X156785283Y-58527217D01*
X156955484Y-58640942D01*
X157156250Y-58680877D01*
X157593750Y-58680877D01*
X157794516Y-58640942D01*
X157964717Y-58527217D01*
X158078442Y-58357016D01*
X158118377Y-58156250D01*
X158118377Y-57643750D01*
X158078442Y-57442984D01*
X157964717Y-57272783D01*
X157794516Y-57159058D01*
X157775000Y-57155176D01*
X157775000Y-56995516D01*
X157877217Y-56927217D01*
X157990942Y-56757016D01*
X158030877Y-56556250D01*
X158030877Y-56112288D01*
X158076791Y-56043572D01*
X158079689Y-56029000D01*
X159075000Y-56029000D01*
X159075000Y-56334673D01*
X159120672Y-56444936D01*
X159205063Y-56529328D01*
X159315326Y-56575000D01*
X159583500Y-56575000D01*
X159658500Y-56500000D01*
X159658500Y-55954000D01*
X159966500Y-55954000D01*
X159966500Y-56500000D01*
X160041500Y-56575000D01*
X160309674Y-56575000D01*
X160419937Y-56529328D01*
X160504328Y-56444936D01*
X160550000Y-56334673D01*
X160550000Y-56029000D01*
X160475000Y-55954000D01*
X159966500Y-55954000D01*
X159658500Y-55954000D01*
X159150000Y-55954000D01*
X159075000Y-56029000D01*
X158079689Y-56029000D01*
X158100000Y-55926894D01*
X158100000Y-55926893D01*
X158107836Y-55887501D01*
X158100000Y-55848108D01*
X158100000Y-55389950D01*
X158224623Y-55265327D01*
X159075000Y-55265327D01*
X159075000Y-55571000D01*
X159150000Y-55646000D01*
X159658500Y-55646000D01*
X159658500Y-55100000D01*
X159966500Y-55100000D01*
X159966500Y-55646000D01*
X160475000Y-55646000D01*
X160550000Y-55571000D01*
X160550000Y-55265327D01*
X160504328Y-55155064D01*
X160419937Y-55070672D01*
X160309674Y-55025000D01*
X160041500Y-55025000D01*
X159966500Y-55100000D01*
X159658500Y-55100000D01*
X159583500Y-55025000D01*
X159315326Y-55025000D01*
X159205063Y-55070672D01*
X159120672Y-55155064D01*
X159075000Y-55265327D01*
X158224623Y-55265327D01*
X158293432Y-55196518D01*
X158400000Y-54939239D01*
X158400000Y-54660761D01*
X158304002Y-54429000D01*
X159062500Y-54429000D01*
X159062500Y-54734673D01*
X159108172Y-54844936D01*
X159192563Y-54929328D01*
X159302826Y-54975000D01*
X159571000Y-54975000D01*
X159646000Y-54900000D01*
X159646000Y-54354000D01*
X159954000Y-54354000D01*
X159954000Y-54900000D01*
X160029000Y-54975000D01*
X160297174Y-54975000D01*
X160407437Y-54929328D01*
X160491828Y-54844936D01*
X160537500Y-54734673D01*
X160537500Y-54429000D01*
X160462500Y-54354000D01*
X159954000Y-54354000D01*
X159646000Y-54354000D01*
X159137500Y-54354000D01*
X159062500Y-54429000D01*
X158304002Y-54429000D01*
X158293432Y-54403482D01*
X158096518Y-54206568D01*
X157839239Y-54100000D01*
X157560761Y-54100000D01*
X157303482Y-54206568D01*
X157106568Y-54403482D01*
X157000000Y-54660761D01*
X157000000Y-54939239D01*
X157106568Y-55196518D01*
X157300001Y-55389951D01*
X157300001Y-55519123D01*
X157068750Y-55519123D01*
X156867984Y-55559058D01*
X156697783Y-55672783D01*
X156584058Y-55842984D01*
X156544123Y-56043750D01*
X156455877Y-56043750D01*
X156415942Y-55842984D01*
X156302217Y-55672783D01*
X156132016Y-55559058D01*
X155931250Y-55519123D01*
X155638730Y-55519123D01*
X153784934Y-53665327D01*
X159062500Y-53665327D01*
X159062500Y-53971000D01*
X159137500Y-54046000D01*
X159646000Y-54046000D01*
X159646000Y-53500000D01*
X159954000Y-53500000D01*
X159954000Y-54046000D01*
X160462500Y-54046000D01*
X160537500Y-53971000D01*
X160537500Y-53665327D01*
X160491828Y-53555064D01*
X160407437Y-53470672D01*
X160297174Y-53425000D01*
X160029000Y-53425000D01*
X159954000Y-53500000D01*
X159646000Y-53500000D01*
X159571000Y-53425000D01*
X159302826Y-53425000D01*
X159192563Y-53470672D01*
X159108172Y-53555064D01*
X159062500Y-53665327D01*
X153784934Y-53665327D01*
X153519606Y-53400000D01*
X166039394Y-53400000D01*
X166084792Y-53390970D01*
X166455011Y-53443989D01*
G36*
X134960606Y-53400000D02*
X147892893Y-53400000D01*
X147448770Y-53844123D01*
X146150000Y-53844123D01*
X146032946Y-53867407D01*
X145933712Y-53933712D01*
X145867407Y-54032946D01*
X145844123Y-54150000D01*
X145844123Y-54850178D01*
X145830384Y-54829616D01*
X145796988Y-54807302D01*
X144582703Y-53593018D01*
X144560384Y-53559616D01*
X144428072Y-53471209D01*
X144311394Y-53448000D01*
X144272000Y-53440164D01*
X144232606Y-53448000D01*
X141691394Y-53448000D01*
X141652000Y-53440164D01*
X141612606Y-53448000D01*
X141495928Y-53471209D01*
X141363616Y-53559616D01*
X141341299Y-53593016D01*
X140475459Y-54458856D01*
X140363516Y-54384058D01*
X140162750Y-54344123D01*
X139725250Y-54344123D01*
X139524484Y-54384058D01*
X139354283Y-54497783D01*
X139240558Y-54667984D01*
X139200623Y-54868750D01*
X139200623Y-55381250D01*
X139240558Y-55582016D01*
X139354283Y-55752217D01*
X139524484Y-55865942D01*
X139600001Y-55880963D01*
X139600000Y-68754118D01*
X139449484Y-68784058D01*
X139279283Y-68897783D01*
X139165558Y-69067984D01*
X139125623Y-69268750D01*
X139125623Y-69781250D01*
X139165558Y-69982016D01*
X139279283Y-70152217D01*
X139449484Y-70265942D01*
X139650250Y-70305877D01*
X139675000Y-70305877D01*
X139675000Y-71035606D01*
X139667164Y-71075000D01*
X139675000Y-71114393D01*
X139698209Y-71231071D01*
X139786616Y-71363384D01*
X139820019Y-71385703D01*
X140489299Y-72054984D01*
X140511616Y-72088384D01*
X140643928Y-72176791D01*
X140800000Y-72207836D01*
X140839394Y-72200000D01*
X142660606Y-72200000D01*
X142700000Y-72207836D01*
X142739394Y-72200000D01*
X142856072Y-72176791D01*
X142988384Y-72088384D01*
X143010702Y-72054982D01*
X143654987Y-71410699D01*
X143688384Y-71388384D01*
X143776791Y-71256072D01*
X143800000Y-71139394D01*
X143807836Y-71100001D01*
X143800000Y-71060608D01*
X143800000Y-68265684D01*
X144028285Y-68037400D01*
X143911437Y-68212275D01*
X143869123Y-68425000D01*
X143869123Y-70575000D01*
X143911437Y-70787725D01*
X144031936Y-70968064D01*
X144212275Y-71088563D01*
X144425000Y-71130877D01*
X145175000Y-71130877D01*
X145387725Y-71088563D01*
X145568064Y-70968064D01*
X145688563Y-70787725D01*
X145730877Y-70575000D01*
X145730877Y-70412983D01*
X147836625Y-72518732D01*
X147864520Y-72560480D01*
X147923666Y-72600000D01*
X134960606Y-72600000D01*
X134915208Y-72609030D01*
X134544989Y-72556011D01*
X134126557Y-72365762D01*
X133778341Y-72065718D01*
X133528334Y-71680003D01*
X133392918Y-71227204D01*
X133384684Y-71116394D01*
X133400000Y-71039394D01*
X133400000Y-69068750D01*
X133638123Y-69068750D01*
X133638123Y-69981250D01*
X133679961Y-70191583D01*
X133799105Y-70369895D01*
X133969001Y-70483415D01*
X133969000Y-70835050D01*
X133775568Y-71028482D01*
X133669000Y-71285761D01*
X133669000Y-71564239D01*
X133775568Y-71821518D01*
X133972482Y-72018432D01*
X134229761Y-72125000D01*
X134508239Y-72125000D01*
X134765518Y-72018432D01*
X134962432Y-71821518D01*
X135069000Y-71564239D01*
X135069000Y-71285761D01*
X134962432Y-71028482D01*
X134769000Y-70835050D01*
X134769000Y-70512229D01*
X134885583Y-70489039D01*
X135063895Y-70369895D01*
X135183039Y-70191583D01*
X135224877Y-69981250D01*
X135224877Y-69068750D01*
X135513123Y-69068750D01*
X135513123Y-69981250D01*
X135554961Y-70191583D01*
X135674105Y-70369895D01*
X135852417Y-70489039D01*
X136062750Y-70530877D01*
X136550250Y-70530877D01*
X136760583Y-70489039D01*
X136938895Y-70369895D01*
X137058039Y-70191583D01*
X137099877Y-69981250D01*
X137099877Y-69900000D01*
X137574244Y-69900000D01*
X137590558Y-69982016D01*
X137704283Y-70152217D01*
X137874484Y-70265942D01*
X138075250Y-70305877D01*
X138512750Y-70305877D01*
X138713516Y-70265942D01*
X138883717Y-70152217D01*
X138997442Y-69982016D01*
X139037377Y-69781250D01*
X139037377Y-69268750D01*
X138997442Y-69067984D01*
X138883717Y-68897783D01*
X138713516Y-68784058D01*
X138512750Y-68744123D01*
X138075250Y-68744123D01*
X137874484Y-68784058D01*
X137704283Y-68897783D01*
X137590558Y-69067984D01*
X137584190Y-69100000D01*
X137099877Y-69100000D01*
X137099877Y-69068750D01*
X137058039Y-68858417D01*
X136938895Y-68680105D01*
X136760583Y-68560961D01*
X136550250Y-68519123D01*
X136062750Y-68519123D01*
X135852417Y-68560961D01*
X135674105Y-68680105D01*
X135554961Y-68858417D01*
X135513123Y-69068750D01*
X135224877Y-69068750D01*
X135183039Y-68858417D01*
X135063895Y-68680105D01*
X134885583Y-68560961D01*
X134675250Y-68519123D01*
X134187750Y-68519123D01*
X133977417Y-68560961D01*
X133799105Y-68680105D01*
X133679961Y-68858417D01*
X133638123Y-69068750D01*
X133400000Y-69068750D01*
X133400000Y-67034911D01*
X133748718Y-67034911D01*
X133825420Y-67216791D01*
X134051576Y-67440170D01*
X134346000Y-67560000D01*
X134746000Y-67560000D01*
X134746000Y-66914000D01*
X135054000Y-66914000D01*
X135054000Y-67560000D01*
X135454000Y-67560000D01*
X135748424Y-67440170D01*
X135974580Y-67216791D01*
X136051282Y-67034911D01*
X136008455Y-66914000D01*
X135054000Y-66914000D01*
X134746000Y-66914000D01*
X133791545Y-66914000D01*
X133748718Y-67034911D01*
X133400000Y-67034911D01*
X133400000Y-66960606D01*
X133376791Y-66843928D01*
X133375000Y-66841248D01*
X133375000Y-66658752D01*
X133376791Y-66656072D01*
X133400000Y-66539394D01*
X133400000Y-66485089D01*
X133748718Y-66485089D01*
X133791545Y-66606000D01*
X134746000Y-66606000D01*
X134746000Y-65960000D01*
X135054000Y-65960000D01*
X135054000Y-66606000D01*
X136008455Y-66606000D01*
X136051282Y-66485089D01*
X135974580Y-66303209D01*
X135748424Y-66079830D01*
X135454000Y-65960000D01*
X135054000Y-65960000D01*
X134746000Y-65960000D01*
X134346000Y-65960000D01*
X134051576Y-66079830D01*
X133825420Y-66303209D01*
X133748718Y-66485089D01*
X133400000Y-66485089D01*
X133400000Y-58224911D01*
X133748718Y-58224911D01*
X133825420Y-58406791D01*
X134051576Y-58630170D01*
X134346000Y-58750000D01*
X134746000Y-58750000D01*
X134746000Y-58104000D01*
X135054000Y-58104000D01*
X135054000Y-58750000D01*
X135454000Y-58750000D01*
X135748424Y-58630170D01*
X135974580Y-58406791D01*
X136051282Y-58224911D01*
X136008455Y-58104000D01*
X135054000Y-58104000D01*
X134746000Y-58104000D01*
X133791545Y-58104000D01*
X133748718Y-58224911D01*
X133400000Y-58224911D01*
X133400000Y-57675089D01*
X133748718Y-57675089D01*
X133791545Y-57796000D01*
X134746000Y-57796000D01*
X134746000Y-57776000D01*
X135054000Y-57776000D01*
X135054000Y-57796000D01*
X136008455Y-57796000D01*
X136051282Y-57675089D01*
X135974580Y-57493209D01*
X135748424Y-57269830D01*
X135454000Y-57150000D01*
X135033950Y-57150000D01*
X135062432Y-57121518D01*
X135169000Y-56864239D01*
X135169000Y-56585761D01*
X135062432Y-56328482D01*
X134869000Y-56135050D01*
X134869000Y-56130877D01*
X134937750Y-56130877D01*
X135148083Y-56089039D01*
X135326395Y-55969895D01*
X135445539Y-55791583D01*
X135487377Y-55581250D01*
X135487377Y-54668750D01*
X135775623Y-54668750D01*
X135775623Y-55581250D01*
X135817461Y-55791583D01*
X135936605Y-55969895D01*
X136114917Y-56089039D01*
X136325250Y-56130877D01*
X136812750Y-56130877D01*
X137023083Y-56089039D01*
X137201395Y-55969895D01*
X137320539Y-55791583D01*
X137362377Y-55581250D01*
X137362377Y-55525000D01*
X137654217Y-55525000D01*
X137665558Y-55582016D01*
X137779283Y-55752217D01*
X137949484Y-55865942D01*
X138150250Y-55905877D01*
X138587750Y-55905877D01*
X138788516Y-55865942D01*
X138958717Y-55752217D01*
X139072442Y-55582016D01*
X139112377Y-55381250D01*
X139112377Y-54868750D01*
X139072442Y-54667984D01*
X138958717Y-54497783D01*
X138788516Y-54384058D01*
X138587750Y-54344123D01*
X138150250Y-54344123D01*
X137949484Y-54384058D01*
X137779283Y-54497783D01*
X137665558Y-54667984D01*
X137654217Y-54725000D01*
X137362377Y-54725000D01*
X137362377Y-54668750D01*
X137320539Y-54458417D01*
X137201395Y-54280105D01*
X137023083Y-54160961D01*
X136812750Y-54119123D01*
X136325250Y-54119123D01*
X136114917Y-54160961D01*
X135936605Y-54280105D01*
X135817461Y-54458417D01*
X135775623Y-54668750D01*
X135487377Y-54668750D01*
X135445539Y-54458417D01*
X135326395Y-54280105D01*
X135148083Y-54160961D01*
X134937750Y-54119123D01*
X134450250Y-54119123D01*
X134239917Y-54160961D01*
X134061605Y-54280105D01*
X133942461Y-54458417D01*
X133900623Y-54668750D01*
X133900623Y-55581250D01*
X133942461Y-55791583D01*
X134061605Y-55969895D01*
X134069001Y-55974837D01*
X134069000Y-56135050D01*
X133875568Y-56328482D01*
X133769000Y-56585761D01*
X133769000Y-56864239D01*
X133875568Y-57121518D01*
X134037642Y-57283592D01*
X133825420Y-57493209D01*
X133748718Y-57675089D01*
X133400000Y-57675089D01*
X133400000Y-54960606D01*
X133390970Y-54915208D01*
X133443989Y-54544989D01*
X133634237Y-54126559D01*
X133934280Y-53778343D01*
X134319997Y-53528334D01*
X134772796Y-53392918D01*
X134883606Y-53384684D01*
X134960606Y-53400000D01*
X134960606Y-53400000D01*
G37*
X134960606Y-53400000D02*
X147892893Y-53400000D01*
X147448770Y-53844123D01*
X146150000Y-53844123D01*
X146032946Y-53867407D01*
X145933712Y-53933712D01*
X145867407Y-54032946D01*
X145844123Y-54150000D01*
X145844123Y-54850178D01*
X145830384Y-54829616D01*
X145796988Y-54807302D01*
X144582703Y-53593018D01*
X144560384Y-53559616D01*
X144428072Y-53471209D01*
X144311394Y-53448000D01*
X144272000Y-53440164D01*
X144232606Y-53448000D01*
X141691394Y-53448000D01*
X141652000Y-53440164D01*
X141612606Y-53448000D01*
X141495928Y-53471209D01*
X141363616Y-53559616D01*
X141341299Y-53593016D01*
X140475459Y-54458856D01*
X140363516Y-54384058D01*
X140162750Y-54344123D01*
X139725250Y-54344123D01*
X139524484Y-54384058D01*
X139354283Y-54497783D01*
X139240558Y-54667984D01*
X139200623Y-54868750D01*
X139200623Y-55381250D01*
X139240558Y-55582016D01*
X139354283Y-55752217D01*
X139524484Y-55865942D01*
X139600001Y-55880963D01*
X139600000Y-68754118D01*
X139449484Y-68784058D01*
X139279283Y-68897783D01*
X139165558Y-69067984D01*
X139125623Y-69268750D01*
X139125623Y-69781250D01*
X139165558Y-69982016D01*
X139279283Y-70152217D01*
X139449484Y-70265942D01*
X139650250Y-70305877D01*
X139675000Y-70305877D01*
X139675000Y-71035606D01*
X139667164Y-71075000D01*
X139675000Y-71114393D01*
X139698209Y-71231071D01*
X139786616Y-71363384D01*
X139820019Y-71385703D01*
X140489299Y-72054984D01*
X140511616Y-72088384D01*
X140643928Y-72176791D01*
X140800000Y-72207836D01*
X140839394Y-72200000D01*
X142660606Y-72200000D01*
X142700000Y-72207836D01*
X142739394Y-72200000D01*
X142856072Y-72176791D01*
X142988384Y-72088384D01*
X143010702Y-72054982D01*
X143654987Y-71410699D01*
X143688384Y-71388384D01*
X143776791Y-71256072D01*
X143800000Y-71139394D01*
X143807836Y-71100001D01*
X143800000Y-71060608D01*
X143800000Y-68265684D01*
X144028285Y-68037400D01*
X143911437Y-68212275D01*
X143869123Y-68425000D01*
X143869123Y-70575000D01*
X143911437Y-70787725D01*
X144031936Y-70968064D01*
X144212275Y-71088563D01*
X144425000Y-71130877D01*
X145175000Y-71130877D01*
X145387725Y-71088563D01*
X145568064Y-70968064D01*
X145688563Y-70787725D01*
X145730877Y-70575000D01*
X145730877Y-70412983D01*
X147836625Y-72518732D01*
X147864520Y-72560480D01*
X147923666Y-72600000D01*
X134960606Y-72600000D01*
X134915208Y-72609030D01*
X134544989Y-72556011D01*
X134126557Y-72365762D01*
X133778341Y-72065718D01*
X133528334Y-71680003D01*
X133392918Y-71227204D01*
X133384684Y-71116394D01*
X133400000Y-71039394D01*
X133400000Y-69068750D01*
X133638123Y-69068750D01*
X133638123Y-69981250D01*
X133679961Y-70191583D01*
X133799105Y-70369895D01*
X133969001Y-70483415D01*
X133969000Y-70835050D01*
X133775568Y-71028482D01*
X133669000Y-71285761D01*
X133669000Y-71564239D01*
X133775568Y-71821518D01*
X133972482Y-72018432D01*
X134229761Y-72125000D01*
X134508239Y-72125000D01*
X134765518Y-72018432D01*
X134962432Y-71821518D01*
X135069000Y-71564239D01*
X135069000Y-71285761D01*
X134962432Y-71028482D01*
X134769000Y-70835050D01*
X134769000Y-70512229D01*
X134885583Y-70489039D01*
X135063895Y-70369895D01*
X135183039Y-70191583D01*
X135224877Y-69981250D01*
X135224877Y-69068750D01*
X135513123Y-69068750D01*
X135513123Y-69981250D01*
X135554961Y-70191583D01*
X135674105Y-70369895D01*
X135852417Y-70489039D01*
X136062750Y-70530877D01*
X136550250Y-70530877D01*
X136760583Y-70489039D01*
X136938895Y-70369895D01*
X137058039Y-70191583D01*
X137099877Y-69981250D01*
X137099877Y-69900000D01*
X137574244Y-69900000D01*
X137590558Y-69982016D01*
X137704283Y-70152217D01*
X137874484Y-70265942D01*
X138075250Y-70305877D01*
X138512750Y-70305877D01*
X138713516Y-70265942D01*
X138883717Y-70152217D01*
X138997442Y-69982016D01*
X139037377Y-69781250D01*
X139037377Y-69268750D01*
X138997442Y-69067984D01*
X138883717Y-68897783D01*
X138713516Y-68784058D01*
X138512750Y-68744123D01*
X138075250Y-68744123D01*
X137874484Y-68784058D01*
X137704283Y-68897783D01*
X137590558Y-69067984D01*
X137584190Y-69100000D01*
X137099877Y-69100000D01*
X137099877Y-69068750D01*
X137058039Y-68858417D01*
X136938895Y-68680105D01*
X136760583Y-68560961D01*
X136550250Y-68519123D01*
X136062750Y-68519123D01*
X135852417Y-68560961D01*
X135674105Y-68680105D01*
X135554961Y-68858417D01*
X135513123Y-69068750D01*
X135224877Y-69068750D01*
X135183039Y-68858417D01*
X135063895Y-68680105D01*
X134885583Y-68560961D01*
X134675250Y-68519123D01*
X134187750Y-68519123D01*
X133977417Y-68560961D01*
X133799105Y-68680105D01*
X133679961Y-68858417D01*
X133638123Y-69068750D01*
X133400000Y-69068750D01*
X133400000Y-67034911D01*
X133748718Y-67034911D01*
X133825420Y-67216791D01*
X134051576Y-67440170D01*
X134346000Y-67560000D01*
X134746000Y-67560000D01*
X134746000Y-66914000D01*
X135054000Y-66914000D01*
X135054000Y-67560000D01*
X135454000Y-67560000D01*
X135748424Y-67440170D01*
X135974580Y-67216791D01*
X136051282Y-67034911D01*
X136008455Y-66914000D01*
X135054000Y-66914000D01*
X134746000Y-66914000D01*
X133791545Y-66914000D01*
X133748718Y-67034911D01*
X133400000Y-67034911D01*
X133400000Y-66960606D01*
X133376791Y-66843928D01*
X133375000Y-66841248D01*
X133375000Y-66658752D01*
X133376791Y-66656072D01*
X133400000Y-66539394D01*
X133400000Y-66485089D01*
X133748718Y-66485089D01*
X133791545Y-66606000D01*
X134746000Y-66606000D01*
X134746000Y-65960000D01*
X135054000Y-65960000D01*
X135054000Y-66606000D01*
X136008455Y-66606000D01*
X136051282Y-66485089D01*
X135974580Y-66303209D01*
X135748424Y-66079830D01*
X135454000Y-65960000D01*
X135054000Y-65960000D01*
X134746000Y-65960000D01*
X134346000Y-65960000D01*
X134051576Y-66079830D01*
X133825420Y-66303209D01*
X133748718Y-66485089D01*
X133400000Y-66485089D01*
X133400000Y-58224911D01*
X133748718Y-58224911D01*
X133825420Y-58406791D01*
X134051576Y-58630170D01*
X134346000Y-58750000D01*
X134746000Y-58750000D01*
X134746000Y-58104000D01*
X135054000Y-58104000D01*
X135054000Y-58750000D01*
X135454000Y-58750000D01*
X135748424Y-58630170D01*
X135974580Y-58406791D01*
X136051282Y-58224911D01*
X136008455Y-58104000D01*
X135054000Y-58104000D01*
X134746000Y-58104000D01*
X133791545Y-58104000D01*
X133748718Y-58224911D01*
X133400000Y-58224911D01*
X133400000Y-57675089D01*
X133748718Y-57675089D01*
X133791545Y-57796000D01*
X134746000Y-57796000D01*
X134746000Y-57776000D01*
X135054000Y-57776000D01*
X135054000Y-57796000D01*
X136008455Y-57796000D01*
X136051282Y-57675089D01*
X135974580Y-57493209D01*
X135748424Y-57269830D01*
X135454000Y-57150000D01*
X135033950Y-57150000D01*
X135062432Y-57121518D01*
X135169000Y-56864239D01*
X135169000Y-56585761D01*
X135062432Y-56328482D01*
X134869000Y-56135050D01*
X134869000Y-56130877D01*
X134937750Y-56130877D01*
X135148083Y-56089039D01*
X135326395Y-55969895D01*
X135445539Y-55791583D01*
X135487377Y-55581250D01*
X135487377Y-54668750D01*
X135775623Y-54668750D01*
X135775623Y-55581250D01*
X135817461Y-55791583D01*
X135936605Y-55969895D01*
X136114917Y-56089039D01*
X136325250Y-56130877D01*
X136812750Y-56130877D01*
X137023083Y-56089039D01*
X137201395Y-55969895D01*
X137320539Y-55791583D01*
X137362377Y-55581250D01*
X137362377Y-55525000D01*
X137654217Y-55525000D01*
X137665558Y-55582016D01*
X137779283Y-55752217D01*
X137949484Y-55865942D01*
X138150250Y-55905877D01*
X138587750Y-55905877D01*
X138788516Y-55865942D01*
X138958717Y-55752217D01*
X139072442Y-55582016D01*
X139112377Y-55381250D01*
X139112377Y-54868750D01*
X139072442Y-54667984D01*
X138958717Y-54497783D01*
X138788516Y-54384058D01*
X138587750Y-54344123D01*
X138150250Y-54344123D01*
X137949484Y-54384058D01*
X137779283Y-54497783D01*
X137665558Y-54667984D01*
X137654217Y-54725000D01*
X137362377Y-54725000D01*
X137362377Y-54668750D01*
X137320539Y-54458417D01*
X137201395Y-54280105D01*
X137023083Y-54160961D01*
X136812750Y-54119123D01*
X136325250Y-54119123D01*
X136114917Y-54160961D01*
X135936605Y-54280105D01*
X135817461Y-54458417D01*
X135775623Y-54668750D01*
X135487377Y-54668750D01*
X135445539Y-54458417D01*
X135326395Y-54280105D01*
X135148083Y-54160961D01*
X134937750Y-54119123D01*
X134450250Y-54119123D01*
X134239917Y-54160961D01*
X134061605Y-54280105D01*
X133942461Y-54458417D01*
X133900623Y-54668750D01*
X133900623Y-55581250D01*
X133942461Y-55791583D01*
X134061605Y-55969895D01*
X134069001Y-55974837D01*
X134069000Y-56135050D01*
X133875568Y-56328482D01*
X133769000Y-56585761D01*
X133769000Y-56864239D01*
X133875568Y-57121518D01*
X134037642Y-57283592D01*
X133825420Y-57493209D01*
X133748718Y-57675089D01*
X133400000Y-57675089D01*
X133400000Y-54960606D01*
X133390970Y-54915208D01*
X133443989Y-54544989D01*
X133634237Y-54126559D01*
X133934280Y-53778343D01*
X134319997Y-53528334D01*
X134772796Y-53392918D01*
X134883606Y-53384684D01*
X134960606Y-53400000D01*
G36*
X153369000Y-65932106D02*
X153369000Y-66064239D01*
X153475568Y-66321518D01*
X153672482Y-66518432D01*
X153929761Y-66625000D01*
X154208239Y-66625000D01*
X154465518Y-66518432D01*
X154558950Y-66425000D01*
X156450000Y-66425000D01*
X156450001Y-66900754D01*
X156440205Y-66950000D01*
X156468241Y-67090942D01*
X156479012Y-67145090D01*
X156589521Y-67310480D01*
X156631268Y-67338374D01*
X157900000Y-68607107D01*
X157900001Y-70387500D01*
X157687164Y-70387500D01*
X157627217Y-70297783D01*
X157457016Y-70184058D01*
X157256250Y-70144123D01*
X156743750Y-70144123D01*
X156542984Y-70184058D01*
X156372783Y-70297783D01*
X156312836Y-70387500D01*
X156094607Y-70387500D01*
X155755877Y-70048771D01*
X155755877Y-69600000D01*
X155744241Y-69541500D01*
X156225000Y-69541500D01*
X156225000Y-69809674D01*
X156270672Y-69919937D01*
X156355064Y-70004328D01*
X156465327Y-70050000D01*
X156771000Y-70050000D01*
X156846000Y-69975000D01*
X156846000Y-69466500D01*
X157154000Y-69466500D01*
X157154000Y-69975000D01*
X157229000Y-70050000D01*
X157534673Y-70050000D01*
X157644936Y-70004328D01*
X157729328Y-69919937D01*
X157775000Y-69809674D01*
X157775000Y-69541500D01*
X157700000Y-69466500D01*
X157154000Y-69466500D01*
X156846000Y-69466500D01*
X156300000Y-69466500D01*
X156225000Y-69541500D01*
X155744241Y-69541500D01*
X155732593Y-69482946D01*
X155666288Y-69383712D01*
X155567054Y-69317407D01*
X155450000Y-69294123D01*
X154550000Y-69294123D01*
X154432946Y-69317407D01*
X154333712Y-69383712D01*
X154267407Y-69482946D01*
X154244123Y-69600000D01*
X154244123Y-70400000D01*
X154267407Y-70517054D01*
X154333712Y-70616288D01*
X154432946Y-70682593D01*
X154550000Y-70705877D01*
X154998771Y-70705877D01*
X155499125Y-71206232D01*
X155527020Y-71247980D01*
X155639909Y-71323409D01*
X155692410Y-71358489D01*
X155800420Y-71379974D01*
X155480394Y-71700000D01*
X148432107Y-71700000D01*
X145913377Y-69181270D01*
X145885480Y-69139520D01*
X145730877Y-69036219D01*
X145730877Y-68425000D01*
X145688563Y-68212275D01*
X145568064Y-68031936D01*
X145387725Y-67911437D01*
X145204545Y-67875000D01*
X145873106Y-67875000D01*
X145912500Y-67882836D01*
X145951894Y-67875000D01*
X146068572Y-67851791D01*
X146200884Y-67763384D01*
X146223203Y-67729982D01*
X146506876Y-67446309D01*
X146529011Y-67557589D01*
X146639520Y-67722980D01*
X146681271Y-67750877D01*
X146813123Y-67882729D01*
X146841020Y-67924480D01*
X146882771Y-67952377D01*
X150036625Y-71106232D01*
X150064520Y-71147980D01*
X150229910Y-71258489D01*
X150303191Y-71273066D01*
X150372783Y-71377217D01*
X150542984Y-71490942D01*
X150743750Y-71530877D01*
X151256250Y-71530877D01*
X151457016Y-71490942D01*
X151518290Y-71450000D01*
X152264015Y-71450000D01*
X152267407Y-71467054D01*
X152333712Y-71566288D01*
X152432946Y-71632593D01*
X152550000Y-71655877D01*
X153450000Y-71655877D01*
X153567054Y-71632593D01*
X153666288Y-71566288D01*
X153732593Y-71467054D01*
X153755877Y-71350000D01*
X153755877Y-70550000D01*
X153732593Y-70432946D01*
X153666288Y-70333712D01*
X153567054Y-70267407D01*
X153450000Y-70244123D01*
X152550000Y-70244123D01*
X152432946Y-70267407D01*
X152333712Y-70333712D01*
X152267407Y-70432946D01*
X152264015Y-70450000D01*
X151757256Y-70450000D01*
X151740942Y-70367984D01*
X151627217Y-70197783D01*
X151457016Y-70084058D01*
X151256250Y-70044123D01*
X150743750Y-70044123D01*
X150542984Y-70084058D01*
X150474455Y-70129848D01*
X149786107Y-69441500D01*
X150225000Y-69441500D01*
X150225000Y-69709674D01*
X150270672Y-69819937D01*
X150355064Y-69904328D01*
X150465327Y-69950000D01*
X150771000Y-69950000D01*
X150846000Y-69875000D01*
X150846000Y-69366500D01*
X151154000Y-69366500D01*
X151154000Y-69875000D01*
X151229000Y-69950000D01*
X151534673Y-69950000D01*
X151644936Y-69904328D01*
X151729328Y-69819937D01*
X151775000Y-69709674D01*
X151775000Y-69441500D01*
X151700000Y-69366500D01*
X151154000Y-69366500D01*
X150846000Y-69366500D01*
X150300000Y-69366500D01*
X150225000Y-69441500D01*
X149786107Y-69441500D01*
X149623607Y-69279000D01*
X152250000Y-69279000D01*
X152250000Y-69509673D01*
X152295672Y-69619936D01*
X152380063Y-69704328D01*
X152490326Y-69750000D01*
X152771000Y-69750000D01*
X152846000Y-69675000D01*
X152846000Y-69204000D01*
X153154000Y-69204000D01*
X153154000Y-69675000D01*
X153229000Y-69750000D01*
X153509674Y-69750000D01*
X153619937Y-69704328D01*
X153704328Y-69619936D01*
X153750000Y-69509673D01*
X153750000Y-69279000D01*
X153675000Y-69204000D01*
X153154000Y-69204000D01*
X152846000Y-69204000D01*
X152325000Y-69204000D01*
X152250000Y-69279000D01*
X149623607Y-69279000D01*
X149059933Y-68715326D01*
X150225000Y-68715326D01*
X150225000Y-68983500D01*
X150300000Y-69058500D01*
X150846000Y-69058500D01*
X150846000Y-68550000D01*
X151154000Y-68550000D01*
X151154000Y-69058500D01*
X151700000Y-69058500D01*
X151775000Y-68983500D01*
X151775000Y-68715326D01*
X151729328Y-68605063D01*
X151714592Y-68590327D01*
X152250000Y-68590327D01*
X152250000Y-68821000D01*
X152325000Y-68896000D01*
X152846000Y-68896000D01*
X152846000Y-68425000D01*
X153154000Y-68425000D01*
X153154000Y-68896000D01*
X153675000Y-68896000D01*
X153750000Y-68821000D01*
X153750000Y-68815326D01*
X156225000Y-68815326D01*
X156225000Y-69083500D01*
X156300000Y-69158500D01*
X156846000Y-69158500D01*
X156846000Y-68650000D01*
X157154000Y-68650000D01*
X157154000Y-69158500D01*
X157700000Y-69158500D01*
X157775000Y-69083500D01*
X157775000Y-68815326D01*
X157729328Y-68705063D01*
X157644936Y-68620672D01*
X157534673Y-68575000D01*
X157229000Y-68575000D01*
X157154000Y-68650000D01*
X156846000Y-68650000D01*
X156771000Y-68575000D01*
X156465327Y-68575000D01*
X156355064Y-68620672D01*
X156270672Y-68705063D01*
X156225000Y-68815326D01*
X153750000Y-68815326D01*
X153750000Y-68590327D01*
X153704328Y-68480064D01*
X153619937Y-68395672D01*
X153509674Y-68350000D01*
X153229000Y-68350000D01*
X153154000Y-68425000D01*
X152846000Y-68425000D01*
X152771000Y-68350000D01*
X152490326Y-68350000D01*
X152380063Y-68395672D01*
X152295672Y-68480064D01*
X152250000Y-68590327D01*
X151714592Y-68590327D01*
X151644936Y-68520672D01*
X151534673Y-68475000D01*
X151229000Y-68475000D01*
X151154000Y-68550000D01*
X150846000Y-68550000D01*
X150771000Y-68475000D01*
X150465327Y-68475000D01*
X150355064Y-68520672D01*
X150270672Y-68605063D01*
X150225000Y-68715326D01*
X149059933Y-68715326D01*
X148408606Y-68064000D01*
X150905759Y-68064000D01*
X150955000Y-68073795D01*
X151004241Y-68064000D01*
X151004243Y-68064000D01*
X151150090Y-68034989D01*
X151315480Y-67924480D01*
X151343376Y-67882730D01*
X152287733Y-66938374D01*
X152329480Y-66910480D01*
X152439989Y-66745090D01*
X152443195Y-66728971D01*
X152478796Y-66550000D01*
X152469000Y-66500754D01*
X152469000Y-66455877D01*
X152694000Y-66455877D01*
X152811054Y-66432593D01*
X152910288Y-66366288D01*
X152976593Y-66267054D01*
X152999877Y-66150000D01*
X152999877Y-65775000D01*
X153211894Y-65775000D01*
X153369000Y-65932106D01*
X153369000Y-65932106D01*
G37*
X153369000Y-65932106D02*
X153369000Y-66064239D01*
X153475568Y-66321518D01*
X153672482Y-66518432D01*
X153929761Y-66625000D01*
X154208239Y-66625000D01*
X154465518Y-66518432D01*
X154558950Y-66425000D01*
X156450000Y-66425000D01*
X156450001Y-66900754D01*
X156440205Y-66950000D01*
X156468241Y-67090942D01*
X156479012Y-67145090D01*
X156589521Y-67310480D01*
X156631268Y-67338374D01*
X157900000Y-68607107D01*
X157900001Y-70387500D01*
X157687164Y-70387500D01*
X157627217Y-70297783D01*
X157457016Y-70184058D01*
X157256250Y-70144123D01*
X156743750Y-70144123D01*
X156542984Y-70184058D01*
X156372783Y-70297783D01*
X156312836Y-70387500D01*
X156094607Y-70387500D01*
X155755877Y-70048771D01*
X155755877Y-69600000D01*
X155744241Y-69541500D01*
X156225000Y-69541500D01*
X156225000Y-69809674D01*
X156270672Y-69919937D01*
X156355064Y-70004328D01*
X156465327Y-70050000D01*
X156771000Y-70050000D01*
X156846000Y-69975000D01*
X156846000Y-69466500D01*
X157154000Y-69466500D01*
X157154000Y-69975000D01*
X157229000Y-70050000D01*
X157534673Y-70050000D01*
X157644936Y-70004328D01*
X157729328Y-69919937D01*
X157775000Y-69809674D01*
X157775000Y-69541500D01*
X157700000Y-69466500D01*
X157154000Y-69466500D01*
X156846000Y-69466500D01*
X156300000Y-69466500D01*
X156225000Y-69541500D01*
X155744241Y-69541500D01*
X155732593Y-69482946D01*
X155666288Y-69383712D01*
X155567054Y-69317407D01*
X155450000Y-69294123D01*
X154550000Y-69294123D01*
X154432946Y-69317407D01*
X154333712Y-69383712D01*
X154267407Y-69482946D01*
X154244123Y-69600000D01*
X154244123Y-70400000D01*
X154267407Y-70517054D01*
X154333712Y-70616288D01*
X154432946Y-70682593D01*
X154550000Y-70705877D01*
X154998771Y-70705877D01*
X155499125Y-71206232D01*
X155527020Y-71247980D01*
X155639909Y-71323409D01*
X155692410Y-71358489D01*
X155800420Y-71379974D01*
X155480394Y-71700000D01*
X148432107Y-71700000D01*
X145913377Y-69181270D01*
X145885480Y-69139520D01*
X145730877Y-69036219D01*
X145730877Y-68425000D01*
X145688563Y-68212275D01*
X145568064Y-68031936D01*
X145387725Y-67911437D01*
X145204545Y-67875000D01*
X145873106Y-67875000D01*
X145912500Y-67882836D01*
X145951894Y-67875000D01*
X146068572Y-67851791D01*
X146200884Y-67763384D01*
X146223203Y-67729982D01*
X146506876Y-67446309D01*
X146529011Y-67557589D01*
X146639520Y-67722980D01*
X146681271Y-67750877D01*
X146813123Y-67882729D01*
X146841020Y-67924480D01*
X146882771Y-67952377D01*
X150036625Y-71106232D01*
X150064520Y-71147980D01*
X150229910Y-71258489D01*
X150303191Y-71273066D01*
X150372783Y-71377217D01*
X150542984Y-71490942D01*
X150743750Y-71530877D01*
X151256250Y-71530877D01*
X151457016Y-71490942D01*
X151518290Y-71450000D01*
X152264015Y-71450000D01*
X152267407Y-71467054D01*
X152333712Y-71566288D01*
X152432946Y-71632593D01*
X152550000Y-71655877D01*
X153450000Y-71655877D01*
X153567054Y-71632593D01*
X153666288Y-71566288D01*
X153732593Y-71467054D01*
X153755877Y-71350000D01*
X153755877Y-70550000D01*
X153732593Y-70432946D01*
X153666288Y-70333712D01*
X153567054Y-70267407D01*
X153450000Y-70244123D01*
X152550000Y-70244123D01*
X152432946Y-70267407D01*
X152333712Y-70333712D01*
X152267407Y-70432946D01*
X152264015Y-70450000D01*
X151757256Y-70450000D01*
X151740942Y-70367984D01*
X151627217Y-70197783D01*
X151457016Y-70084058D01*
X151256250Y-70044123D01*
X150743750Y-70044123D01*
X150542984Y-70084058D01*
X150474455Y-70129848D01*
X149786107Y-69441500D01*
X150225000Y-69441500D01*
X150225000Y-69709674D01*
X150270672Y-69819937D01*
X150355064Y-69904328D01*
X150465327Y-69950000D01*
X150771000Y-69950000D01*
X150846000Y-69875000D01*
X150846000Y-69366500D01*
X151154000Y-69366500D01*
X151154000Y-69875000D01*
X151229000Y-69950000D01*
X151534673Y-69950000D01*
X151644936Y-69904328D01*
X151729328Y-69819937D01*
X151775000Y-69709674D01*
X151775000Y-69441500D01*
X151700000Y-69366500D01*
X151154000Y-69366500D01*
X150846000Y-69366500D01*
X150300000Y-69366500D01*
X150225000Y-69441500D01*
X149786107Y-69441500D01*
X149623607Y-69279000D01*
X152250000Y-69279000D01*
X152250000Y-69509673D01*
X152295672Y-69619936D01*
X152380063Y-69704328D01*
X152490326Y-69750000D01*
X152771000Y-69750000D01*
X152846000Y-69675000D01*
X152846000Y-69204000D01*
X153154000Y-69204000D01*
X153154000Y-69675000D01*
X153229000Y-69750000D01*
X153509674Y-69750000D01*
X153619937Y-69704328D01*
X153704328Y-69619936D01*
X153750000Y-69509673D01*
X153750000Y-69279000D01*
X153675000Y-69204000D01*
X153154000Y-69204000D01*
X152846000Y-69204000D01*
X152325000Y-69204000D01*
X152250000Y-69279000D01*
X149623607Y-69279000D01*
X149059933Y-68715326D01*
X150225000Y-68715326D01*
X150225000Y-68983500D01*
X150300000Y-69058500D01*
X150846000Y-69058500D01*
X150846000Y-68550000D01*
X151154000Y-68550000D01*
X151154000Y-69058500D01*
X151700000Y-69058500D01*
X151775000Y-68983500D01*
X151775000Y-68715326D01*
X151729328Y-68605063D01*
X151714592Y-68590327D01*
X152250000Y-68590327D01*
X152250000Y-68821000D01*
X152325000Y-68896000D01*
X152846000Y-68896000D01*
X152846000Y-68425000D01*
X153154000Y-68425000D01*
X153154000Y-68896000D01*
X153675000Y-68896000D01*
X153750000Y-68821000D01*
X153750000Y-68815326D01*
X156225000Y-68815326D01*
X156225000Y-69083500D01*
X156300000Y-69158500D01*
X156846000Y-69158500D01*
X156846000Y-68650000D01*
X157154000Y-68650000D01*
X157154000Y-69158500D01*
X157700000Y-69158500D01*
X157775000Y-69083500D01*
X157775000Y-68815326D01*
X157729328Y-68705063D01*
X157644936Y-68620672D01*
X157534673Y-68575000D01*
X157229000Y-68575000D01*
X157154000Y-68650000D01*
X156846000Y-68650000D01*
X156771000Y-68575000D01*
X156465327Y-68575000D01*
X156355064Y-68620672D01*
X156270672Y-68705063D01*
X156225000Y-68815326D01*
X153750000Y-68815326D01*
X153750000Y-68590327D01*
X153704328Y-68480064D01*
X153619937Y-68395672D01*
X153509674Y-68350000D01*
X153229000Y-68350000D01*
X153154000Y-68425000D01*
X152846000Y-68425000D01*
X152771000Y-68350000D01*
X152490326Y-68350000D01*
X152380063Y-68395672D01*
X152295672Y-68480064D01*
X152250000Y-68590327D01*
X151714592Y-68590327D01*
X151644936Y-68520672D01*
X151534673Y-68475000D01*
X151229000Y-68475000D01*
X151154000Y-68550000D01*
X150846000Y-68550000D01*
X150771000Y-68475000D01*
X150465327Y-68475000D01*
X150355064Y-68520672D01*
X150270672Y-68605063D01*
X150225000Y-68715326D01*
X149059933Y-68715326D01*
X148408606Y-68064000D01*
X150905759Y-68064000D01*
X150955000Y-68073795D01*
X151004241Y-68064000D01*
X151004243Y-68064000D01*
X151150090Y-68034989D01*
X151315480Y-67924480D01*
X151343376Y-67882730D01*
X152287733Y-66938374D01*
X152329480Y-66910480D01*
X152439989Y-66745090D01*
X152443195Y-66728971D01*
X152478796Y-66550000D01*
X152469000Y-66500754D01*
X152469000Y-66455877D01*
X152694000Y-66455877D01*
X152811054Y-66432593D01*
X152910288Y-66366288D01*
X152976593Y-66267054D01*
X152999877Y-66150000D01*
X152999877Y-65775000D01*
X153211894Y-65775000D01*
X153369000Y-65932106D01*
G36*
X141181623Y-54943750D02*
X141181623Y-55456250D01*
X141221558Y-55657016D01*
X141335283Y-55827217D01*
X141505484Y-55940942D01*
X141525001Y-55944824D01*
X141525000Y-59885606D01*
X141517164Y-59925000D01*
X141529508Y-59987054D01*
X141548209Y-60081071D01*
X141636616Y-60213384D01*
X141670019Y-60235703D01*
X142619688Y-61185373D01*
X142582453Y-61185373D01*
X142325174Y-61291941D01*
X142128260Y-61488855D01*
X142021692Y-61746134D01*
X142021692Y-62019689D01*
X141704015Y-62337366D01*
X141670612Y-62359685D01*
X141585814Y-62486597D01*
X141582205Y-62491998D01*
X141551160Y-62648069D01*
X141558996Y-62687463D01*
X141558997Y-63185602D01*
X141551160Y-63225000D01*
X141582205Y-63381071D01*
X141582206Y-63381072D01*
X141670613Y-63513384D01*
X141704012Y-63535701D01*
X142198298Y-64029987D01*
X142220615Y-64063387D01*
X142342759Y-64145000D01*
X142352927Y-64151794D01*
X142508999Y-64182839D01*
X142548393Y-64175003D01*
X143189607Y-64175003D01*
X143229001Y-64182839D01*
X143268395Y-64175003D01*
X143385073Y-64151794D01*
X143517385Y-64063387D01*
X143539703Y-64029985D01*
X143919123Y-63650566D01*
X143919123Y-63670000D01*
X143936528Y-63757500D01*
X143919123Y-63845000D01*
X143919123Y-64084558D01*
X143769517Y-64184521D01*
X143741622Y-64226269D01*
X143067891Y-64900001D01*
X142149240Y-64900001D01*
X142099998Y-64890206D01*
X142050757Y-64900001D01*
X142050756Y-64900001D01*
X141904909Y-64929012D01*
X141739519Y-65039521D01*
X141711625Y-65081268D01*
X141692893Y-65100000D01*
X141560761Y-65100000D01*
X141303482Y-65206568D01*
X141106568Y-65403482D01*
X141000000Y-65660761D01*
X141000000Y-65939239D01*
X141106568Y-66196518D01*
X141200001Y-66289951D01*
X141200000Y-67725758D01*
X141190205Y-67775000D01*
X141200000Y-67824241D01*
X141200000Y-67824242D01*
X141229011Y-67970089D01*
X141258483Y-68014198D01*
X141231936Y-68031936D01*
X141111437Y-68212275D01*
X141069123Y-68425000D01*
X141069123Y-70575000D01*
X141111437Y-70787725D01*
X141231936Y-70968064D01*
X141412275Y-71088563D01*
X141625000Y-71130877D01*
X142375000Y-71130877D01*
X142587725Y-71088563D01*
X142768064Y-70968064D01*
X142888563Y-70787725D01*
X142930877Y-70575000D01*
X142930877Y-68425000D01*
X142888563Y-68212275D01*
X142768064Y-68031936D01*
X142587725Y-67911437D01*
X142472709Y-67888559D01*
X142470989Y-67879910D01*
X142360480Y-67714520D01*
X142318729Y-67686623D01*
X142200000Y-67567894D01*
X142200000Y-66289950D01*
X142293432Y-66196518D01*
X142400000Y-65939239D01*
X142400000Y-65900001D01*
X143170408Y-65900001D01*
X143025420Y-66043209D01*
X142948718Y-66225089D01*
X142991545Y-66346000D01*
X144096000Y-66346000D01*
X144096000Y-66326000D01*
X144404000Y-66326000D01*
X144404000Y-66346000D01*
X145508455Y-66346000D01*
X145551282Y-66225089D01*
X145474580Y-66043209D01*
X145450168Y-66019096D01*
X145529328Y-65939937D01*
X145575000Y-65829674D01*
X145575000Y-65770000D01*
X145500000Y-65695000D01*
X145474264Y-65695000D01*
X145529328Y-65639937D01*
X145575000Y-65529674D01*
X145575000Y-65410326D01*
X145529328Y-65300063D01*
X145474264Y-65245000D01*
X145500000Y-65245000D01*
X145575000Y-65170000D01*
X145575000Y-65110326D01*
X145560113Y-65074385D01*
X145566654Y-65041500D01*
X146225000Y-65041500D01*
X146225000Y-65309674D01*
X146270672Y-65419937D01*
X146355064Y-65504328D01*
X146465327Y-65550000D01*
X146771000Y-65550000D01*
X146846000Y-65475000D01*
X146846000Y-64966500D01*
X147154000Y-64966500D01*
X147154000Y-65475000D01*
X147229000Y-65550000D01*
X147534673Y-65550000D01*
X147644936Y-65504328D01*
X147729328Y-65419937D01*
X147775000Y-65309674D01*
X147775000Y-65041500D01*
X147762500Y-65029000D01*
X147825000Y-65029000D01*
X147825000Y-65297174D01*
X147870672Y-65407437D01*
X147955064Y-65491828D01*
X148065327Y-65537500D01*
X148371000Y-65537500D01*
X148446000Y-65462500D01*
X148446000Y-64954000D01*
X147900000Y-64954000D01*
X147825000Y-65029000D01*
X147762500Y-65029000D01*
X147700000Y-64966500D01*
X147154000Y-64966500D01*
X146846000Y-64966500D01*
X146300000Y-64966500D01*
X146225000Y-65041500D01*
X145566654Y-65041500D01*
X145580877Y-64970000D01*
X145580877Y-64370000D01*
X145558499Y-64257500D01*
X145580877Y-64145000D01*
X145580877Y-63845000D01*
X145563472Y-63757500D01*
X145580877Y-63670000D01*
X145580877Y-63554000D01*
X146156500Y-63554000D01*
X146156500Y-63859673D01*
X146202172Y-63969936D01*
X146286563Y-64054328D01*
X146396826Y-64100000D01*
X146404971Y-64100000D01*
X146355064Y-64120672D01*
X146270672Y-64205063D01*
X146225000Y-64315326D01*
X146225000Y-64583500D01*
X146300000Y-64658500D01*
X146846000Y-64658500D01*
X146846000Y-64150000D01*
X146771000Y-64075000D01*
X146690000Y-64075000D01*
X146740000Y-64025000D01*
X146740000Y-63479000D01*
X147048000Y-63479000D01*
X147048000Y-64025000D01*
X147123000Y-64100000D01*
X147204000Y-64100000D01*
X147154000Y-64150000D01*
X147154000Y-64658500D01*
X147700000Y-64658500D01*
X147775000Y-64583500D01*
X147775000Y-64315326D01*
X147729328Y-64205063D01*
X147644936Y-64120672D01*
X147534673Y-64075000D01*
X147451530Y-64075000D01*
X147501437Y-64054328D01*
X147585828Y-63969936D01*
X147631500Y-63859673D01*
X147631500Y-63554000D01*
X147556500Y-63479000D01*
X147048000Y-63479000D01*
X146740000Y-63479000D01*
X146231500Y-63479000D01*
X146156500Y-63554000D01*
X145580877Y-63554000D01*
X145580877Y-63370000D01*
X145560985Y-63270000D01*
X145580877Y-63170000D01*
X145580877Y-62922689D01*
X145594396Y-62920000D01*
X145711074Y-62896791D01*
X145843386Y-62808384D01*
X145865705Y-62774981D01*
X146023981Y-62616705D01*
X146048978Y-62600003D01*
X146109327Y-62625000D01*
X146257235Y-62625000D01*
X146202172Y-62680064D01*
X146156500Y-62790327D01*
X146156500Y-63096000D01*
X146231500Y-63171000D01*
X146740000Y-63171000D01*
X146740000Y-62625000D01*
X146665000Y-62550000D01*
X146615000Y-62550000D01*
X146615000Y-61779000D01*
X146595000Y-61779000D01*
X146595000Y-61471000D01*
X146615000Y-61471000D01*
X146615000Y-61451000D01*
X146923000Y-61451000D01*
X146923000Y-61471000D01*
X146943000Y-61471000D01*
X146943000Y-61779000D01*
X146923000Y-61779000D01*
X146923000Y-62550000D01*
X146998000Y-62625000D01*
X147048000Y-62625000D01*
X147048000Y-63171000D01*
X147556500Y-63171000D01*
X147631500Y-63096000D01*
X147631500Y-62790327D01*
X147585828Y-62680064D01*
X147501437Y-62595672D01*
X147500457Y-62595266D01*
X147538936Y-62579328D01*
X147622377Y-62495888D01*
X147652712Y-62541288D01*
X147751946Y-62607593D01*
X147869000Y-62630877D01*
X147979415Y-62630877D01*
X147879283Y-62697783D01*
X147765558Y-62867984D01*
X147725623Y-63068750D01*
X147725623Y-63581250D01*
X147765558Y-63782016D01*
X147879283Y-63952217D01*
X148049484Y-64065942D01*
X148054573Y-64066954D01*
X147955064Y-64108172D01*
X147870672Y-64192563D01*
X147825000Y-64302826D01*
X147825000Y-64571000D01*
X147900000Y-64646000D01*
X148446000Y-64646000D01*
X148446000Y-64626000D01*
X148754000Y-64626000D01*
X148754000Y-64646000D01*
X149300000Y-64646000D01*
X149375000Y-64571000D01*
X149375000Y-64302826D01*
X149329328Y-64192563D01*
X149244936Y-64108172D01*
X149134673Y-64062500D01*
X148893667Y-64062500D01*
X149058717Y-63952217D01*
X149172442Y-63782016D01*
X149212377Y-63581250D01*
X149212377Y-63263388D01*
X149841704Y-63263388D01*
X150808299Y-64229984D01*
X150830616Y-64263384D01*
X150942041Y-64337835D01*
X150944384Y-64339400D01*
X150944000Y-64340327D01*
X150944000Y-64437500D01*
X151019000Y-64512500D01*
X151815000Y-64512500D01*
X151815000Y-64505877D01*
X152123000Y-64505877D01*
X152123000Y-64512500D01*
X152919000Y-64512500D01*
X152994000Y-64437500D01*
X152994000Y-64340327D01*
X152979113Y-64304386D01*
X152999877Y-64200000D01*
X152999877Y-63750000D01*
X152979985Y-63650000D01*
X152999877Y-63550000D01*
X152999877Y-63325821D01*
X153064937Y-63352770D01*
X153343415Y-63352770D01*
X153600694Y-63246202D01*
X153797608Y-63049288D01*
X153904176Y-62792009D01*
X153904176Y-62513531D01*
X153797608Y-62256252D01*
X153600694Y-62059338D01*
X153343415Y-61952770D01*
X153064937Y-61952770D01*
X152999877Y-61979719D01*
X152999877Y-61800000D01*
X152979985Y-61700000D01*
X152999877Y-61600000D01*
X152999877Y-61150000D01*
X152979985Y-61050000D01*
X152999877Y-60950000D01*
X152999877Y-60500000D01*
X152979985Y-60400000D01*
X152999877Y-60300000D01*
X152999877Y-60021562D01*
X153958301Y-60979987D01*
X153980616Y-61013384D01*
X154112928Y-61101791D01*
X154229606Y-61125000D01*
X154268999Y-61132836D01*
X154308392Y-61125000D01*
X155410050Y-61125000D01*
X155306568Y-61228482D01*
X155200000Y-61485761D01*
X155200000Y-61764239D01*
X155306568Y-62021518D01*
X155503482Y-62218432D01*
X155671598Y-62288067D01*
X155569000Y-62535761D01*
X155569000Y-62814239D01*
X155675568Y-63071518D01*
X155872482Y-63268432D01*
X156129761Y-63375000D01*
X156328316Y-63375000D01*
X156314018Y-63389298D01*
X156280616Y-63411616D01*
X156199036Y-63533712D01*
X156192209Y-63543929D01*
X156161164Y-63700000D01*
X156169000Y-63739394D01*
X156169001Y-64860602D01*
X156161164Y-64900000D01*
X156192209Y-65056071D01*
X156192210Y-65056072D01*
X156280617Y-65188384D01*
X156314016Y-65210700D01*
X156528315Y-65425000D01*
X154558950Y-65425000D01*
X154465518Y-65331568D01*
X154208239Y-65225000D01*
X154076106Y-65225000D01*
X153807376Y-64956270D01*
X153779480Y-64914520D01*
X153614090Y-64804011D01*
X153468243Y-64775000D01*
X153468241Y-64775000D01*
X153419000Y-64765205D01*
X153369759Y-64775000D01*
X152956500Y-64775000D01*
X152919000Y-64737500D01*
X152123000Y-64737500D01*
X152123000Y-64744123D01*
X151815000Y-64744123D01*
X151815000Y-64737500D01*
X151019000Y-64737500D01*
X150981500Y-64775000D01*
X149874243Y-64775000D01*
X149825000Y-64765205D01*
X149775757Y-64775000D01*
X149629910Y-64804011D01*
X149464520Y-64914520D01*
X149436625Y-64956268D01*
X149369447Y-65023447D01*
X149300000Y-64954000D01*
X148754000Y-64954000D01*
X148754000Y-65462500D01*
X148829000Y-65537500D01*
X148855394Y-65537500D01*
X148761271Y-65631623D01*
X148343750Y-65631623D01*
X148142984Y-65671558D01*
X147972783Y-65785283D01*
X147859058Y-65955484D01*
X147819123Y-66156250D01*
X147819123Y-66593750D01*
X147859058Y-66794516D01*
X147972783Y-66964717D01*
X148121370Y-67064000D01*
X147500000Y-67064000D01*
X147500000Y-67062221D01*
X147627217Y-66977217D01*
X147740942Y-66807016D01*
X147780877Y-66606250D01*
X147780877Y-66168750D01*
X147740942Y-65967984D01*
X147627217Y-65797783D01*
X147457016Y-65684058D01*
X147256250Y-65644123D01*
X146743750Y-65644123D01*
X146542984Y-65684058D01*
X146372783Y-65797783D01*
X146259058Y-65967984D01*
X146219123Y-66168750D01*
X146219123Y-66602692D01*
X145746816Y-67075000D01*
X145354901Y-67075000D01*
X145474580Y-66956791D01*
X145551282Y-66774911D01*
X145508455Y-66654000D01*
X144404000Y-66654000D01*
X144404000Y-66674000D01*
X144096000Y-66674000D01*
X144096000Y-66654000D01*
X142991545Y-66654000D01*
X142948718Y-66774911D01*
X143025420Y-66956791D01*
X143251576Y-67180170D01*
X143546000Y-67300000D01*
X143634314Y-67300000D01*
X143145018Y-67789298D01*
X143111616Y-67811616D01*
X143033177Y-67929011D01*
X143023209Y-67943929D01*
X142992164Y-68100000D01*
X143000000Y-68139394D01*
X143000001Y-70934313D01*
X142534316Y-71400000D01*
X140965685Y-71400000D01*
X140475000Y-70909316D01*
X140475000Y-70127848D01*
X140572442Y-69982016D01*
X140612377Y-69781250D01*
X140612377Y-69268750D01*
X140572442Y-69067984D01*
X140458717Y-68897783D01*
X140400000Y-68858549D01*
X140400000Y-55841564D01*
X140533717Y-55752217D01*
X140647442Y-55582016D01*
X140687377Y-55381250D01*
X140687377Y-55378307D01*
X141196444Y-54869241D01*
X141181623Y-54943750D01*
X141181623Y-54943750D01*
G37*
X141181623Y-54943750D02*
X141181623Y-55456250D01*
X141221558Y-55657016D01*
X141335283Y-55827217D01*
X141505484Y-55940942D01*
X141525001Y-55944824D01*
X141525000Y-59885606D01*
X141517164Y-59925000D01*
X141529508Y-59987054D01*
X141548209Y-60081071D01*
X141636616Y-60213384D01*
X141670019Y-60235703D01*
X142619688Y-61185373D01*
X142582453Y-61185373D01*
X142325174Y-61291941D01*
X142128260Y-61488855D01*
X142021692Y-61746134D01*
X142021692Y-62019689D01*
X141704015Y-62337366D01*
X141670612Y-62359685D01*
X141585814Y-62486597D01*
X141582205Y-62491998D01*
X141551160Y-62648069D01*
X141558996Y-62687463D01*
X141558997Y-63185602D01*
X141551160Y-63225000D01*
X141582205Y-63381071D01*
X141582206Y-63381072D01*
X141670613Y-63513384D01*
X141704012Y-63535701D01*
X142198298Y-64029987D01*
X142220615Y-64063387D01*
X142342759Y-64145000D01*
X142352927Y-64151794D01*
X142508999Y-64182839D01*
X142548393Y-64175003D01*
X143189607Y-64175003D01*
X143229001Y-64182839D01*
X143268395Y-64175003D01*
X143385073Y-64151794D01*
X143517385Y-64063387D01*
X143539703Y-64029985D01*
X143919123Y-63650566D01*
X143919123Y-63670000D01*
X143936528Y-63757500D01*
X143919123Y-63845000D01*
X143919123Y-64084558D01*
X143769517Y-64184521D01*
X143741622Y-64226269D01*
X143067891Y-64900001D01*
X142149240Y-64900001D01*
X142099998Y-64890206D01*
X142050757Y-64900001D01*
X142050756Y-64900001D01*
X141904909Y-64929012D01*
X141739519Y-65039521D01*
X141711625Y-65081268D01*
X141692893Y-65100000D01*
X141560761Y-65100000D01*
X141303482Y-65206568D01*
X141106568Y-65403482D01*
X141000000Y-65660761D01*
X141000000Y-65939239D01*
X141106568Y-66196518D01*
X141200001Y-66289951D01*
X141200000Y-67725758D01*
X141190205Y-67775000D01*
X141200000Y-67824241D01*
X141200000Y-67824242D01*
X141229011Y-67970089D01*
X141258483Y-68014198D01*
X141231936Y-68031936D01*
X141111437Y-68212275D01*
X141069123Y-68425000D01*
X141069123Y-70575000D01*
X141111437Y-70787725D01*
X141231936Y-70968064D01*
X141412275Y-71088563D01*
X141625000Y-71130877D01*
X142375000Y-71130877D01*
X142587725Y-71088563D01*
X142768064Y-70968064D01*
X142888563Y-70787725D01*
X142930877Y-70575000D01*
X142930877Y-68425000D01*
X142888563Y-68212275D01*
X142768064Y-68031936D01*
X142587725Y-67911437D01*
X142472709Y-67888559D01*
X142470989Y-67879910D01*
X142360480Y-67714520D01*
X142318729Y-67686623D01*
X142200000Y-67567894D01*
X142200000Y-66289950D01*
X142293432Y-66196518D01*
X142400000Y-65939239D01*
X142400000Y-65900001D01*
X143170408Y-65900001D01*
X143025420Y-66043209D01*
X142948718Y-66225089D01*
X142991545Y-66346000D01*
X144096000Y-66346000D01*
X144096000Y-66326000D01*
X144404000Y-66326000D01*
X144404000Y-66346000D01*
X145508455Y-66346000D01*
X145551282Y-66225089D01*
X145474580Y-66043209D01*
X145450168Y-66019096D01*
X145529328Y-65939937D01*
X145575000Y-65829674D01*
X145575000Y-65770000D01*
X145500000Y-65695000D01*
X145474264Y-65695000D01*
X145529328Y-65639937D01*
X145575000Y-65529674D01*
X145575000Y-65410326D01*
X145529328Y-65300063D01*
X145474264Y-65245000D01*
X145500000Y-65245000D01*
X145575000Y-65170000D01*
X145575000Y-65110326D01*
X145560113Y-65074385D01*
X145566654Y-65041500D01*
X146225000Y-65041500D01*
X146225000Y-65309674D01*
X146270672Y-65419937D01*
X146355064Y-65504328D01*
X146465327Y-65550000D01*
X146771000Y-65550000D01*
X146846000Y-65475000D01*
X146846000Y-64966500D01*
X147154000Y-64966500D01*
X147154000Y-65475000D01*
X147229000Y-65550000D01*
X147534673Y-65550000D01*
X147644936Y-65504328D01*
X147729328Y-65419937D01*
X147775000Y-65309674D01*
X147775000Y-65041500D01*
X147762500Y-65029000D01*
X147825000Y-65029000D01*
X147825000Y-65297174D01*
X147870672Y-65407437D01*
X147955064Y-65491828D01*
X148065327Y-65537500D01*
X148371000Y-65537500D01*
X148446000Y-65462500D01*
X148446000Y-64954000D01*
X147900000Y-64954000D01*
X147825000Y-65029000D01*
X147762500Y-65029000D01*
X147700000Y-64966500D01*
X147154000Y-64966500D01*
X146846000Y-64966500D01*
X146300000Y-64966500D01*
X146225000Y-65041500D01*
X145566654Y-65041500D01*
X145580877Y-64970000D01*
X145580877Y-64370000D01*
X145558499Y-64257500D01*
X145580877Y-64145000D01*
X145580877Y-63845000D01*
X145563472Y-63757500D01*
X145580877Y-63670000D01*
X145580877Y-63554000D01*
X146156500Y-63554000D01*
X146156500Y-63859673D01*
X146202172Y-63969936D01*
X146286563Y-64054328D01*
X146396826Y-64100000D01*
X146404971Y-64100000D01*
X146355064Y-64120672D01*
X146270672Y-64205063D01*
X146225000Y-64315326D01*
X146225000Y-64583500D01*
X146300000Y-64658500D01*
X146846000Y-64658500D01*
X146846000Y-64150000D01*
X146771000Y-64075000D01*
X146690000Y-64075000D01*
X146740000Y-64025000D01*
X146740000Y-63479000D01*
X147048000Y-63479000D01*
X147048000Y-64025000D01*
X147123000Y-64100000D01*
X147204000Y-64100000D01*
X147154000Y-64150000D01*
X147154000Y-64658500D01*
X147700000Y-64658500D01*
X147775000Y-64583500D01*
X147775000Y-64315326D01*
X147729328Y-64205063D01*
X147644936Y-64120672D01*
X147534673Y-64075000D01*
X147451530Y-64075000D01*
X147501437Y-64054328D01*
X147585828Y-63969936D01*
X147631500Y-63859673D01*
X147631500Y-63554000D01*
X147556500Y-63479000D01*
X147048000Y-63479000D01*
X146740000Y-63479000D01*
X146231500Y-63479000D01*
X146156500Y-63554000D01*
X145580877Y-63554000D01*
X145580877Y-63370000D01*
X145560985Y-63270000D01*
X145580877Y-63170000D01*
X145580877Y-62922689D01*
X145594396Y-62920000D01*
X145711074Y-62896791D01*
X145843386Y-62808384D01*
X145865705Y-62774981D01*
X146023981Y-62616705D01*
X146048978Y-62600003D01*
X146109327Y-62625000D01*
X146257235Y-62625000D01*
X146202172Y-62680064D01*
X146156500Y-62790327D01*
X146156500Y-63096000D01*
X146231500Y-63171000D01*
X146740000Y-63171000D01*
X146740000Y-62625000D01*
X146665000Y-62550000D01*
X146615000Y-62550000D01*
X146615000Y-61779000D01*
X146595000Y-61779000D01*
X146595000Y-61471000D01*
X146615000Y-61471000D01*
X146615000Y-61451000D01*
X146923000Y-61451000D01*
X146923000Y-61471000D01*
X146943000Y-61471000D01*
X146943000Y-61779000D01*
X146923000Y-61779000D01*
X146923000Y-62550000D01*
X146998000Y-62625000D01*
X147048000Y-62625000D01*
X147048000Y-63171000D01*
X147556500Y-63171000D01*
X147631500Y-63096000D01*
X147631500Y-62790327D01*
X147585828Y-62680064D01*
X147501437Y-62595672D01*
X147500457Y-62595266D01*
X147538936Y-62579328D01*
X147622377Y-62495888D01*
X147652712Y-62541288D01*
X147751946Y-62607593D01*
X147869000Y-62630877D01*
X147979415Y-62630877D01*
X147879283Y-62697783D01*
X147765558Y-62867984D01*
X147725623Y-63068750D01*
X147725623Y-63581250D01*
X147765558Y-63782016D01*
X147879283Y-63952217D01*
X148049484Y-64065942D01*
X148054573Y-64066954D01*
X147955064Y-64108172D01*
X147870672Y-64192563D01*
X147825000Y-64302826D01*
X147825000Y-64571000D01*
X147900000Y-64646000D01*
X148446000Y-64646000D01*
X148446000Y-64626000D01*
X148754000Y-64626000D01*
X148754000Y-64646000D01*
X149300000Y-64646000D01*
X149375000Y-64571000D01*
X149375000Y-64302826D01*
X149329328Y-64192563D01*
X149244936Y-64108172D01*
X149134673Y-64062500D01*
X148893667Y-64062500D01*
X149058717Y-63952217D01*
X149172442Y-63782016D01*
X149212377Y-63581250D01*
X149212377Y-63263388D01*
X149841704Y-63263388D01*
X150808299Y-64229984D01*
X150830616Y-64263384D01*
X150942041Y-64337835D01*
X150944384Y-64339400D01*
X150944000Y-64340327D01*
X150944000Y-64437500D01*
X151019000Y-64512500D01*
X151815000Y-64512500D01*
X151815000Y-64505877D01*
X152123000Y-64505877D01*
X152123000Y-64512500D01*
X152919000Y-64512500D01*
X152994000Y-64437500D01*
X152994000Y-64340327D01*
X152979113Y-64304386D01*
X152999877Y-64200000D01*
X152999877Y-63750000D01*
X152979985Y-63650000D01*
X152999877Y-63550000D01*
X152999877Y-63325821D01*
X153064937Y-63352770D01*
X153343415Y-63352770D01*
X153600694Y-63246202D01*
X153797608Y-63049288D01*
X153904176Y-62792009D01*
X153904176Y-62513531D01*
X153797608Y-62256252D01*
X153600694Y-62059338D01*
X153343415Y-61952770D01*
X153064937Y-61952770D01*
X152999877Y-61979719D01*
X152999877Y-61800000D01*
X152979985Y-61700000D01*
X152999877Y-61600000D01*
X152999877Y-61150000D01*
X152979985Y-61050000D01*
X152999877Y-60950000D01*
X152999877Y-60500000D01*
X152979985Y-60400000D01*
X152999877Y-60300000D01*
X152999877Y-60021562D01*
X153958301Y-60979987D01*
X153980616Y-61013384D01*
X154112928Y-61101791D01*
X154229606Y-61125000D01*
X154268999Y-61132836D01*
X154308392Y-61125000D01*
X155410050Y-61125000D01*
X155306568Y-61228482D01*
X155200000Y-61485761D01*
X155200000Y-61764239D01*
X155306568Y-62021518D01*
X155503482Y-62218432D01*
X155671598Y-62288067D01*
X155569000Y-62535761D01*
X155569000Y-62814239D01*
X155675568Y-63071518D01*
X155872482Y-63268432D01*
X156129761Y-63375000D01*
X156328316Y-63375000D01*
X156314018Y-63389298D01*
X156280616Y-63411616D01*
X156199036Y-63533712D01*
X156192209Y-63543929D01*
X156161164Y-63700000D01*
X156169000Y-63739394D01*
X156169001Y-64860602D01*
X156161164Y-64900000D01*
X156192209Y-65056071D01*
X156192210Y-65056072D01*
X156280617Y-65188384D01*
X156314016Y-65210700D01*
X156528315Y-65425000D01*
X154558950Y-65425000D01*
X154465518Y-65331568D01*
X154208239Y-65225000D01*
X154076106Y-65225000D01*
X153807376Y-64956270D01*
X153779480Y-64914520D01*
X153614090Y-64804011D01*
X153468243Y-64775000D01*
X153468241Y-64775000D01*
X153419000Y-64765205D01*
X153369759Y-64775000D01*
X152956500Y-64775000D01*
X152919000Y-64737500D01*
X152123000Y-64737500D01*
X152123000Y-64744123D01*
X151815000Y-64744123D01*
X151815000Y-64737500D01*
X151019000Y-64737500D01*
X150981500Y-64775000D01*
X149874243Y-64775000D01*
X149825000Y-64765205D01*
X149775757Y-64775000D01*
X149629910Y-64804011D01*
X149464520Y-64914520D01*
X149436625Y-64956268D01*
X149369447Y-65023447D01*
X149300000Y-64954000D01*
X148754000Y-64954000D01*
X148754000Y-65462500D01*
X148829000Y-65537500D01*
X148855394Y-65537500D01*
X148761271Y-65631623D01*
X148343750Y-65631623D01*
X148142984Y-65671558D01*
X147972783Y-65785283D01*
X147859058Y-65955484D01*
X147819123Y-66156250D01*
X147819123Y-66593750D01*
X147859058Y-66794516D01*
X147972783Y-66964717D01*
X148121370Y-67064000D01*
X147500000Y-67064000D01*
X147500000Y-67062221D01*
X147627217Y-66977217D01*
X147740942Y-66807016D01*
X147780877Y-66606250D01*
X147780877Y-66168750D01*
X147740942Y-65967984D01*
X147627217Y-65797783D01*
X147457016Y-65684058D01*
X147256250Y-65644123D01*
X146743750Y-65644123D01*
X146542984Y-65684058D01*
X146372783Y-65797783D01*
X146259058Y-65967984D01*
X146219123Y-66168750D01*
X146219123Y-66602692D01*
X145746816Y-67075000D01*
X145354901Y-67075000D01*
X145474580Y-66956791D01*
X145551282Y-66774911D01*
X145508455Y-66654000D01*
X144404000Y-66654000D01*
X144404000Y-66674000D01*
X144096000Y-66674000D01*
X144096000Y-66654000D01*
X142991545Y-66654000D01*
X142948718Y-66774911D01*
X143025420Y-66956791D01*
X143251576Y-67180170D01*
X143546000Y-67300000D01*
X143634314Y-67300000D01*
X143145018Y-67789298D01*
X143111616Y-67811616D01*
X143033177Y-67929011D01*
X143023209Y-67943929D01*
X142992164Y-68100000D01*
X143000000Y-68139394D01*
X143000001Y-70934313D01*
X142534316Y-71400000D01*
X140965685Y-71400000D01*
X140475000Y-70909316D01*
X140475000Y-70127848D01*
X140572442Y-69982016D01*
X140612377Y-69781250D01*
X140612377Y-69268750D01*
X140572442Y-69067984D01*
X140458717Y-68897783D01*
X140400000Y-68858549D01*
X140400000Y-55841564D01*
X140533717Y-55752217D01*
X140647442Y-55582016D01*
X140687377Y-55381250D01*
X140687377Y-55378307D01*
X141196444Y-54869241D01*
X141181623Y-54943750D01*
G36*
X160293794Y-62943394D02*
X160336029Y-63398939D01*
X160429102Y-63623637D01*
X160582710Y-63724498D01*
X160523385Y-63783823D01*
X160569563Y-63830001D01*
X159214686Y-63830001D01*
X159104702Y-63720018D01*
X159082384Y-63686616D01*
X158985085Y-63621603D01*
X158997386Y-63613384D01*
X159019705Y-63579982D01*
X159874682Y-62725006D01*
X160361409Y-62725006D01*
X160293794Y-62943394D01*
X160293794Y-62943394D01*
G37*
X160293794Y-62943394D02*
X160336029Y-63398939D01*
X160429102Y-63623637D01*
X160582710Y-63724498D01*
X160523385Y-63783823D01*
X160569563Y-63830001D01*
X159214686Y-63830001D01*
X159104702Y-63720018D01*
X159082384Y-63686616D01*
X158985085Y-63621603D01*
X158997386Y-63613384D01*
X159019705Y-63579982D01*
X159874682Y-62725006D01*
X160361409Y-62725006D01*
X160293794Y-62943394D01*
G36*
X161691931Y-63050858D02*
X161677789Y-63065000D01*
X161691931Y-63079142D01*
X161474142Y-63296931D01*
X161460000Y-63282789D01*
X161445858Y-63296931D01*
X161228069Y-63079142D01*
X161242211Y-63065000D01*
X161228069Y-63050858D01*
X161445858Y-62833069D01*
X161460000Y-62847211D01*
X161474142Y-62833069D01*
X161691931Y-63050858D01*
X161691931Y-63050858D01*
G37*
X161691931Y-63050858D02*
X161677789Y-63065000D01*
X161691931Y-63079142D01*
X161474142Y-63296931D01*
X161460000Y-63282789D01*
X161445858Y-63296931D01*
X161228069Y-63079142D01*
X161242211Y-63065000D01*
X161228069Y-63050858D01*
X161445858Y-62833069D01*
X161460000Y-62847211D01*
X161474142Y-62833069D01*
X161691931Y-63050858D01*
G36*
X144904000Y-59070000D02*
X144596000Y-59070000D01*
X144596000Y-58770000D01*
X144904000Y-58770000D01*
X144904000Y-59070000D01*
X144904000Y-59070000D01*
G37*
X144904000Y-59070000D02*
X144596000Y-59070000D01*
X144596000Y-58770000D01*
X144904000Y-58770000D01*
X144904000Y-59070000D01*
G04 #@! TD*
M02*
