G04 #@! TF.GenerationSoftware,KiCad,Pcbnew,(5.0.0)*
G04 #@! TF.CreationDate,2020-02-27T10:51:14+00:00*
G04 #@! TF.ProjectId,simpleJtag,73696D706C654A7461672E6B69636164,rev?*
G04 #@! TF.SameCoordinates,Original*
G04 #@! TF.FileFunction,Legend,Top*
G04 #@! TF.FilePolarity,Positive*
%FSLAX46Y46*%
G04 Gerber Fmt 4.6, Leading zero omitted, Abs format (unit mm)*
G04 Created by KiCad (PCBNEW (5.0.0)) date 02/27/20 10:51:14*
%MOMM*%
%LPD*%
G01*
G04 APERTURE LIST*
%ADD10C,0.120000*%
%ADD11C,0.150000*%
%ADD12C,0.010000*%
G04 APERTURE END LIST*
D10*
G04 #@! TO.C,P1*
X142870000Y-57520000D02*
X142870000Y-59020000D01*
X142870000Y-57520000D02*
X135610000Y-57520000D01*
X142870000Y-67020000D02*
X135610000Y-67020000D01*
X142870000Y-65520000D02*
X142870000Y-67020000D01*
G04 #@! TO.C,Y1*
X149269000Y-58525000D02*
X145969000Y-58525000D01*
X145969000Y-58525000D02*
X145969000Y-62525000D01*
G04 #@! TO.C,F1*
X144002064Y-70860000D02*
X142797936Y-70860000D01*
X144002064Y-68140000D02*
X142797936Y-68140000D01*
D11*
G04 #@! TO.C,U2*
X158669000Y-66450000D02*
X152694000Y-66450000D01*
X157144000Y-59550000D02*
X152694000Y-59550000D01*
D10*
G04 #@! TO.C,C1*
X156490000Y-70262779D02*
X156490000Y-69937221D01*
X157510000Y-70262779D02*
X157510000Y-69937221D01*
G04 #@! TO.C,C2*
X151510000Y-70162779D02*
X151510000Y-69837221D01*
X150490000Y-70162779D02*
X150490000Y-69837221D01*
G04 #@! TO.C,C3*
X146490000Y-65762779D02*
X146490000Y-65437221D01*
X147510000Y-65762779D02*
X147510000Y-65437221D01*
G04 #@! TO.C,C4*
X149110000Y-65750279D02*
X149110000Y-65424721D01*
X148090000Y-65750279D02*
X148090000Y-65424721D01*
G04 #@! TO.C,C5*
X160750279Y-54710000D02*
X160424721Y-54710000D01*
X160750279Y-53690000D02*
X160424721Y-53690000D01*
G04 #@! TO.C,C6*
X160762779Y-56310000D02*
X160437221Y-56310000D01*
X160762779Y-55290000D02*
X160437221Y-55290000D01*
G04 #@! TO.C,C7*
X156337221Y-56810000D02*
X156662779Y-56810000D01*
X156337221Y-55790000D02*
X156662779Y-55790000D01*
G04 #@! TO.C,D1*
X133946500Y-56085000D02*
X136631500Y-56085000D01*
X133946500Y-54165000D02*
X133946500Y-56085000D01*
X136631500Y-54165000D02*
X133946500Y-54165000D01*
G04 #@! TO.C,D2*
X136369000Y-68565000D02*
X133684000Y-68565000D01*
X133684000Y-68565000D02*
X133684000Y-70485000D01*
X133684000Y-70485000D02*
X136369000Y-70485000D01*
G04 #@! TO.C,JP1*
X153410000Y-56330000D02*
X153410000Y-53670000D01*
X148270000Y-56330000D02*
X153410000Y-56330000D01*
X148270000Y-53670000D02*
X153410000Y-53670000D01*
X148270000Y-56330000D02*
X148270000Y-53670000D01*
X147000000Y-56330000D02*
X145670000Y-56330000D01*
X145670000Y-56330000D02*
X145670000Y-55000000D01*
G04 #@! TO.C,R1*
X142875279Y-55710000D02*
X142549721Y-55710000D01*
X142875279Y-54690000D02*
X142549721Y-54690000D01*
G04 #@! TO.C,R2*
X139319279Y-54615000D02*
X138993721Y-54615000D01*
X139319279Y-55635000D02*
X138993721Y-55635000D01*
G04 #@! TO.C,R3*
X139244279Y-70035000D02*
X138918721Y-70035000D01*
X139244279Y-69015000D02*
X138918721Y-69015000D01*
G04 #@! TO.C,R4*
X156424721Y-58410000D02*
X156750279Y-58410000D01*
X156424721Y-57390000D02*
X156750279Y-57390000D01*
G04 #@! TO.C,U1*
X154760000Y-71580000D02*
X153300000Y-71580000D01*
X154760000Y-68420000D02*
X152600000Y-68420000D01*
X154760000Y-68420000D02*
X154760000Y-69350000D01*
X154760000Y-71580000D02*
X154760000Y-70650000D01*
G04 #@! TO.C,C8*
X147393721Y-58135000D02*
X147719279Y-58135000D01*
X147393721Y-57115000D02*
X147719279Y-57115000D01*
G04 #@! TO.C,C9*
X147844279Y-63835000D02*
X147518721Y-63835000D01*
X147844279Y-62815000D02*
X147518721Y-62815000D01*
D12*
G04 #@! TO.C,G\002A\002A\002A*
G36*
X134898063Y-71471679D02*
X135113204Y-72116228D01*
X134975083Y-72116228D01*
X134888540Y-72112536D01*
X134841039Y-72090343D01*
X134810006Y-72032971D01*
X134791968Y-71980953D01*
X134746974Y-71845677D01*
X134507338Y-71836461D01*
X134267702Y-71827246D01*
X134227247Y-71971737D01*
X134198784Y-72059764D01*
X134167304Y-72102148D01*
X134115942Y-72115385D01*
X134079525Y-72116228D01*
X134007728Y-72110020D01*
X133973407Y-72094827D01*
X133972898Y-72092356D01*
X133982445Y-72056134D01*
X134008730Y-71968783D01*
X134048819Y-71839718D01*
X134099783Y-71678355D01*
X134130804Y-71581325D01*
X134354213Y-71581325D01*
X134382815Y-71596080D01*
X134455792Y-71605344D01*
X134510024Y-71606955D01*
X134665834Y-71606955D01*
X134604869Y-71408020D01*
X134570348Y-71297388D01*
X134541072Y-71207109D01*
X134525080Y-71161341D01*
X134508735Y-71169935D01*
X134479005Y-71222987D01*
X134442404Y-71304487D01*
X134405444Y-71398423D01*
X134374641Y-71488785D01*
X134356507Y-71559562D01*
X134354213Y-71581325D01*
X134130804Y-71581325D01*
X134158689Y-71494108D01*
X134173593Y-71447807D01*
X134373649Y-70827130D01*
X134682923Y-70827130D01*
X134898063Y-71471679D01*
X134898063Y-71471679D01*
G37*
X134898063Y-71471679D02*
X135113204Y-72116228D01*
X134975083Y-72116228D01*
X134888540Y-72112536D01*
X134841039Y-72090343D01*
X134810006Y-72032971D01*
X134791968Y-71980953D01*
X134746974Y-71845677D01*
X134507338Y-71836461D01*
X134267702Y-71827246D01*
X134227247Y-71971737D01*
X134198784Y-72059764D01*
X134167304Y-72102148D01*
X134115942Y-72115385D01*
X134079525Y-72116228D01*
X134007728Y-72110020D01*
X133973407Y-72094827D01*
X133972898Y-72092356D01*
X133982445Y-72056134D01*
X134008730Y-71968783D01*
X134048819Y-71839718D01*
X134099783Y-71678355D01*
X134130804Y-71581325D01*
X134354213Y-71581325D01*
X134382815Y-71596080D01*
X134455792Y-71605344D01*
X134510024Y-71606955D01*
X134665834Y-71606955D01*
X134604869Y-71408020D01*
X134570348Y-71297388D01*
X134541072Y-71207109D01*
X134525080Y-71161341D01*
X134508735Y-71169935D01*
X134479005Y-71222987D01*
X134442404Y-71304487D01*
X134405444Y-71398423D01*
X134374641Y-71488785D01*
X134356507Y-71559562D01*
X134354213Y-71581325D01*
X134130804Y-71581325D01*
X134158689Y-71494108D01*
X134173593Y-71447807D01*
X134373649Y-70827130D01*
X134682923Y-70827130D01*
X134898063Y-71471679D01*
G36*
X136351381Y-70914407D02*
X136359064Y-70973768D01*
X136359477Y-71023621D01*
X136362547Y-71109503D01*
X136379893Y-71149358D01*
X136423716Y-71160785D01*
X136454965Y-71161341D01*
X136522600Y-71169228D01*
X136547529Y-71206431D01*
X136550454Y-71256830D01*
X136542567Y-71324464D01*
X136505364Y-71349393D01*
X136454965Y-71352318D01*
X136359477Y-71352318D01*
X136359477Y-71588437D01*
X136362038Y-71739164D01*
X136372596Y-71837273D01*
X136395459Y-71893699D01*
X136434937Y-71919377D01*
X136492217Y-71925251D01*
X136556121Y-71931323D01*
X136578485Y-71962669D01*
X136576343Y-72028697D01*
X136564822Y-72094269D01*
X136534334Y-72126096D01*
X136465700Y-72139165D01*
X136431459Y-72141913D01*
X136330524Y-72139917D01*
X136258832Y-72108796D01*
X136216609Y-72071743D01*
X136180023Y-72030769D01*
X136156694Y-71986390D01*
X136143664Y-71923819D01*
X136137977Y-71828267D01*
X136136673Y-71684947D01*
X136136670Y-71672061D01*
X136135803Y-71526804D01*
X136131678Y-71433702D01*
X136122005Y-71381257D01*
X136104495Y-71357973D01*
X136076860Y-71352352D01*
X136073010Y-71352318D01*
X136026414Y-71337313D01*
X136010008Y-71281479D01*
X136009351Y-71256830D01*
X136019407Y-71186869D01*
X136056685Y-71162286D01*
X136072634Y-71161341D01*
X136118171Y-71145735D01*
X136145377Y-71089108D01*
X136155782Y-71037111D01*
X136175910Y-70953950D01*
X136211520Y-70914249D01*
X136267562Y-70899390D01*
X136324787Y-70894895D01*
X136351381Y-70914407D01*
X136351381Y-70914407D01*
G37*
X136351381Y-70914407D02*
X136359064Y-70973768D01*
X136359477Y-71023621D01*
X136362547Y-71109503D01*
X136379893Y-71149358D01*
X136423716Y-71160785D01*
X136454965Y-71161341D01*
X136522600Y-71169228D01*
X136547529Y-71206431D01*
X136550454Y-71256830D01*
X136542567Y-71324464D01*
X136505364Y-71349393D01*
X136454965Y-71352318D01*
X136359477Y-71352318D01*
X136359477Y-71588437D01*
X136362038Y-71739164D01*
X136372596Y-71837273D01*
X136395459Y-71893699D01*
X136434937Y-71919377D01*
X136492217Y-71925251D01*
X136556121Y-71931323D01*
X136578485Y-71962669D01*
X136576343Y-72028697D01*
X136564822Y-72094269D01*
X136534334Y-72126096D01*
X136465700Y-72139165D01*
X136431459Y-72141913D01*
X136330524Y-72139917D01*
X136258832Y-72108796D01*
X136216609Y-72071743D01*
X136180023Y-72030769D01*
X136156694Y-71986390D01*
X136143664Y-71923819D01*
X136137977Y-71828267D01*
X136136673Y-71684947D01*
X136136670Y-71672061D01*
X136135803Y-71526804D01*
X136131678Y-71433702D01*
X136122005Y-71381257D01*
X136104495Y-71357973D01*
X136076860Y-71352352D01*
X136073010Y-71352318D01*
X136026414Y-71337313D01*
X136010008Y-71281479D01*
X136009351Y-71256830D01*
X136019407Y-71186869D01*
X136056685Y-71162286D01*
X136072634Y-71161341D01*
X136118171Y-71145735D01*
X136145377Y-71089108D01*
X136155782Y-71037111D01*
X136175910Y-70953950D01*
X136211520Y-70914249D01*
X136267562Y-70899390D01*
X136324787Y-70894895D01*
X136351381Y-70914407D01*
G36*
X135699276Y-71144899D02*
X135818177Y-71198250D01*
X135909665Y-71294540D01*
X135934643Y-71343139D01*
X135962459Y-71421810D01*
X135960140Y-71464387D01*
X135940093Y-71483771D01*
X135853306Y-71510665D01*
X135776432Y-71487344D01*
X135738390Y-71439850D01*
X135697041Y-71387555D01*
X135622394Y-71368908D01*
X135595567Y-71368233D01*
X135525128Y-71373547D01*
X135484059Y-71400600D01*
X135453685Y-71466061D01*
X135440325Y-71506803D01*
X135414389Y-71618523D01*
X135419800Y-71715261D01*
X135434149Y-71771079D01*
X135468356Y-71854484D01*
X135507342Y-71907938D01*
X135517846Y-71914451D01*
X135601190Y-71921139D01*
X135683563Y-71891701D01*
X135735962Y-71837262D01*
X135738823Y-71829688D01*
X135772880Y-71783327D01*
X135846078Y-71766634D01*
X135870408Y-71766103D01*
X135943633Y-71770531D01*
X135968463Y-71791751D01*
X135961129Y-71837719D01*
X135895141Y-71973347D01*
X135793495Y-72074210D01*
X135669679Y-72134833D01*
X135537183Y-72149738D01*
X135409496Y-72113449D01*
X135360502Y-72081588D01*
X135284632Y-72004002D01*
X135223888Y-71914483D01*
X135186976Y-71794784D01*
X135174576Y-71644686D01*
X135186495Y-71492463D01*
X135222542Y-71366385D01*
X135227691Y-71355869D01*
X135317169Y-71239971D01*
X135434864Y-71166009D01*
X135566869Y-71134235D01*
X135699276Y-71144899D01*
X135699276Y-71144899D01*
G37*
X135699276Y-71144899D02*
X135818177Y-71198250D01*
X135909665Y-71294540D01*
X135934643Y-71343139D01*
X135962459Y-71421810D01*
X135960140Y-71464387D01*
X135940093Y-71483771D01*
X135853306Y-71510665D01*
X135776432Y-71487344D01*
X135738390Y-71439850D01*
X135697041Y-71387555D01*
X135622394Y-71368908D01*
X135595567Y-71368233D01*
X135525128Y-71373547D01*
X135484059Y-71400600D01*
X135453685Y-71466061D01*
X135440325Y-71506803D01*
X135414389Y-71618523D01*
X135419800Y-71715261D01*
X135434149Y-71771079D01*
X135468356Y-71854484D01*
X135507342Y-71907938D01*
X135517846Y-71914451D01*
X135601190Y-71921139D01*
X135683563Y-71891701D01*
X135735962Y-71837262D01*
X135738823Y-71829688D01*
X135772880Y-71783327D01*
X135846078Y-71766634D01*
X135870408Y-71766103D01*
X135943633Y-71770531D01*
X135968463Y-71791751D01*
X135961129Y-71837719D01*
X135895141Y-71973347D01*
X135793495Y-72074210D01*
X135669679Y-72134833D01*
X135537183Y-72149738D01*
X135409496Y-72113449D01*
X135360502Y-72081588D01*
X135284632Y-72004002D01*
X135223888Y-71914483D01*
X135186976Y-71794784D01*
X135174576Y-71644686D01*
X135186495Y-71492463D01*
X135222542Y-71366385D01*
X135227691Y-71355869D01*
X135317169Y-71239971D01*
X135434864Y-71166009D01*
X135566869Y-71134235D01*
X135699276Y-71144899D01*
G36*
X165960980Y-72020740D02*
X166597572Y-72020740D01*
X166597572Y-72370865D01*
X164846945Y-72370865D01*
X164846945Y-72020740D01*
X165515366Y-72020740D01*
X165515366Y-71350440D01*
X165514613Y-71120234D01*
X165512095Y-70947380D01*
X165507424Y-70825588D01*
X165500213Y-70748565D01*
X165490076Y-70710020D01*
X165476624Y-70703662D01*
X165475579Y-70704241D01*
X165428308Y-70735380D01*
X165349953Y-70789271D01*
X165292559Y-70829507D01*
X165187681Y-70899302D01*
X165081948Y-70962744D01*
X164991970Y-71010513D01*
X164934361Y-71033287D01*
X164928100Y-71034023D01*
X164919339Y-71004930D01*
X164913063Y-70928581D01*
X164910605Y-70821367D01*
X164910604Y-70819011D01*
X164910604Y-70603999D01*
X165102395Y-70529631D01*
X165283183Y-70435919D01*
X165465637Y-70291686D01*
X165491821Y-70267199D01*
X165592788Y-70174132D01*
X165665713Y-70117916D01*
X165726657Y-70089492D01*
X165791679Y-70079800D01*
X165825219Y-70079136D01*
X165960980Y-70079136D01*
X165960980Y-72020740D01*
X165960980Y-72020740D01*
G37*
X165960980Y-72020740D02*
X166597572Y-72020740D01*
X166597572Y-72370865D01*
X164846945Y-72370865D01*
X164846945Y-72020740D01*
X165515366Y-72020740D01*
X165515366Y-71350440D01*
X165514613Y-71120234D01*
X165512095Y-70947380D01*
X165507424Y-70825588D01*
X165500213Y-70748565D01*
X165490076Y-70710020D01*
X165476624Y-70703662D01*
X165475579Y-70704241D01*
X165428308Y-70735380D01*
X165349953Y-70789271D01*
X165292559Y-70829507D01*
X165187681Y-70899302D01*
X165081948Y-70962744D01*
X164991970Y-71010513D01*
X164934361Y-71033287D01*
X164928100Y-71034023D01*
X164919339Y-71004930D01*
X164913063Y-70928581D01*
X164910605Y-70821367D01*
X164910604Y-70819011D01*
X164910604Y-70603999D01*
X165102395Y-70529631D01*
X165283183Y-70435919D01*
X165465637Y-70291686D01*
X165491821Y-70267199D01*
X165592788Y-70174132D01*
X165665713Y-70117916D01*
X165726657Y-70089492D01*
X165791679Y-70079800D01*
X165825219Y-70079136D01*
X165960980Y-70079136D01*
X165960980Y-72020740D01*
G36*
X164539456Y-70114387D02*
X164605890Y-70122696D01*
X164624138Y-70131629D01*
X164614922Y-70165098D01*
X164588996Y-70250998D01*
X164548947Y-70381097D01*
X164497362Y-70547162D01*
X164436828Y-70740959D01*
X164369930Y-70954256D01*
X164299255Y-71178820D01*
X164227389Y-71406418D01*
X164156919Y-71628817D01*
X164090431Y-71837783D01*
X164030511Y-72025085D01*
X163983170Y-72171930D01*
X163918697Y-72370865D01*
X163700364Y-72370865D01*
X163589273Y-72367640D01*
X163506146Y-72359174D01*
X163468624Y-72347284D01*
X163468441Y-72346993D01*
X163456037Y-72311894D01*
X163427609Y-72224555D01*
X163385752Y-72093318D01*
X163333060Y-71926524D01*
X163272125Y-71732515D01*
X163205541Y-71519631D01*
X163135903Y-71296214D01*
X163065804Y-71070606D01*
X162997837Y-70851148D01*
X162934596Y-70646182D01*
X162878675Y-70464048D01*
X162832667Y-70313089D01*
X162799167Y-70201646D01*
X162780767Y-70138060D01*
X162778023Y-70126545D01*
X162807159Y-70118801D01*
X162884012Y-70115401D01*
X162992748Y-70116968D01*
X163007398Y-70117528D01*
X163236773Y-70126880D01*
X163481517Y-70932556D01*
X163547226Y-71147809D01*
X163607225Y-71342332D01*
X163658961Y-71508021D01*
X163699888Y-71636774D01*
X163727454Y-71720487D01*
X163738994Y-71750967D01*
X163751247Y-71725243D01*
X163779397Y-71646255D01*
X163820935Y-71521675D01*
X163873353Y-71359180D01*
X163934140Y-71166443D01*
X164000788Y-70951139D01*
X164004913Y-70937687D01*
X164258098Y-70111673D01*
X164441118Y-70111319D01*
X164539456Y-70114387D01*
X164539456Y-70114387D01*
G37*
X164539456Y-70114387D02*
X164605890Y-70122696D01*
X164624138Y-70131629D01*
X164614922Y-70165098D01*
X164588996Y-70250998D01*
X164548947Y-70381097D01*
X164497362Y-70547162D01*
X164436828Y-70740959D01*
X164369930Y-70954256D01*
X164299255Y-71178820D01*
X164227389Y-71406418D01*
X164156919Y-71628817D01*
X164090431Y-71837783D01*
X164030511Y-72025085D01*
X163983170Y-72171930D01*
X163918697Y-72370865D01*
X163700364Y-72370865D01*
X163589273Y-72367640D01*
X163506146Y-72359174D01*
X163468624Y-72347284D01*
X163468441Y-72346993D01*
X163456037Y-72311894D01*
X163427609Y-72224555D01*
X163385752Y-72093318D01*
X163333060Y-71926524D01*
X163272125Y-71732515D01*
X163205541Y-71519631D01*
X163135903Y-71296214D01*
X163065804Y-71070606D01*
X162997837Y-70851148D01*
X162934596Y-70646182D01*
X162878675Y-70464048D01*
X162832667Y-70313089D01*
X162799167Y-70201646D01*
X162780767Y-70138060D01*
X162778023Y-70126545D01*
X162807159Y-70118801D01*
X162884012Y-70115401D01*
X162992748Y-70116968D01*
X163007398Y-70117528D01*
X163236773Y-70126880D01*
X163481517Y-70932556D01*
X163547226Y-71147809D01*
X163607225Y-71342332D01*
X163658961Y-71508021D01*
X163699888Y-71636774D01*
X163727454Y-71720487D01*
X163738994Y-71750967D01*
X163751247Y-71725243D01*
X163779397Y-71646255D01*
X163820935Y-71521675D01*
X163873353Y-71359180D01*
X163934140Y-71166443D01*
X164000788Y-70951139D01*
X164004913Y-70937687D01*
X164258098Y-70111673D01*
X164441118Y-70111319D01*
X164539456Y-70114387D01*
G36*
X161722244Y-71027016D02*
X161719072Y-71292537D01*
X161715897Y-71502438D01*
X161712036Y-71664756D01*
X161706809Y-71787527D01*
X161699535Y-71878788D01*
X161689532Y-71946575D01*
X161676120Y-71998923D01*
X161658617Y-72043870D01*
X161636342Y-72089451D01*
X161631377Y-72099111D01*
X161548788Y-72226012D01*
X161445900Y-72314671D01*
X161311835Y-72370156D01*
X161135720Y-72397536D01*
X160979951Y-72402694D01*
X160849333Y-72400519D01*
X160743851Y-72394690D01*
X160678965Y-72386255D01*
X160666661Y-72381475D01*
X160654646Y-72339955D01*
X160646955Y-72256699D01*
X160645441Y-72193505D01*
X160645441Y-72026755D01*
X160882962Y-72031705D01*
X161033400Y-72028628D01*
X161133677Y-72006115D01*
X161196379Y-71955475D01*
X161234090Y-71868017D01*
X161253035Y-71776152D01*
X161260331Y-71700494D01*
X161266964Y-71572448D01*
X161272600Y-71403283D01*
X161276901Y-71204270D01*
X161279531Y-70986679D01*
X161280136Y-70866917D01*
X161282033Y-70110965D01*
X161732756Y-70110965D01*
X161722244Y-71027016D01*
X161722244Y-71027016D01*
G37*
X161722244Y-71027016D02*
X161719072Y-71292537D01*
X161715897Y-71502438D01*
X161712036Y-71664756D01*
X161706809Y-71787527D01*
X161699535Y-71878788D01*
X161689532Y-71946575D01*
X161676120Y-71998923D01*
X161658617Y-72043870D01*
X161636342Y-72089451D01*
X161631377Y-72099111D01*
X161548788Y-72226012D01*
X161445900Y-72314671D01*
X161311835Y-72370156D01*
X161135720Y-72397536D01*
X160979951Y-72402694D01*
X160849333Y-72400519D01*
X160743851Y-72394690D01*
X160678965Y-72386255D01*
X160666661Y-72381475D01*
X160654646Y-72339955D01*
X160646955Y-72256699D01*
X160645441Y-72193505D01*
X160645441Y-72026755D01*
X160882962Y-72031705D01*
X161033400Y-72028628D01*
X161133677Y-72006115D01*
X161196379Y-71955475D01*
X161234090Y-71868017D01*
X161253035Y-71776152D01*
X161260331Y-71700494D01*
X161266964Y-71572448D01*
X161272600Y-71403283D01*
X161276901Y-71204270D01*
X161279531Y-70986679D01*
X161280136Y-70866917D01*
X161282033Y-70110965D01*
X161732756Y-70110965D01*
X161722244Y-71027016D01*
G36*
X159657978Y-70097610D02*
X159855331Y-70106150D01*
X160007908Y-70131536D01*
X160133550Y-70179140D01*
X160250099Y-70254331D01*
X160292617Y-70288641D01*
X160361351Y-70358001D01*
X160422741Y-70438920D01*
X160465966Y-70514322D01*
X160480202Y-70567131D01*
X160475816Y-70577666D01*
X160439159Y-70593212D01*
X160359537Y-70618070D01*
X160276085Y-70641033D01*
X160091525Y-70689228D01*
X160028756Y-70603060D01*
X159936187Y-70514886D01*
X159820068Y-70460038D01*
X159692139Y-70436408D01*
X159564140Y-70441887D01*
X159447811Y-70474365D01*
X159354892Y-70531736D01*
X159297123Y-70611889D01*
X159286244Y-70712717D01*
X159290832Y-70735594D01*
X159331392Y-70808876D01*
X159417502Y-70874040D01*
X159554792Y-70934066D01*
X159748892Y-70991937D01*
X159798319Y-71004319D01*
X160034233Y-71069158D01*
X160215028Y-71137849D01*
X160349201Y-71216565D01*
X160445250Y-71311477D01*
X160511673Y-71428759D01*
X160551338Y-71551253D01*
X160570464Y-71748374D01*
X160530058Y-71934314D01*
X160434184Y-72100674D01*
X160286909Y-72239055D01*
X160189896Y-72297926D01*
X160034471Y-72354136D01*
X159840645Y-72388885D01*
X159630326Y-72401093D01*
X159425423Y-72389681D01*
X159247842Y-72353569D01*
X159223693Y-72345521D01*
X159104702Y-72294386D01*
X158991163Y-72231764D01*
X158949239Y-72203055D01*
X158882702Y-72138271D01*
X158815949Y-72051376D01*
X158759503Y-71959578D01*
X158723886Y-71880083D01*
X158719621Y-71830098D01*
X158720360Y-71828779D01*
X158754316Y-71813166D01*
X158828701Y-71792014D01*
X158923401Y-71769697D01*
X159018304Y-71750586D01*
X159093296Y-71739053D01*
X159128263Y-71739471D01*
X159128674Y-71740020D01*
X159215425Y-71886263D01*
X159317944Y-71981649D01*
X159449830Y-72034300D01*
X159624681Y-72052342D01*
X159651851Y-72052569D01*
X159844351Y-72034957D01*
X159983882Y-71982137D01*
X160070407Y-71894136D01*
X160103885Y-71770980D01*
X160104339Y-71752281D01*
X160076767Y-71654847D01*
X159992442Y-71575160D01*
X159848951Y-71511211D01*
X159795254Y-71495137D01*
X159565155Y-71430871D01*
X159388081Y-71378481D01*
X159255271Y-71334510D01*
X159157966Y-71295500D01*
X159087405Y-71257991D01*
X159034830Y-71218525D01*
X158996970Y-71179985D01*
X158889099Y-71013691D01*
X158837883Y-70833969D01*
X158841151Y-70651722D01*
X158896732Y-70477855D01*
X159002457Y-70323273D01*
X159156153Y-70198880D01*
X159196740Y-70176363D01*
X159281352Y-70136988D01*
X159361086Y-70112961D01*
X159455867Y-70100880D01*
X159585616Y-70097344D01*
X159657978Y-70097610D01*
X159657978Y-70097610D01*
G37*
X159657978Y-70097610D02*
X159855331Y-70106150D01*
X160007908Y-70131536D01*
X160133550Y-70179140D01*
X160250099Y-70254331D01*
X160292617Y-70288641D01*
X160361351Y-70358001D01*
X160422741Y-70438920D01*
X160465966Y-70514322D01*
X160480202Y-70567131D01*
X160475816Y-70577666D01*
X160439159Y-70593212D01*
X160359537Y-70618070D01*
X160276085Y-70641033D01*
X160091525Y-70689228D01*
X160028756Y-70603060D01*
X159936187Y-70514886D01*
X159820068Y-70460038D01*
X159692139Y-70436408D01*
X159564140Y-70441887D01*
X159447811Y-70474365D01*
X159354892Y-70531736D01*
X159297123Y-70611889D01*
X159286244Y-70712717D01*
X159290832Y-70735594D01*
X159331392Y-70808876D01*
X159417502Y-70874040D01*
X159554792Y-70934066D01*
X159748892Y-70991937D01*
X159798319Y-71004319D01*
X160034233Y-71069158D01*
X160215028Y-71137849D01*
X160349201Y-71216565D01*
X160445250Y-71311477D01*
X160511673Y-71428759D01*
X160551338Y-71551253D01*
X160570464Y-71748374D01*
X160530058Y-71934314D01*
X160434184Y-72100674D01*
X160286909Y-72239055D01*
X160189896Y-72297926D01*
X160034471Y-72354136D01*
X159840645Y-72388885D01*
X159630326Y-72401093D01*
X159425423Y-72389681D01*
X159247842Y-72353569D01*
X159223693Y-72345521D01*
X159104702Y-72294386D01*
X158991163Y-72231764D01*
X158949239Y-72203055D01*
X158882702Y-72138271D01*
X158815949Y-72051376D01*
X158759503Y-71959578D01*
X158723886Y-71880083D01*
X158719621Y-71830098D01*
X158720360Y-71828779D01*
X158754316Y-71813166D01*
X158828701Y-71792014D01*
X158923401Y-71769697D01*
X159018304Y-71750586D01*
X159093296Y-71739053D01*
X159128263Y-71739471D01*
X159128674Y-71740020D01*
X159215425Y-71886263D01*
X159317944Y-71981649D01*
X159449830Y-72034300D01*
X159624681Y-72052342D01*
X159651851Y-72052569D01*
X159844351Y-72034957D01*
X159983882Y-71982137D01*
X160070407Y-71894136D01*
X160103885Y-71770980D01*
X160104339Y-71752281D01*
X160076767Y-71654847D01*
X159992442Y-71575160D01*
X159848951Y-71511211D01*
X159795254Y-71495137D01*
X159565155Y-71430871D01*
X159388081Y-71378481D01*
X159255271Y-71334510D01*
X159157966Y-71295500D01*
X159087405Y-71257991D01*
X159034830Y-71218525D01*
X158996970Y-71179985D01*
X158889099Y-71013691D01*
X158837883Y-70833969D01*
X158841151Y-70651722D01*
X158896732Y-70477855D01*
X159002457Y-70323273D01*
X159156153Y-70198880D01*
X159196740Y-70176363D01*
X159281352Y-70136988D01*
X159361086Y-70112961D01*
X159455867Y-70100880D01*
X159585616Y-70097344D01*
X159657978Y-70097610D01*
G04 #@! TD*
M02*
