G04 #@! TF.GenerationSoftware,KiCad,Pcbnew,(5.0.0)*
G04 #@! TF.CreationDate,2020-02-27T10:51:14+00:00*
G04 #@! TF.ProjectId,simpleJtag,73696D706C654A7461672E6B69636164,rev?*
G04 #@! TF.SameCoordinates,Original*
G04 #@! TF.FileFunction,Paste,Top*
G04 #@! TF.FilePolarity,Positive*
%FSLAX46Y46*%
G04 Gerber Fmt 4.6, Leading zero omitted, Abs format (unit mm)*
G04 Created by KiCad (PCBNEW (5.0.0)) date 02/27/20 10:51:14*
%MOMM*%
%LPD*%
G01*
G04 APERTURE LIST*
%ADD10R,1.050000X0.300000*%
%ADD11R,1.200000X1.400000*%
%ADD12C,0.100000*%
%ADD13C,1.250000*%
%ADD14R,1.450000X0.450000*%
%ADD15C,0.875000*%
%ADD16C,0.975000*%
%ADD17R,0.900000X0.800000*%
G04 APERTURE END LIST*
D10*
G04 #@! TO.C,P1*
X144750000Y-63995000D03*
X144750000Y-65620000D03*
X144750000Y-65320000D03*
X144750000Y-64820000D03*
X144750000Y-64520000D03*
X144750000Y-63520000D03*
X144750000Y-63020000D03*
X144750000Y-58920000D03*
X144750000Y-59220000D03*
X144750000Y-59720000D03*
X144750000Y-60520000D03*
X144750000Y-60020000D03*
X144750000Y-61020000D03*
X144750000Y-61520000D03*
X144750000Y-62020000D03*
X144750000Y-62520000D03*
G04 #@! TD*
D11*
G04 #@! TO.C,Y1*
X146769000Y-59425000D03*
X146769000Y-61625000D03*
X148469000Y-61625000D03*
X148469000Y-59425000D03*
G04 #@! TD*
D12*
G04 #@! TO.C,F1*
G36*
X145199504Y-68176204D02*
X145223773Y-68179804D01*
X145247571Y-68185765D01*
X145270671Y-68194030D01*
X145292849Y-68204520D01*
X145313893Y-68217133D01*
X145333598Y-68231747D01*
X145351777Y-68248223D01*
X145368253Y-68266402D01*
X145382867Y-68286107D01*
X145395480Y-68307151D01*
X145405970Y-68329329D01*
X145414235Y-68352429D01*
X145420196Y-68376227D01*
X145423796Y-68400496D01*
X145425000Y-68425000D01*
X145425000Y-70575000D01*
X145423796Y-70599504D01*
X145420196Y-70623773D01*
X145414235Y-70647571D01*
X145405970Y-70670671D01*
X145395480Y-70692849D01*
X145382867Y-70713893D01*
X145368253Y-70733598D01*
X145351777Y-70751777D01*
X145333598Y-70768253D01*
X145313893Y-70782867D01*
X145292849Y-70795480D01*
X145270671Y-70805970D01*
X145247571Y-70814235D01*
X145223773Y-70820196D01*
X145199504Y-70823796D01*
X145175000Y-70825000D01*
X144425000Y-70825000D01*
X144400496Y-70823796D01*
X144376227Y-70820196D01*
X144352429Y-70814235D01*
X144329329Y-70805970D01*
X144307151Y-70795480D01*
X144286107Y-70782867D01*
X144266402Y-70768253D01*
X144248223Y-70751777D01*
X144231747Y-70733598D01*
X144217133Y-70713893D01*
X144204520Y-70692849D01*
X144194030Y-70670671D01*
X144185765Y-70647571D01*
X144179804Y-70623773D01*
X144176204Y-70599504D01*
X144175000Y-70575000D01*
X144175000Y-68425000D01*
X144176204Y-68400496D01*
X144179804Y-68376227D01*
X144185765Y-68352429D01*
X144194030Y-68329329D01*
X144204520Y-68307151D01*
X144217133Y-68286107D01*
X144231747Y-68266402D01*
X144248223Y-68248223D01*
X144266402Y-68231747D01*
X144286107Y-68217133D01*
X144307151Y-68204520D01*
X144329329Y-68194030D01*
X144352429Y-68185765D01*
X144376227Y-68179804D01*
X144400496Y-68176204D01*
X144425000Y-68175000D01*
X145175000Y-68175000D01*
X145199504Y-68176204D01*
X145199504Y-68176204D01*
G37*
D13*
X144800000Y-69500000D03*
D12*
G36*
X142399504Y-68176204D02*
X142423773Y-68179804D01*
X142447571Y-68185765D01*
X142470671Y-68194030D01*
X142492849Y-68204520D01*
X142513893Y-68217133D01*
X142533598Y-68231747D01*
X142551777Y-68248223D01*
X142568253Y-68266402D01*
X142582867Y-68286107D01*
X142595480Y-68307151D01*
X142605970Y-68329329D01*
X142614235Y-68352429D01*
X142620196Y-68376227D01*
X142623796Y-68400496D01*
X142625000Y-68425000D01*
X142625000Y-70575000D01*
X142623796Y-70599504D01*
X142620196Y-70623773D01*
X142614235Y-70647571D01*
X142605970Y-70670671D01*
X142595480Y-70692849D01*
X142582867Y-70713893D01*
X142568253Y-70733598D01*
X142551777Y-70751777D01*
X142533598Y-70768253D01*
X142513893Y-70782867D01*
X142492849Y-70795480D01*
X142470671Y-70805970D01*
X142447571Y-70814235D01*
X142423773Y-70820196D01*
X142399504Y-70823796D01*
X142375000Y-70825000D01*
X141625000Y-70825000D01*
X141600496Y-70823796D01*
X141576227Y-70820196D01*
X141552429Y-70814235D01*
X141529329Y-70805970D01*
X141507151Y-70795480D01*
X141486107Y-70782867D01*
X141466402Y-70768253D01*
X141448223Y-70751777D01*
X141431747Y-70733598D01*
X141417133Y-70713893D01*
X141404520Y-70692849D01*
X141394030Y-70670671D01*
X141385765Y-70647571D01*
X141379804Y-70623773D01*
X141376204Y-70599504D01*
X141375000Y-70575000D01*
X141375000Y-68425000D01*
X141376204Y-68400496D01*
X141379804Y-68376227D01*
X141385765Y-68352429D01*
X141394030Y-68329329D01*
X141404520Y-68307151D01*
X141417133Y-68286107D01*
X141431747Y-68266402D01*
X141448223Y-68248223D01*
X141466402Y-68231747D01*
X141486107Y-68217133D01*
X141507151Y-68204520D01*
X141529329Y-68194030D01*
X141552429Y-68185765D01*
X141576227Y-68179804D01*
X141600496Y-68176204D01*
X141625000Y-68175000D01*
X142375000Y-68175000D01*
X142399504Y-68176204D01*
X142399504Y-68176204D01*
G37*
D13*
X142000000Y-69500000D03*
G04 #@! TD*
D14*
G04 #@! TO.C,U2*
X151969000Y-65925000D03*
X151969000Y-65275000D03*
X151969000Y-64625000D03*
X151969000Y-63975000D03*
X151969000Y-63325000D03*
X151969000Y-62675000D03*
X151969000Y-62025000D03*
X151969000Y-61375000D03*
X151969000Y-60725000D03*
X151969000Y-60075000D03*
X157869000Y-60075000D03*
X157869000Y-60725000D03*
X157869000Y-61375000D03*
X157869000Y-62025000D03*
X157869000Y-62675000D03*
X157869000Y-63325000D03*
X157869000Y-63975000D03*
X157869000Y-64625000D03*
X157869000Y-65275000D03*
X157869000Y-65925000D03*
G04 #@! TD*
D12*
G04 #@! TO.C,C1*
G36*
X157277691Y-70451053D02*
X157298926Y-70454203D01*
X157319750Y-70459419D01*
X157339962Y-70466651D01*
X157359368Y-70475830D01*
X157377781Y-70486866D01*
X157395024Y-70499654D01*
X157410930Y-70514070D01*
X157425346Y-70529976D01*
X157438134Y-70547219D01*
X157449170Y-70565632D01*
X157458349Y-70585038D01*
X157465581Y-70605250D01*
X157470797Y-70626074D01*
X157473947Y-70647309D01*
X157475000Y-70668750D01*
X157475000Y-71106250D01*
X157473947Y-71127691D01*
X157470797Y-71148926D01*
X157465581Y-71169750D01*
X157458349Y-71189962D01*
X157449170Y-71209368D01*
X157438134Y-71227781D01*
X157425346Y-71245024D01*
X157410930Y-71260930D01*
X157395024Y-71275346D01*
X157377781Y-71288134D01*
X157359368Y-71299170D01*
X157339962Y-71308349D01*
X157319750Y-71315581D01*
X157298926Y-71320797D01*
X157277691Y-71323947D01*
X157256250Y-71325000D01*
X156743750Y-71325000D01*
X156722309Y-71323947D01*
X156701074Y-71320797D01*
X156680250Y-71315581D01*
X156660038Y-71308349D01*
X156640632Y-71299170D01*
X156622219Y-71288134D01*
X156604976Y-71275346D01*
X156589070Y-71260930D01*
X156574654Y-71245024D01*
X156561866Y-71227781D01*
X156550830Y-71209368D01*
X156541651Y-71189962D01*
X156534419Y-71169750D01*
X156529203Y-71148926D01*
X156526053Y-71127691D01*
X156525000Y-71106250D01*
X156525000Y-70668750D01*
X156526053Y-70647309D01*
X156529203Y-70626074D01*
X156534419Y-70605250D01*
X156541651Y-70585038D01*
X156550830Y-70565632D01*
X156561866Y-70547219D01*
X156574654Y-70529976D01*
X156589070Y-70514070D01*
X156604976Y-70499654D01*
X156622219Y-70486866D01*
X156640632Y-70475830D01*
X156660038Y-70466651D01*
X156680250Y-70459419D01*
X156701074Y-70454203D01*
X156722309Y-70451053D01*
X156743750Y-70450000D01*
X157256250Y-70450000D01*
X157277691Y-70451053D01*
X157277691Y-70451053D01*
G37*
D15*
X157000000Y-70887500D03*
D12*
G36*
X157277691Y-68876053D02*
X157298926Y-68879203D01*
X157319750Y-68884419D01*
X157339962Y-68891651D01*
X157359368Y-68900830D01*
X157377781Y-68911866D01*
X157395024Y-68924654D01*
X157410930Y-68939070D01*
X157425346Y-68954976D01*
X157438134Y-68972219D01*
X157449170Y-68990632D01*
X157458349Y-69010038D01*
X157465581Y-69030250D01*
X157470797Y-69051074D01*
X157473947Y-69072309D01*
X157475000Y-69093750D01*
X157475000Y-69531250D01*
X157473947Y-69552691D01*
X157470797Y-69573926D01*
X157465581Y-69594750D01*
X157458349Y-69614962D01*
X157449170Y-69634368D01*
X157438134Y-69652781D01*
X157425346Y-69670024D01*
X157410930Y-69685930D01*
X157395024Y-69700346D01*
X157377781Y-69713134D01*
X157359368Y-69724170D01*
X157339962Y-69733349D01*
X157319750Y-69740581D01*
X157298926Y-69745797D01*
X157277691Y-69748947D01*
X157256250Y-69750000D01*
X156743750Y-69750000D01*
X156722309Y-69748947D01*
X156701074Y-69745797D01*
X156680250Y-69740581D01*
X156660038Y-69733349D01*
X156640632Y-69724170D01*
X156622219Y-69713134D01*
X156604976Y-69700346D01*
X156589070Y-69685930D01*
X156574654Y-69670024D01*
X156561866Y-69652781D01*
X156550830Y-69634368D01*
X156541651Y-69614962D01*
X156534419Y-69594750D01*
X156529203Y-69573926D01*
X156526053Y-69552691D01*
X156525000Y-69531250D01*
X156525000Y-69093750D01*
X156526053Y-69072309D01*
X156529203Y-69051074D01*
X156534419Y-69030250D01*
X156541651Y-69010038D01*
X156550830Y-68990632D01*
X156561866Y-68972219D01*
X156574654Y-68954976D01*
X156589070Y-68939070D01*
X156604976Y-68924654D01*
X156622219Y-68911866D01*
X156640632Y-68900830D01*
X156660038Y-68891651D01*
X156680250Y-68884419D01*
X156701074Y-68879203D01*
X156722309Y-68876053D01*
X156743750Y-68875000D01*
X157256250Y-68875000D01*
X157277691Y-68876053D01*
X157277691Y-68876053D01*
G37*
D15*
X157000000Y-69312500D03*
G04 #@! TD*
D12*
G04 #@! TO.C,C2*
G36*
X151277691Y-68776053D02*
X151298926Y-68779203D01*
X151319750Y-68784419D01*
X151339962Y-68791651D01*
X151359368Y-68800830D01*
X151377781Y-68811866D01*
X151395024Y-68824654D01*
X151410930Y-68839070D01*
X151425346Y-68854976D01*
X151438134Y-68872219D01*
X151449170Y-68890632D01*
X151458349Y-68910038D01*
X151465581Y-68930250D01*
X151470797Y-68951074D01*
X151473947Y-68972309D01*
X151475000Y-68993750D01*
X151475000Y-69431250D01*
X151473947Y-69452691D01*
X151470797Y-69473926D01*
X151465581Y-69494750D01*
X151458349Y-69514962D01*
X151449170Y-69534368D01*
X151438134Y-69552781D01*
X151425346Y-69570024D01*
X151410930Y-69585930D01*
X151395024Y-69600346D01*
X151377781Y-69613134D01*
X151359368Y-69624170D01*
X151339962Y-69633349D01*
X151319750Y-69640581D01*
X151298926Y-69645797D01*
X151277691Y-69648947D01*
X151256250Y-69650000D01*
X150743750Y-69650000D01*
X150722309Y-69648947D01*
X150701074Y-69645797D01*
X150680250Y-69640581D01*
X150660038Y-69633349D01*
X150640632Y-69624170D01*
X150622219Y-69613134D01*
X150604976Y-69600346D01*
X150589070Y-69585930D01*
X150574654Y-69570024D01*
X150561866Y-69552781D01*
X150550830Y-69534368D01*
X150541651Y-69514962D01*
X150534419Y-69494750D01*
X150529203Y-69473926D01*
X150526053Y-69452691D01*
X150525000Y-69431250D01*
X150525000Y-68993750D01*
X150526053Y-68972309D01*
X150529203Y-68951074D01*
X150534419Y-68930250D01*
X150541651Y-68910038D01*
X150550830Y-68890632D01*
X150561866Y-68872219D01*
X150574654Y-68854976D01*
X150589070Y-68839070D01*
X150604976Y-68824654D01*
X150622219Y-68811866D01*
X150640632Y-68800830D01*
X150660038Y-68791651D01*
X150680250Y-68784419D01*
X150701074Y-68779203D01*
X150722309Y-68776053D01*
X150743750Y-68775000D01*
X151256250Y-68775000D01*
X151277691Y-68776053D01*
X151277691Y-68776053D01*
G37*
D15*
X151000000Y-69212500D03*
D12*
G36*
X151277691Y-70351053D02*
X151298926Y-70354203D01*
X151319750Y-70359419D01*
X151339962Y-70366651D01*
X151359368Y-70375830D01*
X151377781Y-70386866D01*
X151395024Y-70399654D01*
X151410930Y-70414070D01*
X151425346Y-70429976D01*
X151438134Y-70447219D01*
X151449170Y-70465632D01*
X151458349Y-70485038D01*
X151465581Y-70505250D01*
X151470797Y-70526074D01*
X151473947Y-70547309D01*
X151475000Y-70568750D01*
X151475000Y-71006250D01*
X151473947Y-71027691D01*
X151470797Y-71048926D01*
X151465581Y-71069750D01*
X151458349Y-71089962D01*
X151449170Y-71109368D01*
X151438134Y-71127781D01*
X151425346Y-71145024D01*
X151410930Y-71160930D01*
X151395024Y-71175346D01*
X151377781Y-71188134D01*
X151359368Y-71199170D01*
X151339962Y-71208349D01*
X151319750Y-71215581D01*
X151298926Y-71220797D01*
X151277691Y-71223947D01*
X151256250Y-71225000D01*
X150743750Y-71225000D01*
X150722309Y-71223947D01*
X150701074Y-71220797D01*
X150680250Y-71215581D01*
X150660038Y-71208349D01*
X150640632Y-71199170D01*
X150622219Y-71188134D01*
X150604976Y-71175346D01*
X150589070Y-71160930D01*
X150574654Y-71145024D01*
X150561866Y-71127781D01*
X150550830Y-71109368D01*
X150541651Y-71089962D01*
X150534419Y-71069750D01*
X150529203Y-71048926D01*
X150526053Y-71027691D01*
X150525000Y-71006250D01*
X150525000Y-70568750D01*
X150526053Y-70547309D01*
X150529203Y-70526074D01*
X150534419Y-70505250D01*
X150541651Y-70485038D01*
X150550830Y-70465632D01*
X150561866Y-70447219D01*
X150574654Y-70429976D01*
X150589070Y-70414070D01*
X150604976Y-70399654D01*
X150622219Y-70386866D01*
X150640632Y-70375830D01*
X150660038Y-70366651D01*
X150680250Y-70359419D01*
X150701074Y-70354203D01*
X150722309Y-70351053D01*
X150743750Y-70350000D01*
X151256250Y-70350000D01*
X151277691Y-70351053D01*
X151277691Y-70351053D01*
G37*
D15*
X151000000Y-70787500D03*
G04 #@! TD*
D12*
G04 #@! TO.C,C3*
G36*
X147277691Y-65951053D02*
X147298926Y-65954203D01*
X147319750Y-65959419D01*
X147339962Y-65966651D01*
X147359368Y-65975830D01*
X147377781Y-65986866D01*
X147395024Y-65999654D01*
X147410930Y-66014070D01*
X147425346Y-66029976D01*
X147438134Y-66047219D01*
X147449170Y-66065632D01*
X147458349Y-66085038D01*
X147465581Y-66105250D01*
X147470797Y-66126074D01*
X147473947Y-66147309D01*
X147475000Y-66168750D01*
X147475000Y-66606250D01*
X147473947Y-66627691D01*
X147470797Y-66648926D01*
X147465581Y-66669750D01*
X147458349Y-66689962D01*
X147449170Y-66709368D01*
X147438134Y-66727781D01*
X147425346Y-66745024D01*
X147410930Y-66760930D01*
X147395024Y-66775346D01*
X147377781Y-66788134D01*
X147359368Y-66799170D01*
X147339962Y-66808349D01*
X147319750Y-66815581D01*
X147298926Y-66820797D01*
X147277691Y-66823947D01*
X147256250Y-66825000D01*
X146743750Y-66825000D01*
X146722309Y-66823947D01*
X146701074Y-66820797D01*
X146680250Y-66815581D01*
X146660038Y-66808349D01*
X146640632Y-66799170D01*
X146622219Y-66788134D01*
X146604976Y-66775346D01*
X146589070Y-66760930D01*
X146574654Y-66745024D01*
X146561866Y-66727781D01*
X146550830Y-66709368D01*
X146541651Y-66689962D01*
X146534419Y-66669750D01*
X146529203Y-66648926D01*
X146526053Y-66627691D01*
X146525000Y-66606250D01*
X146525000Y-66168750D01*
X146526053Y-66147309D01*
X146529203Y-66126074D01*
X146534419Y-66105250D01*
X146541651Y-66085038D01*
X146550830Y-66065632D01*
X146561866Y-66047219D01*
X146574654Y-66029976D01*
X146589070Y-66014070D01*
X146604976Y-65999654D01*
X146622219Y-65986866D01*
X146640632Y-65975830D01*
X146660038Y-65966651D01*
X146680250Y-65959419D01*
X146701074Y-65954203D01*
X146722309Y-65951053D01*
X146743750Y-65950000D01*
X147256250Y-65950000D01*
X147277691Y-65951053D01*
X147277691Y-65951053D01*
G37*
D15*
X147000000Y-66387500D03*
D12*
G36*
X147277691Y-64376053D02*
X147298926Y-64379203D01*
X147319750Y-64384419D01*
X147339962Y-64391651D01*
X147359368Y-64400830D01*
X147377781Y-64411866D01*
X147395024Y-64424654D01*
X147410930Y-64439070D01*
X147425346Y-64454976D01*
X147438134Y-64472219D01*
X147449170Y-64490632D01*
X147458349Y-64510038D01*
X147465581Y-64530250D01*
X147470797Y-64551074D01*
X147473947Y-64572309D01*
X147475000Y-64593750D01*
X147475000Y-65031250D01*
X147473947Y-65052691D01*
X147470797Y-65073926D01*
X147465581Y-65094750D01*
X147458349Y-65114962D01*
X147449170Y-65134368D01*
X147438134Y-65152781D01*
X147425346Y-65170024D01*
X147410930Y-65185930D01*
X147395024Y-65200346D01*
X147377781Y-65213134D01*
X147359368Y-65224170D01*
X147339962Y-65233349D01*
X147319750Y-65240581D01*
X147298926Y-65245797D01*
X147277691Y-65248947D01*
X147256250Y-65250000D01*
X146743750Y-65250000D01*
X146722309Y-65248947D01*
X146701074Y-65245797D01*
X146680250Y-65240581D01*
X146660038Y-65233349D01*
X146640632Y-65224170D01*
X146622219Y-65213134D01*
X146604976Y-65200346D01*
X146589070Y-65185930D01*
X146574654Y-65170024D01*
X146561866Y-65152781D01*
X146550830Y-65134368D01*
X146541651Y-65114962D01*
X146534419Y-65094750D01*
X146529203Y-65073926D01*
X146526053Y-65052691D01*
X146525000Y-65031250D01*
X146525000Y-64593750D01*
X146526053Y-64572309D01*
X146529203Y-64551074D01*
X146534419Y-64530250D01*
X146541651Y-64510038D01*
X146550830Y-64490632D01*
X146561866Y-64472219D01*
X146574654Y-64454976D01*
X146589070Y-64439070D01*
X146604976Y-64424654D01*
X146622219Y-64411866D01*
X146640632Y-64400830D01*
X146660038Y-64391651D01*
X146680250Y-64384419D01*
X146701074Y-64379203D01*
X146722309Y-64376053D01*
X146743750Y-64375000D01*
X147256250Y-64375000D01*
X147277691Y-64376053D01*
X147277691Y-64376053D01*
G37*
D15*
X147000000Y-64812500D03*
G04 #@! TD*
D12*
G04 #@! TO.C,C4*
G36*
X148877691Y-64363553D02*
X148898926Y-64366703D01*
X148919750Y-64371919D01*
X148939962Y-64379151D01*
X148959368Y-64388330D01*
X148977781Y-64399366D01*
X148995024Y-64412154D01*
X149010930Y-64426570D01*
X149025346Y-64442476D01*
X149038134Y-64459719D01*
X149049170Y-64478132D01*
X149058349Y-64497538D01*
X149065581Y-64517750D01*
X149070797Y-64538574D01*
X149073947Y-64559809D01*
X149075000Y-64581250D01*
X149075000Y-65018750D01*
X149073947Y-65040191D01*
X149070797Y-65061426D01*
X149065581Y-65082250D01*
X149058349Y-65102462D01*
X149049170Y-65121868D01*
X149038134Y-65140281D01*
X149025346Y-65157524D01*
X149010930Y-65173430D01*
X148995024Y-65187846D01*
X148977781Y-65200634D01*
X148959368Y-65211670D01*
X148939962Y-65220849D01*
X148919750Y-65228081D01*
X148898926Y-65233297D01*
X148877691Y-65236447D01*
X148856250Y-65237500D01*
X148343750Y-65237500D01*
X148322309Y-65236447D01*
X148301074Y-65233297D01*
X148280250Y-65228081D01*
X148260038Y-65220849D01*
X148240632Y-65211670D01*
X148222219Y-65200634D01*
X148204976Y-65187846D01*
X148189070Y-65173430D01*
X148174654Y-65157524D01*
X148161866Y-65140281D01*
X148150830Y-65121868D01*
X148141651Y-65102462D01*
X148134419Y-65082250D01*
X148129203Y-65061426D01*
X148126053Y-65040191D01*
X148125000Y-65018750D01*
X148125000Y-64581250D01*
X148126053Y-64559809D01*
X148129203Y-64538574D01*
X148134419Y-64517750D01*
X148141651Y-64497538D01*
X148150830Y-64478132D01*
X148161866Y-64459719D01*
X148174654Y-64442476D01*
X148189070Y-64426570D01*
X148204976Y-64412154D01*
X148222219Y-64399366D01*
X148240632Y-64388330D01*
X148260038Y-64379151D01*
X148280250Y-64371919D01*
X148301074Y-64366703D01*
X148322309Y-64363553D01*
X148343750Y-64362500D01*
X148856250Y-64362500D01*
X148877691Y-64363553D01*
X148877691Y-64363553D01*
G37*
D15*
X148600000Y-64800000D03*
D12*
G36*
X148877691Y-65938553D02*
X148898926Y-65941703D01*
X148919750Y-65946919D01*
X148939962Y-65954151D01*
X148959368Y-65963330D01*
X148977781Y-65974366D01*
X148995024Y-65987154D01*
X149010930Y-66001570D01*
X149025346Y-66017476D01*
X149038134Y-66034719D01*
X149049170Y-66053132D01*
X149058349Y-66072538D01*
X149065581Y-66092750D01*
X149070797Y-66113574D01*
X149073947Y-66134809D01*
X149075000Y-66156250D01*
X149075000Y-66593750D01*
X149073947Y-66615191D01*
X149070797Y-66636426D01*
X149065581Y-66657250D01*
X149058349Y-66677462D01*
X149049170Y-66696868D01*
X149038134Y-66715281D01*
X149025346Y-66732524D01*
X149010930Y-66748430D01*
X148995024Y-66762846D01*
X148977781Y-66775634D01*
X148959368Y-66786670D01*
X148939962Y-66795849D01*
X148919750Y-66803081D01*
X148898926Y-66808297D01*
X148877691Y-66811447D01*
X148856250Y-66812500D01*
X148343750Y-66812500D01*
X148322309Y-66811447D01*
X148301074Y-66808297D01*
X148280250Y-66803081D01*
X148260038Y-66795849D01*
X148240632Y-66786670D01*
X148222219Y-66775634D01*
X148204976Y-66762846D01*
X148189070Y-66748430D01*
X148174654Y-66732524D01*
X148161866Y-66715281D01*
X148150830Y-66696868D01*
X148141651Y-66677462D01*
X148134419Y-66657250D01*
X148129203Y-66636426D01*
X148126053Y-66615191D01*
X148125000Y-66593750D01*
X148125000Y-66156250D01*
X148126053Y-66134809D01*
X148129203Y-66113574D01*
X148134419Y-66092750D01*
X148141651Y-66072538D01*
X148150830Y-66053132D01*
X148161866Y-66034719D01*
X148174654Y-66017476D01*
X148189070Y-66001570D01*
X148204976Y-65987154D01*
X148222219Y-65974366D01*
X148240632Y-65963330D01*
X148260038Y-65954151D01*
X148280250Y-65946919D01*
X148301074Y-65941703D01*
X148322309Y-65938553D01*
X148343750Y-65937500D01*
X148856250Y-65937500D01*
X148877691Y-65938553D01*
X148877691Y-65938553D01*
G37*
D15*
X148600000Y-66375000D03*
G04 #@! TD*
D12*
G04 #@! TO.C,C5*
G36*
X161615191Y-53726053D02*
X161636426Y-53729203D01*
X161657250Y-53734419D01*
X161677462Y-53741651D01*
X161696868Y-53750830D01*
X161715281Y-53761866D01*
X161732524Y-53774654D01*
X161748430Y-53789070D01*
X161762846Y-53804976D01*
X161775634Y-53822219D01*
X161786670Y-53840632D01*
X161795849Y-53860038D01*
X161803081Y-53880250D01*
X161808297Y-53901074D01*
X161811447Y-53922309D01*
X161812500Y-53943750D01*
X161812500Y-54456250D01*
X161811447Y-54477691D01*
X161808297Y-54498926D01*
X161803081Y-54519750D01*
X161795849Y-54539962D01*
X161786670Y-54559368D01*
X161775634Y-54577781D01*
X161762846Y-54595024D01*
X161748430Y-54610930D01*
X161732524Y-54625346D01*
X161715281Y-54638134D01*
X161696868Y-54649170D01*
X161677462Y-54658349D01*
X161657250Y-54665581D01*
X161636426Y-54670797D01*
X161615191Y-54673947D01*
X161593750Y-54675000D01*
X161156250Y-54675000D01*
X161134809Y-54673947D01*
X161113574Y-54670797D01*
X161092750Y-54665581D01*
X161072538Y-54658349D01*
X161053132Y-54649170D01*
X161034719Y-54638134D01*
X161017476Y-54625346D01*
X161001570Y-54610930D01*
X160987154Y-54595024D01*
X160974366Y-54577781D01*
X160963330Y-54559368D01*
X160954151Y-54539962D01*
X160946919Y-54519750D01*
X160941703Y-54498926D01*
X160938553Y-54477691D01*
X160937500Y-54456250D01*
X160937500Y-53943750D01*
X160938553Y-53922309D01*
X160941703Y-53901074D01*
X160946919Y-53880250D01*
X160954151Y-53860038D01*
X160963330Y-53840632D01*
X160974366Y-53822219D01*
X160987154Y-53804976D01*
X161001570Y-53789070D01*
X161017476Y-53774654D01*
X161034719Y-53761866D01*
X161053132Y-53750830D01*
X161072538Y-53741651D01*
X161092750Y-53734419D01*
X161113574Y-53729203D01*
X161134809Y-53726053D01*
X161156250Y-53725000D01*
X161593750Y-53725000D01*
X161615191Y-53726053D01*
X161615191Y-53726053D01*
G37*
D15*
X161375000Y-54200000D03*
D12*
G36*
X160040191Y-53726053D02*
X160061426Y-53729203D01*
X160082250Y-53734419D01*
X160102462Y-53741651D01*
X160121868Y-53750830D01*
X160140281Y-53761866D01*
X160157524Y-53774654D01*
X160173430Y-53789070D01*
X160187846Y-53804976D01*
X160200634Y-53822219D01*
X160211670Y-53840632D01*
X160220849Y-53860038D01*
X160228081Y-53880250D01*
X160233297Y-53901074D01*
X160236447Y-53922309D01*
X160237500Y-53943750D01*
X160237500Y-54456250D01*
X160236447Y-54477691D01*
X160233297Y-54498926D01*
X160228081Y-54519750D01*
X160220849Y-54539962D01*
X160211670Y-54559368D01*
X160200634Y-54577781D01*
X160187846Y-54595024D01*
X160173430Y-54610930D01*
X160157524Y-54625346D01*
X160140281Y-54638134D01*
X160121868Y-54649170D01*
X160102462Y-54658349D01*
X160082250Y-54665581D01*
X160061426Y-54670797D01*
X160040191Y-54673947D01*
X160018750Y-54675000D01*
X159581250Y-54675000D01*
X159559809Y-54673947D01*
X159538574Y-54670797D01*
X159517750Y-54665581D01*
X159497538Y-54658349D01*
X159478132Y-54649170D01*
X159459719Y-54638134D01*
X159442476Y-54625346D01*
X159426570Y-54610930D01*
X159412154Y-54595024D01*
X159399366Y-54577781D01*
X159388330Y-54559368D01*
X159379151Y-54539962D01*
X159371919Y-54519750D01*
X159366703Y-54498926D01*
X159363553Y-54477691D01*
X159362500Y-54456250D01*
X159362500Y-53943750D01*
X159363553Y-53922309D01*
X159366703Y-53901074D01*
X159371919Y-53880250D01*
X159379151Y-53860038D01*
X159388330Y-53840632D01*
X159399366Y-53822219D01*
X159412154Y-53804976D01*
X159426570Y-53789070D01*
X159442476Y-53774654D01*
X159459719Y-53761866D01*
X159478132Y-53750830D01*
X159497538Y-53741651D01*
X159517750Y-53734419D01*
X159538574Y-53729203D01*
X159559809Y-53726053D01*
X159581250Y-53725000D01*
X160018750Y-53725000D01*
X160040191Y-53726053D01*
X160040191Y-53726053D01*
G37*
D15*
X159800000Y-54200000D03*
G04 #@! TD*
D12*
G04 #@! TO.C,C6*
G36*
X161627691Y-55326053D02*
X161648926Y-55329203D01*
X161669750Y-55334419D01*
X161689962Y-55341651D01*
X161709368Y-55350830D01*
X161727781Y-55361866D01*
X161745024Y-55374654D01*
X161760930Y-55389070D01*
X161775346Y-55404976D01*
X161788134Y-55422219D01*
X161799170Y-55440632D01*
X161808349Y-55460038D01*
X161815581Y-55480250D01*
X161820797Y-55501074D01*
X161823947Y-55522309D01*
X161825000Y-55543750D01*
X161825000Y-56056250D01*
X161823947Y-56077691D01*
X161820797Y-56098926D01*
X161815581Y-56119750D01*
X161808349Y-56139962D01*
X161799170Y-56159368D01*
X161788134Y-56177781D01*
X161775346Y-56195024D01*
X161760930Y-56210930D01*
X161745024Y-56225346D01*
X161727781Y-56238134D01*
X161709368Y-56249170D01*
X161689962Y-56258349D01*
X161669750Y-56265581D01*
X161648926Y-56270797D01*
X161627691Y-56273947D01*
X161606250Y-56275000D01*
X161168750Y-56275000D01*
X161147309Y-56273947D01*
X161126074Y-56270797D01*
X161105250Y-56265581D01*
X161085038Y-56258349D01*
X161065632Y-56249170D01*
X161047219Y-56238134D01*
X161029976Y-56225346D01*
X161014070Y-56210930D01*
X160999654Y-56195024D01*
X160986866Y-56177781D01*
X160975830Y-56159368D01*
X160966651Y-56139962D01*
X160959419Y-56119750D01*
X160954203Y-56098926D01*
X160951053Y-56077691D01*
X160950000Y-56056250D01*
X160950000Y-55543750D01*
X160951053Y-55522309D01*
X160954203Y-55501074D01*
X160959419Y-55480250D01*
X160966651Y-55460038D01*
X160975830Y-55440632D01*
X160986866Y-55422219D01*
X160999654Y-55404976D01*
X161014070Y-55389070D01*
X161029976Y-55374654D01*
X161047219Y-55361866D01*
X161065632Y-55350830D01*
X161085038Y-55341651D01*
X161105250Y-55334419D01*
X161126074Y-55329203D01*
X161147309Y-55326053D01*
X161168750Y-55325000D01*
X161606250Y-55325000D01*
X161627691Y-55326053D01*
X161627691Y-55326053D01*
G37*
D15*
X161387500Y-55800000D03*
D12*
G36*
X160052691Y-55326053D02*
X160073926Y-55329203D01*
X160094750Y-55334419D01*
X160114962Y-55341651D01*
X160134368Y-55350830D01*
X160152781Y-55361866D01*
X160170024Y-55374654D01*
X160185930Y-55389070D01*
X160200346Y-55404976D01*
X160213134Y-55422219D01*
X160224170Y-55440632D01*
X160233349Y-55460038D01*
X160240581Y-55480250D01*
X160245797Y-55501074D01*
X160248947Y-55522309D01*
X160250000Y-55543750D01*
X160250000Y-56056250D01*
X160248947Y-56077691D01*
X160245797Y-56098926D01*
X160240581Y-56119750D01*
X160233349Y-56139962D01*
X160224170Y-56159368D01*
X160213134Y-56177781D01*
X160200346Y-56195024D01*
X160185930Y-56210930D01*
X160170024Y-56225346D01*
X160152781Y-56238134D01*
X160134368Y-56249170D01*
X160114962Y-56258349D01*
X160094750Y-56265581D01*
X160073926Y-56270797D01*
X160052691Y-56273947D01*
X160031250Y-56275000D01*
X159593750Y-56275000D01*
X159572309Y-56273947D01*
X159551074Y-56270797D01*
X159530250Y-56265581D01*
X159510038Y-56258349D01*
X159490632Y-56249170D01*
X159472219Y-56238134D01*
X159454976Y-56225346D01*
X159439070Y-56210930D01*
X159424654Y-56195024D01*
X159411866Y-56177781D01*
X159400830Y-56159368D01*
X159391651Y-56139962D01*
X159384419Y-56119750D01*
X159379203Y-56098926D01*
X159376053Y-56077691D01*
X159375000Y-56056250D01*
X159375000Y-55543750D01*
X159376053Y-55522309D01*
X159379203Y-55501074D01*
X159384419Y-55480250D01*
X159391651Y-55460038D01*
X159400830Y-55440632D01*
X159411866Y-55422219D01*
X159424654Y-55404976D01*
X159439070Y-55389070D01*
X159454976Y-55374654D01*
X159472219Y-55361866D01*
X159490632Y-55350830D01*
X159510038Y-55341651D01*
X159530250Y-55334419D01*
X159551074Y-55329203D01*
X159572309Y-55326053D01*
X159593750Y-55325000D01*
X160031250Y-55325000D01*
X160052691Y-55326053D01*
X160052691Y-55326053D01*
G37*
D15*
X159812500Y-55800000D03*
G04 #@! TD*
D12*
G04 #@! TO.C,C7*
G36*
X157527691Y-55826053D02*
X157548926Y-55829203D01*
X157569750Y-55834419D01*
X157589962Y-55841651D01*
X157609368Y-55850830D01*
X157627781Y-55861866D01*
X157645024Y-55874654D01*
X157660930Y-55889070D01*
X157675346Y-55904976D01*
X157688134Y-55922219D01*
X157699170Y-55940632D01*
X157708349Y-55960038D01*
X157715581Y-55980250D01*
X157720797Y-56001074D01*
X157723947Y-56022309D01*
X157725000Y-56043750D01*
X157725000Y-56556250D01*
X157723947Y-56577691D01*
X157720797Y-56598926D01*
X157715581Y-56619750D01*
X157708349Y-56639962D01*
X157699170Y-56659368D01*
X157688134Y-56677781D01*
X157675346Y-56695024D01*
X157660930Y-56710930D01*
X157645024Y-56725346D01*
X157627781Y-56738134D01*
X157609368Y-56749170D01*
X157589962Y-56758349D01*
X157569750Y-56765581D01*
X157548926Y-56770797D01*
X157527691Y-56773947D01*
X157506250Y-56775000D01*
X157068750Y-56775000D01*
X157047309Y-56773947D01*
X157026074Y-56770797D01*
X157005250Y-56765581D01*
X156985038Y-56758349D01*
X156965632Y-56749170D01*
X156947219Y-56738134D01*
X156929976Y-56725346D01*
X156914070Y-56710930D01*
X156899654Y-56695024D01*
X156886866Y-56677781D01*
X156875830Y-56659368D01*
X156866651Y-56639962D01*
X156859419Y-56619750D01*
X156854203Y-56598926D01*
X156851053Y-56577691D01*
X156850000Y-56556250D01*
X156850000Y-56043750D01*
X156851053Y-56022309D01*
X156854203Y-56001074D01*
X156859419Y-55980250D01*
X156866651Y-55960038D01*
X156875830Y-55940632D01*
X156886866Y-55922219D01*
X156899654Y-55904976D01*
X156914070Y-55889070D01*
X156929976Y-55874654D01*
X156947219Y-55861866D01*
X156965632Y-55850830D01*
X156985038Y-55841651D01*
X157005250Y-55834419D01*
X157026074Y-55829203D01*
X157047309Y-55826053D01*
X157068750Y-55825000D01*
X157506250Y-55825000D01*
X157527691Y-55826053D01*
X157527691Y-55826053D01*
G37*
D15*
X157287500Y-56300000D03*
D12*
G36*
X155952691Y-55826053D02*
X155973926Y-55829203D01*
X155994750Y-55834419D01*
X156014962Y-55841651D01*
X156034368Y-55850830D01*
X156052781Y-55861866D01*
X156070024Y-55874654D01*
X156085930Y-55889070D01*
X156100346Y-55904976D01*
X156113134Y-55922219D01*
X156124170Y-55940632D01*
X156133349Y-55960038D01*
X156140581Y-55980250D01*
X156145797Y-56001074D01*
X156148947Y-56022309D01*
X156150000Y-56043750D01*
X156150000Y-56556250D01*
X156148947Y-56577691D01*
X156145797Y-56598926D01*
X156140581Y-56619750D01*
X156133349Y-56639962D01*
X156124170Y-56659368D01*
X156113134Y-56677781D01*
X156100346Y-56695024D01*
X156085930Y-56710930D01*
X156070024Y-56725346D01*
X156052781Y-56738134D01*
X156034368Y-56749170D01*
X156014962Y-56758349D01*
X155994750Y-56765581D01*
X155973926Y-56770797D01*
X155952691Y-56773947D01*
X155931250Y-56775000D01*
X155493750Y-56775000D01*
X155472309Y-56773947D01*
X155451074Y-56770797D01*
X155430250Y-56765581D01*
X155410038Y-56758349D01*
X155390632Y-56749170D01*
X155372219Y-56738134D01*
X155354976Y-56725346D01*
X155339070Y-56710930D01*
X155324654Y-56695024D01*
X155311866Y-56677781D01*
X155300830Y-56659368D01*
X155291651Y-56639962D01*
X155284419Y-56619750D01*
X155279203Y-56598926D01*
X155276053Y-56577691D01*
X155275000Y-56556250D01*
X155275000Y-56043750D01*
X155276053Y-56022309D01*
X155279203Y-56001074D01*
X155284419Y-55980250D01*
X155291651Y-55960038D01*
X155300830Y-55940632D01*
X155311866Y-55922219D01*
X155324654Y-55904976D01*
X155339070Y-55889070D01*
X155354976Y-55874654D01*
X155372219Y-55861866D01*
X155390632Y-55850830D01*
X155410038Y-55841651D01*
X155430250Y-55834419D01*
X155451074Y-55829203D01*
X155472309Y-55826053D01*
X155493750Y-55825000D01*
X155931250Y-55825000D01*
X155952691Y-55826053D01*
X155952691Y-55826053D01*
G37*
D15*
X155712500Y-56300000D03*
G04 #@! TD*
D12*
G04 #@! TO.C,D1*
G36*
X136836642Y-54426174D02*
X136860303Y-54429684D01*
X136883507Y-54435496D01*
X136906029Y-54443554D01*
X136927653Y-54453782D01*
X136948170Y-54466079D01*
X136967383Y-54480329D01*
X136985107Y-54496393D01*
X137001171Y-54514117D01*
X137015421Y-54533330D01*
X137027718Y-54553847D01*
X137037946Y-54575471D01*
X137046004Y-54597993D01*
X137051816Y-54621197D01*
X137055326Y-54644858D01*
X137056500Y-54668750D01*
X137056500Y-55581250D01*
X137055326Y-55605142D01*
X137051816Y-55628803D01*
X137046004Y-55652007D01*
X137037946Y-55674529D01*
X137027718Y-55696153D01*
X137015421Y-55716670D01*
X137001171Y-55735883D01*
X136985107Y-55753607D01*
X136967383Y-55769671D01*
X136948170Y-55783921D01*
X136927653Y-55796218D01*
X136906029Y-55806446D01*
X136883507Y-55814504D01*
X136860303Y-55820316D01*
X136836642Y-55823826D01*
X136812750Y-55825000D01*
X136325250Y-55825000D01*
X136301358Y-55823826D01*
X136277697Y-55820316D01*
X136254493Y-55814504D01*
X136231971Y-55806446D01*
X136210347Y-55796218D01*
X136189830Y-55783921D01*
X136170617Y-55769671D01*
X136152893Y-55753607D01*
X136136829Y-55735883D01*
X136122579Y-55716670D01*
X136110282Y-55696153D01*
X136100054Y-55674529D01*
X136091996Y-55652007D01*
X136086184Y-55628803D01*
X136082674Y-55605142D01*
X136081500Y-55581250D01*
X136081500Y-54668750D01*
X136082674Y-54644858D01*
X136086184Y-54621197D01*
X136091996Y-54597993D01*
X136100054Y-54575471D01*
X136110282Y-54553847D01*
X136122579Y-54533330D01*
X136136829Y-54514117D01*
X136152893Y-54496393D01*
X136170617Y-54480329D01*
X136189830Y-54466079D01*
X136210347Y-54453782D01*
X136231971Y-54443554D01*
X136254493Y-54435496D01*
X136277697Y-54429684D01*
X136301358Y-54426174D01*
X136325250Y-54425000D01*
X136812750Y-54425000D01*
X136836642Y-54426174D01*
X136836642Y-54426174D01*
G37*
D16*
X136569000Y-55125000D03*
D12*
G36*
X134961642Y-54426174D02*
X134985303Y-54429684D01*
X135008507Y-54435496D01*
X135031029Y-54443554D01*
X135052653Y-54453782D01*
X135073170Y-54466079D01*
X135092383Y-54480329D01*
X135110107Y-54496393D01*
X135126171Y-54514117D01*
X135140421Y-54533330D01*
X135152718Y-54553847D01*
X135162946Y-54575471D01*
X135171004Y-54597993D01*
X135176816Y-54621197D01*
X135180326Y-54644858D01*
X135181500Y-54668750D01*
X135181500Y-55581250D01*
X135180326Y-55605142D01*
X135176816Y-55628803D01*
X135171004Y-55652007D01*
X135162946Y-55674529D01*
X135152718Y-55696153D01*
X135140421Y-55716670D01*
X135126171Y-55735883D01*
X135110107Y-55753607D01*
X135092383Y-55769671D01*
X135073170Y-55783921D01*
X135052653Y-55796218D01*
X135031029Y-55806446D01*
X135008507Y-55814504D01*
X134985303Y-55820316D01*
X134961642Y-55823826D01*
X134937750Y-55825000D01*
X134450250Y-55825000D01*
X134426358Y-55823826D01*
X134402697Y-55820316D01*
X134379493Y-55814504D01*
X134356971Y-55806446D01*
X134335347Y-55796218D01*
X134314830Y-55783921D01*
X134295617Y-55769671D01*
X134277893Y-55753607D01*
X134261829Y-55735883D01*
X134247579Y-55716670D01*
X134235282Y-55696153D01*
X134225054Y-55674529D01*
X134216996Y-55652007D01*
X134211184Y-55628803D01*
X134207674Y-55605142D01*
X134206500Y-55581250D01*
X134206500Y-54668750D01*
X134207674Y-54644858D01*
X134211184Y-54621197D01*
X134216996Y-54597993D01*
X134225054Y-54575471D01*
X134235282Y-54553847D01*
X134247579Y-54533330D01*
X134261829Y-54514117D01*
X134277893Y-54496393D01*
X134295617Y-54480329D01*
X134314830Y-54466079D01*
X134335347Y-54453782D01*
X134356971Y-54443554D01*
X134379493Y-54435496D01*
X134402697Y-54429684D01*
X134426358Y-54426174D01*
X134450250Y-54425000D01*
X134937750Y-54425000D01*
X134961642Y-54426174D01*
X134961642Y-54426174D01*
G37*
D16*
X134694000Y-55125000D03*
G04 #@! TD*
D12*
G04 #@! TO.C,D2*
G36*
X134699142Y-68826174D02*
X134722803Y-68829684D01*
X134746007Y-68835496D01*
X134768529Y-68843554D01*
X134790153Y-68853782D01*
X134810670Y-68866079D01*
X134829883Y-68880329D01*
X134847607Y-68896393D01*
X134863671Y-68914117D01*
X134877921Y-68933330D01*
X134890218Y-68953847D01*
X134900446Y-68975471D01*
X134908504Y-68997993D01*
X134914316Y-69021197D01*
X134917826Y-69044858D01*
X134919000Y-69068750D01*
X134919000Y-69981250D01*
X134917826Y-70005142D01*
X134914316Y-70028803D01*
X134908504Y-70052007D01*
X134900446Y-70074529D01*
X134890218Y-70096153D01*
X134877921Y-70116670D01*
X134863671Y-70135883D01*
X134847607Y-70153607D01*
X134829883Y-70169671D01*
X134810670Y-70183921D01*
X134790153Y-70196218D01*
X134768529Y-70206446D01*
X134746007Y-70214504D01*
X134722803Y-70220316D01*
X134699142Y-70223826D01*
X134675250Y-70225000D01*
X134187750Y-70225000D01*
X134163858Y-70223826D01*
X134140197Y-70220316D01*
X134116993Y-70214504D01*
X134094471Y-70206446D01*
X134072847Y-70196218D01*
X134052330Y-70183921D01*
X134033117Y-70169671D01*
X134015393Y-70153607D01*
X133999329Y-70135883D01*
X133985079Y-70116670D01*
X133972782Y-70096153D01*
X133962554Y-70074529D01*
X133954496Y-70052007D01*
X133948684Y-70028803D01*
X133945174Y-70005142D01*
X133944000Y-69981250D01*
X133944000Y-69068750D01*
X133945174Y-69044858D01*
X133948684Y-69021197D01*
X133954496Y-68997993D01*
X133962554Y-68975471D01*
X133972782Y-68953847D01*
X133985079Y-68933330D01*
X133999329Y-68914117D01*
X134015393Y-68896393D01*
X134033117Y-68880329D01*
X134052330Y-68866079D01*
X134072847Y-68853782D01*
X134094471Y-68843554D01*
X134116993Y-68835496D01*
X134140197Y-68829684D01*
X134163858Y-68826174D01*
X134187750Y-68825000D01*
X134675250Y-68825000D01*
X134699142Y-68826174D01*
X134699142Y-68826174D01*
G37*
D16*
X134431500Y-69525000D03*
D12*
G36*
X136574142Y-68826174D02*
X136597803Y-68829684D01*
X136621007Y-68835496D01*
X136643529Y-68843554D01*
X136665153Y-68853782D01*
X136685670Y-68866079D01*
X136704883Y-68880329D01*
X136722607Y-68896393D01*
X136738671Y-68914117D01*
X136752921Y-68933330D01*
X136765218Y-68953847D01*
X136775446Y-68975471D01*
X136783504Y-68997993D01*
X136789316Y-69021197D01*
X136792826Y-69044858D01*
X136794000Y-69068750D01*
X136794000Y-69981250D01*
X136792826Y-70005142D01*
X136789316Y-70028803D01*
X136783504Y-70052007D01*
X136775446Y-70074529D01*
X136765218Y-70096153D01*
X136752921Y-70116670D01*
X136738671Y-70135883D01*
X136722607Y-70153607D01*
X136704883Y-70169671D01*
X136685670Y-70183921D01*
X136665153Y-70196218D01*
X136643529Y-70206446D01*
X136621007Y-70214504D01*
X136597803Y-70220316D01*
X136574142Y-70223826D01*
X136550250Y-70225000D01*
X136062750Y-70225000D01*
X136038858Y-70223826D01*
X136015197Y-70220316D01*
X135991993Y-70214504D01*
X135969471Y-70206446D01*
X135947847Y-70196218D01*
X135927330Y-70183921D01*
X135908117Y-70169671D01*
X135890393Y-70153607D01*
X135874329Y-70135883D01*
X135860079Y-70116670D01*
X135847782Y-70096153D01*
X135837554Y-70074529D01*
X135829496Y-70052007D01*
X135823684Y-70028803D01*
X135820174Y-70005142D01*
X135819000Y-69981250D01*
X135819000Y-69068750D01*
X135820174Y-69044858D01*
X135823684Y-69021197D01*
X135829496Y-68997993D01*
X135837554Y-68975471D01*
X135847782Y-68953847D01*
X135860079Y-68933330D01*
X135874329Y-68914117D01*
X135890393Y-68896393D01*
X135908117Y-68880329D01*
X135927330Y-68866079D01*
X135947847Y-68853782D01*
X135969471Y-68843554D01*
X135991993Y-68835496D01*
X136015197Y-68829684D01*
X136038858Y-68826174D01*
X136062750Y-68825000D01*
X136550250Y-68825000D01*
X136574142Y-68826174D01*
X136574142Y-68826174D01*
G37*
D16*
X136306500Y-69525000D03*
G04 #@! TD*
D12*
G04 #@! TO.C,R1*
G36*
X143740191Y-54726053D02*
X143761426Y-54729203D01*
X143782250Y-54734419D01*
X143802462Y-54741651D01*
X143821868Y-54750830D01*
X143840281Y-54761866D01*
X143857524Y-54774654D01*
X143873430Y-54789070D01*
X143887846Y-54804976D01*
X143900634Y-54822219D01*
X143911670Y-54840632D01*
X143920849Y-54860038D01*
X143928081Y-54880250D01*
X143933297Y-54901074D01*
X143936447Y-54922309D01*
X143937500Y-54943750D01*
X143937500Y-55456250D01*
X143936447Y-55477691D01*
X143933297Y-55498926D01*
X143928081Y-55519750D01*
X143920849Y-55539962D01*
X143911670Y-55559368D01*
X143900634Y-55577781D01*
X143887846Y-55595024D01*
X143873430Y-55610930D01*
X143857524Y-55625346D01*
X143840281Y-55638134D01*
X143821868Y-55649170D01*
X143802462Y-55658349D01*
X143782250Y-55665581D01*
X143761426Y-55670797D01*
X143740191Y-55673947D01*
X143718750Y-55675000D01*
X143281250Y-55675000D01*
X143259809Y-55673947D01*
X143238574Y-55670797D01*
X143217750Y-55665581D01*
X143197538Y-55658349D01*
X143178132Y-55649170D01*
X143159719Y-55638134D01*
X143142476Y-55625346D01*
X143126570Y-55610930D01*
X143112154Y-55595024D01*
X143099366Y-55577781D01*
X143088330Y-55559368D01*
X143079151Y-55539962D01*
X143071919Y-55519750D01*
X143066703Y-55498926D01*
X143063553Y-55477691D01*
X143062500Y-55456250D01*
X143062500Y-54943750D01*
X143063553Y-54922309D01*
X143066703Y-54901074D01*
X143071919Y-54880250D01*
X143079151Y-54860038D01*
X143088330Y-54840632D01*
X143099366Y-54822219D01*
X143112154Y-54804976D01*
X143126570Y-54789070D01*
X143142476Y-54774654D01*
X143159719Y-54761866D01*
X143178132Y-54750830D01*
X143197538Y-54741651D01*
X143217750Y-54734419D01*
X143238574Y-54729203D01*
X143259809Y-54726053D01*
X143281250Y-54725000D01*
X143718750Y-54725000D01*
X143740191Y-54726053D01*
X143740191Y-54726053D01*
G37*
D15*
X143500000Y-55200000D03*
D12*
G36*
X142165191Y-54726053D02*
X142186426Y-54729203D01*
X142207250Y-54734419D01*
X142227462Y-54741651D01*
X142246868Y-54750830D01*
X142265281Y-54761866D01*
X142282524Y-54774654D01*
X142298430Y-54789070D01*
X142312846Y-54804976D01*
X142325634Y-54822219D01*
X142336670Y-54840632D01*
X142345849Y-54860038D01*
X142353081Y-54880250D01*
X142358297Y-54901074D01*
X142361447Y-54922309D01*
X142362500Y-54943750D01*
X142362500Y-55456250D01*
X142361447Y-55477691D01*
X142358297Y-55498926D01*
X142353081Y-55519750D01*
X142345849Y-55539962D01*
X142336670Y-55559368D01*
X142325634Y-55577781D01*
X142312846Y-55595024D01*
X142298430Y-55610930D01*
X142282524Y-55625346D01*
X142265281Y-55638134D01*
X142246868Y-55649170D01*
X142227462Y-55658349D01*
X142207250Y-55665581D01*
X142186426Y-55670797D01*
X142165191Y-55673947D01*
X142143750Y-55675000D01*
X141706250Y-55675000D01*
X141684809Y-55673947D01*
X141663574Y-55670797D01*
X141642750Y-55665581D01*
X141622538Y-55658349D01*
X141603132Y-55649170D01*
X141584719Y-55638134D01*
X141567476Y-55625346D01*
X141551570Y-55610930D01*
X141537154Y-55595024D01*
X141524366Y-55577781D01*
X141513330Y-55559368D01*
X141504151Y-55539962D01*
X141496919Y-55519750D01*
X141491703Y-55498926D01*
X141488553Y-55477691D01*
X141487500Y-55456250D01*
X141487500Y-54943750D01*
X141488553Y-54922309D01*
X141491703Y-54901074D01*
X141496919Y-54880250D01*
X141504151Y-54860038D01*
X141513330Y-54840632D01*
X141524366Y-54822219D01*
X141537154Y-54804976D01*
X141551570Y-54789070D01*
X141567476Y-54774654D01*
X141584719Y-54761866D01*
X141603132Y-54750830D01*
X141622538Y-54741651D01*
X141642750Y-54734419D01*
X141663574Y-54729203D01*
X141684809Y-54726053D01*
X141706250Y-54725000D01*
X142143750Y-54725000D01*
X142165191Y-54726053D01*
X142165191Y-54726053D01*
G37*
D15*
X141925000Y-55200000D03*
G04 #@! TD*
D12*
G04 #@! TO.C,R2*
G36*
X138609191Y-54651053D02*
X138630426Y-54654203D01*
X138651250Y-54659419D01*
X138671462Y-54666651D01*
X138690868Y-54675830D01*
X138709281Y-54686866D01*
X138726524Y-54699654D01*
X138742430Y-54714070D01*
X138756846Y-54729976D01*
X138769634Y-54747219D01*
X138780670Y-54765632D01*
X138789849Y-54785038D01*
X138797081Y-54805250D01*
X138802297Y-54826074D01*
X138805447Y-54847309D01*
X138806500Y-54868750D01*
X138806500Y-55381250D01*
X138805447Y-55402691D01*
X138802297Y-55423926D01*
X138797081Y-55444750D01*
X138789849Y-55464962D01*
X138780670Y-55484368D01*
X138769634Y-55502781D01*
X138756846Y-55520024D01*
X138742430Y-55535930D01*
X138726524Y-55550346D01*
X138709281Y-55563134D01*
X138690868Y-55574170D01*
X138671462Y-55583349D01*
X138651250Y-55590581D01*
X138630426Y-55595797D01*
X138609191Y-55598947D01*
X138587750Y-55600000D01*
X138150250Y-55600000D01*
X138128809Y-55598947D01*
X138107574Y-55595797D01*
X138086750Y-55590581D01*
X138066538Y-55583349D01*
X138047132Y-55574170D01*
X138028719Y-55563134D01*
X138011476Y-55550346D01*
X137995570Y-55535930D01*
X137981154Y-55520024D01*
X137968366Y-55502781D01*
X137957330Y-55484368D01*
X137948151Y-55464962D01*
X137940919Y-55444750D01*
X137935703Y-55423926D01*
X137932553Y-55402691D01*
X137931500Y-55381250D01*
X137931500Y-54868750D01*
X137932553Y-54847309D01*
X137935703Y-54826074D01*
X137940919Y-54805250D01*
X137948151Y-54785038D01*
X137957330Y-54765632D01*
X137968366Y-54747219D01*
X137981154Y-54729976D01*
X137995570Y-54714070D01*
X138011476Y-54699654D01*
X138028719Y-54686866D01*
X138047132Y-54675830D01*
X138066538Y-54666651D01*
X138086750Y-54659419D01*
X138107574Y-54654203D01*
X138128809Y-54651053D01*
X138150250Y-54650000D01*
X138587750Y-54650000D01*
X138609191Y-54651053D01*
X138609191Y-54651053D01*
G37*
D15*
X138369000Y-55125000D03*
D12*
G36*
X140184191Y-54651053D02*
X140205426Y-54654203D01*
X140226250Y-54659419D01*
X140246462Y-54666651D01*
X140265868Y-54675830D01*
X140284281Y-54686866D01*
X140301524Y-54699654D01*
X140317430Y-54714070D01*
X140331846Y-54729976D01*
X140344634Y-54747219D01*
X140355670Y-54765632D01*
X140364849Y-54785038D01*
X140372081Y-54805250D01*
X140377297Y-54826074D01*
X140380447Y-54847309D01*
X140381500Y-54868750D01*
X140381500Y-55381250D01*
X140380447Y-55402691D01*
X140377297Y-55423926D01*
X140372081Y-55444750D01*
X140364849Y-55464962D01*
X140355670Y-55484368D01*
X140344634Y-55502781D01*
X140331846Y-55520024D01*
X140317430Y-55535930D01*
X140301524Y-55550346D01*
X140284281Y-55563134D01*
X140265868Y-55574170D01*
X140246462Y-55583349D01*
X140226250Y-55590581D01*
X140205426Y-55595797D01*
X140184191Y-55598947D01*
X140162750Y-55600000D01*
X139725250Y-55600000D01*
X139703809Y-55598947D01*
X139682574Y-55595797D01*
X139661750Y-55590581D01*
X139641538Y-55583349D01*
X139622132Y-55574170D01*
X139603719Y-55563134D01*
X139586476Y-55550346D01*
X139570570Y-55535930D01*
X139556154Y-55520024D01*
X139543366Y-55502781D01*
X139532330Y-55484368D01*
X139523151Y-55464962D01*
X139515919Y-55444750D01*
X139510703Y-55423926D01*
X139507553Y-55402691D01*
X139506500Y-55381250D01*
X139506500Y-54868750D01*
X139507553Y-54847309D01*
X139510703Y-54826074D01*
X139515919Y-54805250D01*
X139523151Y-54785038D01*
X139532330Y-54765632D01*
X139543366Y-54747219D01*
X139556154Y-54729976D01*
X139570570Y-54714070D01*
X139586476Y-54699654D01*
X139603719Y-54686866D01*
X139622132Y-54675830D01*
X139641538Y-54666651D01*
X139661750Y-54659419D01*
X139682574Y-54654203D01*
X139703809Y-54651053D01*
X139725250Y-54650000D01*
X140162750Y-54650000D01*
X140184191Y-54651053D01*
X140184191Y-54651053D01*
G37*
D15*
X139944000Y-55125000D03*
G04 #@! TD*
D12*
G04 #@! TO.C,R3*
G36*
X140109191Y-69051053D02*
X140130426Y-69054203D01*
X140151250Y-69059419D01*
X140171462Y-69066651D01*
X140190868Y-69075830D01*
X140209281Y-69086866D01*
X140226524Y-69099654D01*
X140242430Y-69114070D01*
X140256846Y-69129976D01*
X140269634Y-69147219D01*
X140280670Y-69165632D01*
X140289849Y-69185038D01*
X140297081Y-69205250D01*
X140302297Y-69226074D01*
X140305447Y-69247309D01*
X140306500Y-69268750D01*
X140306500Y-69781250D01*
X140305447Y-69802691D01*
X140302297Y-69823926D01*
X140297081Y-69844750D01*
X140289849Y-69864962D01*
X140280670Y-69884368D01*
X140269634Y-69902781D01*
X140256846Y-69920024D01*
X140242430Y-69935930D01*
X140226524Y-69950346D01*
X140209281Y-69963134D01*
X140190868Y-69974170D01*
X140171462Y-69983349D01*
X140151250Y-69990581D01*
X140130426Y-69995797D01*
X140109191Y-69998947D01*
X140087750Y-70000000D01*
X139650250Y-70000000D01*
X139628809Y-69998947D01*
X139607574Y-69995797D01*
X139586750Y-69990581D01*
X139566538Y-69983349D01*
X139547132Y-69974170D01*
X139528719Y-69963134D01*
X139511476Y-69950346D01*
X139495570Y-69935930D01*
X139481154Y-69920024D01*
X139468366Y-69902781D01*
X139457330Y-69884368D01*
X139448151Y-69864962D01*
X139440919Y-69844750D01*
X139435703Y-69823926D01*
X139432553Y-69802691D01*
X139431500Y-69781250D01*
X139431500Y-69268750D01*
X139432553Y-69247309D01*
X139435703Y-69226074D01*
X139440919Y-69205250D01*
X139448151Y-69185038D01*
X139457330Y-69165632D01*
X139468366Y-69147219D01*
X139481154Y-69129976D01*
X139495570Y-69114070D01*
X139511476Y-69099654D01*
X139528719Y-69086866D01*
X139547132Y-69075830D01*
X139566538Y-69066651D01*
X139586750Y-69059419D01*
X139607574Y-69054203D01*
X139628809Y-69051053D01*
X139650250Y-69050000D01*
X140087750Y-69050000D01*
X140109191Y-69051053D01*
X140109191Y-69051053D01*
G37*
D15*
X139869000Y-69525000D03*
D12*
G36*
X138534191Y-69051053D02*
X138555426Y-69054203D01*
X138576250Y-69059419D01*
X138596462Y-69066651D01*
X138615868Y-69075830D01*
X138634281Y-69086866D01*
X138651524Y-69099654D01*
X138667430Y-69114070D01*
X138681846Y-69129976D01*
X138694634Y-69147219D01*
X138705670Y-69165632D01*
X138714849Y-69185038D01*
X138722081Y-69205250D01*
X138727297Y-69226074D01*
X138730447Y-69247309D01*
X138731500Y-69268750D01*
X138731500Y-69781250D01*
X138730447Y-69802691D01*
X138727297Y-69823926D01*
X138722081Y-69844750D01*
X138714849Y-69864962D01*
X138705670Y-69884368D01*
X138694634Y-69902781D01*
X138681846Y-69920024D01*
X138667430Y-69935930D01*
X138651524Y-69950346D01*
X138634281Y-69963134D01*
X138615868Y-69974170D01*
X138596462Y-69983349D01*
X138576250Y-69990581D01*
X138555426Y-69995797D01*
X138534191Y-69998947D01*
X138512750Y-70000000D01*
X138075250Y-70000000D01*
X138053809Y-69998947D01*
X138032574Y-69995797D01*
X138011750Y-69990581D01*
X137991538Y-69983349D01*
X137972132Y-69974170D01*
X137953719Y-69963134D01*
X137936476Y-69950346D01*
X137920570Y-69935930D01*
X137906154Y-69920024D01*
X137893366Y-69902781D01*
X137882330Y-69884368D01*
X137873151Y-69864962D01*
X137865919Y-69844750D01*
X137860703Y-69823926D01*
X137857553Y-69802691D01*
X137856500Y-69781250D01*
X137856500Y-69268750D01*
X137857553Y-69247309D01*
X137860703Y-69226074D01*
X137865919Y-69205250D01*
X137873151Y-69185038D01*
X137882330Y-69165632D01*
X137893366Y-69147219D01*
X137906154Y-69129976D01*
X137920570Y-69114070D01*
X137936476Y-69099654D01*
X137953719Y-69086866D01*
X137972132Y-69075830D01*
X137991538Y-69066651D01*
X138011750Y-69059419D01*
X138032574Y-69054203D01*
X138053809Y-69051053D01*
X138075250Y-69050000D01*
X138512750Y-69050000D01*
X138534191Y-69051053D01*
X138534191Y-69051053D01*
G37*
D15*
X138294000Y-69525000D03*
G04 #@! TD*
D12*
G04 #@! TO.C,R4*
G36*
X157615191Y-57426053D02*
X157636426Y-57429203D01*
X157657250Y-57434419D01*
X157677462Y-57441651D01*
X157696868Y-57450830D01*
X157715281Y-57461866D01*
X157732524Y-57474654D01*
X157748430Y-57489070D01*
X157762846Y-57504976D01*
X157775634Y-57522219D01*
X157786670Y-57540632D01*
X157795849Y-57560038D01*
X157803081Y-57580250D01*
X157808297Y-57601074D01*
X157811447Y-57622309D01*
X157812500Y-57643750D01*
X157812500Y-58156250D01*
X157811447Y-58177691D01*
X157808297Y-58198926D01*
X157803081Y-58219750D01*
X157795849Y-58239962D01*
X157786670Y-58259368D01*
X157775634Y-58277781D01*
X157762846Y-58295024D01*
X157748430Y-58310930D01*
X157732524Y-58325346D01*
X157715281Y-58338134D01*
X157696868Y-58349170D01*
X157677462Y-58358349D01*
X157657250Y-58365581D01*
X157636426Y-58370797D01*
X157615191Y-58373947D01*
X157593750Y-58375000D01*
X157156250Y-58375000D01*
X157134809Y-58373947D01*
X157113574Y-58370797D01*
X157092750Y-58365581D01*
X157072538Y-58358349D01*
X157053132Y-58349170D01*
X157034719Y-58338134D01*
X157017476Y-58325346D01*
X157001570Y-58310930D01*
X156987154Y-58295024D01*
X156974366Y-58277781D01*
X156963330Y-58259368D01*
X156954151Y-58239962D01*
X156946919Y-58219750D01*
X156941703Y-58198926D01*
X156938553Y-58177691D01*
X156937500Y-58156250D01*
X156937500Y-57643750D01*
X156938553Y-57622309D01*
X156941703Y-57601074D01*
X156946919Y-57580250D01*
X156954151Y-57560038D01*
X156963330Y-57540632D01*
X156974366Y-57522219D01*
X156987154Y-57504976D01*
X157001570Y-57489070D01*
X157017476Y-57474654D01*
X157034719Y-57461866D01*
X157053132Y-57450830D01*
X157072538Y-57441651D01*
X157092750Y-57434419D01*
X157113574Y-57429203D01*
X157134809Y-57426053D01*
X157156250Y-57425000D01*
X157593750Y-57425000D01*
X157615191Y-57426053D01*
X157615191Y-57426053D01*
G37*
D15*
X157375000Y-57900000D03*
D12*
G36*
X156040191Y-57426053D02*
X156061426Y-57429203D01*
X156082250Y-57434419D01*
X156102462Y-57441651D01*
X156121868Y-57450830D01*
X156140281Y-57461866D01*
X156157524Y-57474654D01*
X156173430Y-57489070D01*
X156187846Y-57504976D01*
X156200634Y-57522219D01*
X156211670Y-57540632D01*
X156220849Y-57560038D01*
X156228081Y-57580250D01*
X156233297Y-57601074D01*
X156236447Y-57622309D01*
X156237500Y-57643750D01*
X156237500Y-58156250D01*
X156236447Y-58177691D01*
X156233297Y-58198926D01*
X156228081Y-58219750D01*
X156220849Y-58239962D01*
X156211670Y-58259368D01*
X156200634Y-58277781D01*
X156187846Y-58295024D01*
X156173430Y-58310930D01*
X156157524Y-58325346D01*
X156140281Y-58338134D01*
X156121868Y-58349170D01*
X156102462Y-58358349D01*
X156082250Y-58365581D01*
X156061426Y-58370797D01*
X156040191Y-58373947D01*
X156018750Y-58375000D01*
X155581250Y-58375000D01*
X155559809Y-58373947D01*
X155538574Y-58370797D01*
X155517750Y-58365581D01*
X155497538Y-58358349D01*
X155478132Y-58349170D01*
X155459719Y-58338134D01*
X155442476Y-58325346D01*
X155426570Y-58310930D01*
X155412154Y-58295024D01*
X155399366Y-58277781D01*
X155388330Y-58259368D01*
X155379151Y-58239962D01*
X155371919Y-58219750D01*
X155366703Y-58198926D01*
X155363553Y-58177691D01*
X155362500Y-58156250D01*
X155362500Y-57643750D01*
X155363553Y-57622309D01*
X155366703Y-57601074D01*
X155371919Y-57580250D01*
X155379151Y-57560038D01*
X155388330Y-57540632D01*
X155399366Y-57522219D01*
X155412154Y-57504976D01*
X155426570Y-57489070D01*
X155442476Y-57474654D01*
X155459719Y-57461866D01*
X155478132Y-57450830D01*
X155497538Y-57441651D01*
X155517750Y-57434419D01*
X155538574Y-57429203D01*
X155559809Y-57426053D01*
X155581250Y-57425000D01*
X156018750Y-57425000D01*
X156040191Y-57426053D01*
X156040191Y-57426053D01*
G37*
D15*
X155800000Y-57900000D03*
G04 #@! TD*
D17*
G04 #@! TO.C,U1*
X155000000Y-70000000D03*
X153000000Y-70950000D03*
X153000000Y-69050000D03*
G04 #@! TD*
D12*
G04 #@! TO.C,C8*
G36*
X148584191Y-57151053D02*
X148605426Y-57154203D01*
X148626250Y-57159419D01*
X148646462Y-57166651D01*
X148665868Y-57175830D01*
X148684281Y-57186866D01*
X148701524Y-57199654D01*
X148717430Y-57214070D01*
X148731846Y-57229976D01*
X148744634Y-57247219D01*
X148755670Y-57265632D01*
X148764849Y-57285038D01*
X148772081Y-57305250D01*
X148777297Y-57326074D01*
X148780447Y-57347309D01*
X148781500Y-57368750D01*
X148781500Y-57881250D01*
X148780447Y-57902691D01*
X148777297Y-57923926D01*
X148772081Y-57944750D01*
X148764849Y-57964962D01*
X148755670Y-57984368D01*
X148744634Y-58002781D01*
X148731846Y-58020024D01*
X148717430Y-58035930D01*
X148701524Y-58050346D01*
X148684281Y-58063134D01*
X148665868Y-58074170D01*
X148646462Y-58083349D01*
X148626250Y-58090581D01*
X148605426Y-58095797D01*
X148584191Y-58098947D01*
X148562750Y-58100000D01*
X148125250Y-58100000D01*
X148103809Y-58098947D01*
X148082574Y-58095797D01*
X148061750Y-58090581D01*
X148041538Y-58083349D01*
X148022132Y-58074170D01*
X148003719Y-58063134D01*
X147986476Y-58050346D01*
X147970570Y-58035930D01*
X147956154Y-58020024D01*
X147943366Y-58002781D01*
X147932330Y-57984368D01*
X147923151Y-57964962D01*
X147915919Y-57944750D01*
X147910703Y-57923926D01*
X147907553Y-57902691D01*
X147906500Y-57881250D01*
X147906500Y-57368750D01*
X147907553Y-57347309D01*
X147910703Y-57326074D01*
X147915919Y-57305250D01*
X147923151Y-57285038D01*
X147932330Y-57265632D01*
X147943366Y-57247219D01*
X147956154Y-57229976D01*
X147970570Y-57214070D01*
X147986476Y-57199654D01*
X148003719Y-57186866D01*
X148022132Y-57175830D01*
X148041538Y-57166651D01*
X148061750Y-57159419D01*
X148082574Y-57154203D01*
X148103809Y-57151053D01*
X148125250Y-57150000D01*
X148562750Y-57150000D01*
X148584191Y-57151053D01*
X148584191Y-57151053D01*
G37*
D15*
X148344000Y-57625000D03*
D12*
G36*
X147009191Y-57151053D02*
X147030426Y-57154203D01*
X147051250Y-57159419D01*
X147071462Y-57166651D01*
X147090868Y-57175830D01*
X147109281Y-57186866D01*
X147126524Y-57199654D01*
X147142430Y-57214070D01*
X147156846Y-57229976D01*
X147169634Y-57247219D01*
X147180670Y-57265632D01*
X147189849Y-57285038D01*
X147197081Y-57305250D01*
X147202297Y-57326074D01*
X147205447Y-57347309D01*
X147206500Y-57368750D01*
X147206500Y-57881250D01*
X147205447Y-57902691D01*
X147202297Y-57923926D01*
X147197081Y-57944750D01*
X147189849Y-57964962D01*
X147180670Y-57984368D01*
X147169634Y-58002781D01*
X147156846Y-58020024D01*
X147142430Y-58035930D01*
X147126524Y-58050346D01*
X147109281Y-58063134D01*
X147090868Y-58074170D01*
X147071462Y-58083349D01*
X147051250Y-58090581D01*
X147030426Y-58095797D01*
X147009191Y-58098947D01*
X146987750Y-58100000D01*
X146550250Y-58100000D01*
X146528809Y-58098947D01*
X146507574Y-58095797D01*
X146486750Y-58090581D01*
X146466538Y-58083349D01*
X146447132Y-58074170D01*
X146428719Y-58063134D01*
X146411476Y-58050346D01*
X146395570Y-58035930D01*
X146381154Y-58020024D01*
X146368366Y-58002781D01*
X146357330Y-57984368D01*
X146348151Y-57964962D01*
X146340919Y-57944750D01*
X146335703Y-57923926D01*
X146332553Y-57902691D01*
X146331500Y-57881250D01*
X146331500Y-57368750D01*
X146332553Y-57347309D01*
X146335703Y-57326074D01*
X146340919Y-57305250D01*
X146348151Y-57285038D01*
X146357330Y-57265632D01*
X146368366Y-57247219D01*
X146381154Y-57229976D01*
X146395570Y-57214070D01*
X146411476Y-57199654D01*
X146428719Y-57186866D01*
X146447132Y-57175830D01*
X146466538Y-57166651D01*
X146486750Y-57159419D01*
X146507574Y-57154203D01*
X146528809Y-57151053D01*
X146550250Y-57150000D01*
X146987750Y-57150000D01*
X147009191Y-57151053D01*
X147009191Y-57151053D01*
G37*
D15*
X146769000Y-57625000D03*
G04 #@! TD*
D12*
G04 #@! TO.C,C9*
G36*
X148709191Y-62851053D02*
X148730426Y-62854203D01*
X148751250Y-62859419D01*
X148771462Y-62866651D01*
X148790868Y-62875830D01*
X148809281Y-62886866D01*
X148826524Y-62899654D01*
X148842430Y-62914070D01*
X148856846Y-62929976D01*
X148869634Y-62947219D01*
X148880670Y-62965632D01*
X148889849Y-62985038D01*
X148897081Y-63005250D01*
X148902297Y-63026074D01*
X148905447Y-63047309D01*
X148906500Y-63068750D01*
X148906500Y-63581250D01*
X148905447Y-63602691D01*
X148902297Y-63623926D01*
X148897081Y-63644750D01*
X148889849Y-63664962D01*
X148880670Y-63684368D01*
X148869634Y-63702781D01*
X148856846Y-63720024D01*
X148842430Y-63735930D01*
X148826524Y-63750346D01*
X148809281Y-63763134D01*
X148790868Y-63774170D01*
X148771462Y-63783349D01*
X148751250Y-63790581D01*
X148730426Y-63795797D01*
X148709191Y-63798947D01*
X148687750Y-63800000D01*
X148250250Y-63800000D01*
X148228809Y-63798947D01*
X148207574Y-63795797D01*
X148186750Y-63790581D01*
X148166538Y-63783349D01*
X148147132Y-63774170D01*
X148128719Y-63763134D01*
X148111476Y-63750346D01*
X148095570Y-63735930D01*
X148081154Y-63720024D01*
X148068366Y-63702781D01*
X148057330Y-63684368D01*
X148048151Y-63664962D01*
X148040919Y-63644750D01*
X148035703Y-63623926D01*
X148032553Y-63602691D01*
X148031500Y-63581250D01*
X148031500Y-63068750D01*
X148032553Y-63047309D01*
X148035703Y-63026074D01*
X148040919Y-63005250D01*
X148048151Y-62985038D01*
X148057330Y-62965632D01*
X148068366Y-62947219D01*
X148081154Y-62929976D01*
X148095570Y-62914070D01*
X148111476Y-62899654D01*
X148128719Y-62886866D01*
X148147132Y-62875830D01*
X148166538Y-62866651D01*
X148186750Y-62859419D01*
X148207574Y-62854203D01*
X148228809Y-62851053D01*
X148250250Y-62850000D01*
X148687750Y-62850000D01*
X148709191Y-62851053D01*
X148709191Y-62851053D01*
G37*
D15*
X148469000Y-63325000D03*
D12*
G36*
X147134191Y-62851053D02*
X147155426Y-62854203D01*
X147176250Y-62859419D01*
X147196462Y-62866651D01*
X147215868Y-62875830D01*
X147234281Y-62886866D01*
X147251524Y-62899654D01*
X147267430Y-62914070D01*
X147281846Y-62929976D01*
X147294634Y-62947219D01*
X147305670Y-62965632D01*
X147314849Y-62985038D01*
X147322081Y-63005250D01*
X147327297Y-63026074D01*
X147330447Y-63047309D01*
X147331500Y-63068750D01*
X147331500Y-63581250D01*
X147330447Y-63602691D01*
X147327297Y-63623926D01*
X147322081Y-63644750D01*
X147314849Y-63664962D01*
X147305670Y-63684368D01*
X147294634Y-63702781D01*
X147281846Y-63720024D01*
X147267430Y-63735930D01*
X147251524Y-63750346D01*
X147234281Y-63763134D01*
X147215868Y-63774170D01*
X147196462Y-63783349D01*
X147176250Y-63790581D01*
X147155426Y-63795797D01*
X147134191Y-63798947D01*
X147112750Y-63800000D01*
X146675250Y-63800000D01*
X146653809Y-63798947D01*
X146632574Y-63795797D01*
X146611750Y-63790581D01*
X146591538Y-63783349D01*
X146572132Y-63774170D01*
X146553719Y-63763134D01*
X146536476Y-63750346D01*
X146520570Y-63735930D01*
X146506154Y-63720024D01*
X146493366Y-63702781D01*
X146482330Y-63684368D01*
X146473151Y-63664962D01*
X146465919Y-63644750D01*
X146460703Y-63623926D01*
X146457553Y-63602691D01*
X146456500Y-63581250D01*
X146456500Y-63068750D01*
X146457553Y-63047309D01*
X146460703Y-63026074D01*
X146465919Y-63005250D01*
X146473151Y-62985038D01*
X146482330Y-62965632D01*
X146493366Y-62947219D01*
X146506154Y-62929976D01*
X146520570Y-62914070D01*
X146536476Y-62899654D01*
X146553719Y-62886866D01*
X146572132Y-62875830D01*
X146591538Y-62866651D01*
X146611750Y-62859419D01*
X146632574Y-62854203D01*
X146653809Y-62851053D01*
X146675250Y-62850000D01*
X147112750Y-62850000D01*
X147134191Y-62851053D01*
X147134191Y-62851053D01*
G37*
D15*
X146894000Y-63325000D03*
G04 #@! TD*
M02*
