M48
;DRILL file {KiCad (5.0.0)} date 02/27/20 10:48:23
;FORMAT={-:-/ absolute / inch / decimal}
FMAT,2
INCH,TZ
T1C0.0157
T2C0.0236
T3C0.0394
%
G90
G05
M72
T1
X5.2901Y-2.812
X5.2941Y-2.2333
X5.4291Y-2.4724
X5.4319Y-2.2293
X5.4331Y-2.3425
X5.4515Y-2.1191
X5.4555Y-2.5482
X5.4712Y-2.7923
X5.5787Y-2.5906
X5.619Y-2.4364
X5.6248Y-2.4813
X5.6339Y-2.3583
X5.6457Y-2.2283
X5.6956Y-2.1821
X5.7402Y-2.6063
X5.7862Y-2.438
X5.798Y-2.7372
X5.857Y-2.7923
X5.8964Y-2.5128
X5.9082Y-2.3553
X5.9279Y-2.4252
X5.9391Y-2.2747
X5.9515Y-2.312
X6.0317Y-2.4666
X6.0578Y-2.2333
X6.0657Y-2.5955
X6.0945Y-2.5004
X6.1366Y-2.1427
X6.1378Y-2.4262
X6.1378Y-2.6654
X6.1523Y-2.4675
X6.2087Y-2.1575
X6.2717Y-2.2677
X6.2835Y-2.5
X6.2874Y-2.5748
X6.3089Y-2.4253
X6.3228Y-2.7953
T3
X6.3567Y-2.2829
X6.3567Y-2.3829
X6.3567Y-2.4829
X6.3567Y-2.5829
X6.3567Y-2.6829
X6.4567Y-2.2829
X6.4567Y-2.3829
X6.4567Y-2.4829
X6.4567Y-2.5829
X6.4567Y-2.6829
X5.7874Y-2.1654
X5.8874Y-2.1654
X5.9874Y-2.1654
T2
X5.3268Y-2.2815G85X5.2953Y-2.2815
G05
X5.3268Y-2.6283G85X5.2953Y-2.6283
G05
X5.7008Y-2.2815G85X5.6575Y-2.2815
G05
X5.7008Y-2.6181G85X5.6575Y-2.6181
G05
T0
M30
